MFile 1 9 120
MTrk
0 TimeSig 4/4 24 8
0 Tempo 600000
0 Meta TrkEnd
TrkEnd
MTrk
25920 On ch=1 n=73 v=92
25920 On ch=1 n=81 v=92
26020 On ch=1 n=73 v=0
26020 On ch=1 n=81 v=0
26040 On ch=1 n=73 v=92
26040 On ch=1 n=81 v=92
26128 On ch=1 n=73 v=0
26128 On ch=1 n=81 v=0
26130 On ch=1 n=73 v=92
26130 On ch=1 n=81 v=92
26158 On ch=1 n=73 v=0
26158 On ch=1 n=81 v=0
26160 On ch=1 n=73 v=92
26160 On ch=1 n=81 v=92
26218 On ch=1 n=73 v=0
26218 On ch=1 n=81 v=0
26220 On ch=1 n=73 v=92
26220 On ch=1 n=81 v=92
26278 On ch=1 n=73 v=0
26278 On ch=1 n=81 v=0
26280 On ch=1 n=73 v=92
26280 On ch=1 n=81 v=92
26338 On ch=1 n=73 v=0
26338 On ch=1 n=81 v=0
26340 On ch=1 n=73 v=92
26340 On ch=1 n=81 v=92
26398 On ch=1 n=73 v=0
26398 On ch=1 n=81 v=0
26400 On ch=1 n=73 v=92
26400 On ch=1 n=81 v=92
26475 On ch=1 n=73 v=0
26475 On ch=1 n=81 v=0
26520 On ch=1 n=76 v=92
26520 On ch=1 n=85 v=92
26595 On ch=1 n=76 v=0
26595 On ch=1 n=85 v=0
26640 On ch=1 n=73 v=92
26640 On ch=1 n=81 v=92
26715 On ch=1 n=73 v=0
26715 On ch=1 n=81 v=0
35520 On ch=1 n=73 v=92
35520 On ch=1 n=81 v=92
35620 On ch=1 n=73 v=0
35620 On ch=1 n=81 v=0
35640 On ch=1 n=73 v=92
35640 On ch=1 n=81 v=92
35728 On ch=1 n=73 v=0
35728 On ch=1 n=81 v=0
35730 On ch=1 n=73 v=92
35730 On ch=1 n=81 v=92
35758 On ch=1 n=73 v=0
35758 On ch=1 n=81 v=0
35760 On ch=1 n=73 v=92
35760 On ch=1 n=81 v=92
35818 On ch=1 n=73 v=0
35818 On ch=1 n=81 v=0
35820 On ch=1 n=73 v=92
35820 On ch=1 n=81 v=92
35878 On ch=1 n=73 v=0
35878 On ch=1 n=81 v=0
35880 On ch=1 n=73 v=92
35880 On ch=1 n=81 v=92
35938 On ch=1 n=73 v=0
35938 On ch=1 n=81 v=0
35940 On ch=1 n=73 v=92
35940 On ch=1 n=81 v=92
35998 On ch=1 n=73 v=0
35998 On ch=1 n=81 v=0
36000 On ch=1 n=73 v=92
36000 On ch=1 n=81 v=92
36100 On ch=1 n=73 v=0
36100 On ch=1 n=81 v=0
45660 On ch=1 n=71 v=45
45660 On ch=1 n=75 v=45
45690 On ch=1 n=71 v=0
45690 On ch=1 n=75 v=0
45690 On ch=1 n=73 v=45
45690 On ch=1 n=76 v=45
45720 On ch=1 n=73 v=0
45720 On ch=1 n=76 v=0
45720 On ch=1 n=75 v=45
45720 On ch=1 n=78 v=45
45778 On ch=1 n=75 v=0
45778 On ch=1 n=78 v=0
45780 On ch=1 n=76 v=45
45780 On ch=1 n=79 v=45
45800 On ch=1 n=76 v=0
45800 On ch=1 n=79 v=0
45840 On ch=1 n=78 v=45
45840 On ch=1 n=81 v=45
46050 On ch=1 n=81 v=0
46080 On ch=1 n=79 v=45
46290 On ch=1 n=78 v=0
46320 On ch=1 n=76 v=45
46530 On ch=1 n=79 v=0
46530 On ch=1 n=76 v=0
46560 On ch=1 n=75 v=45
46560 On ch=1 n=78 v=45
46590 On ch=1 n=75 v=0
46590 On ch=1 n=78 v=0
46740 On ch=1 n=78 v=92
46740 On ch=1 n=83 v=92
46760 On ch=1 n=78 v=0
46760 On ch=1 n=83 v=0
46800 On ch=1 n=76 v=92
46800 On ch=1 n=79 v=92
46820 On ch=1 n=76 v=0
46820 On ch=1 n=79 v=0
46920 On ch=1 n=79 v=92
46920 On ch=1 n=88 v=92
46940 On ch=1 n=79 v=0
46940 On ch=1 n=88 v=0
47040 On ch=1 n=78 v=92
47040 On ch=1 n=87 v=92
47140 On ch=1 n=78 v=0
47140 On ch=1 n=87 v=0
47220 On ch=1 n=78 v=92
47220 On ch=1 n=83 v=92
47240 On ch=1 n=78 v=0
47240 On ch=1 n=83 v=0
47280 On ch=1 n=76 v=92
47280 On ch=1 n=79 v=92
47300 On ch=1 n=76 v=0
47300 On ch=1 n=79 v=0
47400 On ch=1 n=88 v=92
47400 On ch=1 n=91 v=92
47420 On ch=1 n=88 v=0
47420 On ch=1 n=91 v=0
47520 On ch=1 n=87 v=92
47520 On ch=1 n=90 v=92
47620 On ch=1 n=87 v=0
47620 On ch=1 n=90 v=0
47620 Meta TrkEnd
TrkEnd
MTrk
25920 On ch=2 n=61 v=92
25920 On ch=2 n=64 v=92
25920 On ch=2 n=61 v=92
25920 On ch=2 n=64 v=92
26020 On ch=2 n=61 v=0
26020 On ch=2 n=64 v=0
26020 On ch=2 n=61 v=0
26020 On ch=2 n=64 v=0
26040 On ch=2 n=61 v=92
26040 On ch=2 n=64 v=92
26040 On ch=2 n=61 v=92
26040 On ch=2 n=64 v=92
26128 On ch=2 n=61 v=0
26128 On ch=2 n=64 v=0
26128 On ch=2 n=61 v=0
26128 On ch=2 n=64 v=0
26130 On ch=2 n=61 v=92
26130 On ch=2 n=64 v=92
26130 On ch=2 n=61 v=92
26130 On ch=2 n=64 v=92
26158 On ch=2 n=61 v=0
26158 On ch=2 n=64 v=0
26158 On ch=2 n=61 v=0
26158 On ch=2 n=64 v=0
26160 On ch=2 n=61 v=92
26160 On ch=2 n=64 v=92
26160 On ch=2 n=61 v=92
26160 On ch=2 n=64 v=92
26218 On ch=2 n=61 v=0
26218 On ch=2 n=64 v=0
26218 On ch=2 n=61 v=0
26218 On ch=2 n=64 v=0
26220 On ch=2 n=61 v=92
26220 On ch=2 n=64 v=92
26220 On ch=2 n=61 v=92
26220 On ch=2 n=64 v=92
26278 On ch=2 n=61 v=0
26278 On ch=2 n=64 v=0
26278 On ch=2 n=61 v=0
26278 On ch=2 n=64 v=0
26280 On ch=2 n=61 v=92
26280 On ch=2 n=64 v=92
26280 On ch=2 n=61 v=92
26280 On ch=2 n=64 v=92
26338 On ch=2 n=61 v=0
26338 On ch=2 n=64 v=0
26338 On ch=2 n=61 v=0
26338 On ch=2 n=64 v=0
26340 On ch=2 n=61 v=92
26340 On ch=2 n=64 v=92
26340 On ch=2 n=61 v=92
26340 On ch=2 n=64 v=92
26398 On ch=2 n=61 v=0
26398 On ch=2 n=64 v=0
26398 On ch=2 n=61 v=0
26398 On ch=2 n=64 v=0
26400 On ch=2 n=61 v=92
26400 On ch=2 n=64 v=92
26400 On ch=2 n=61 v=92
26400 On ch=2 n=64 v=92
26430 On ch=2 n=61 v=0
26430 On ch=2 n=64 v=0
26430 On ch=2 n=61 v=0
26430 On ch=2 n=64 v=0
26520 On ch=2 n=61 v=92
26520 On ch=2 n=64 v=92
26520 On ch=2 n=61 v=92
26520 On ch=2 n=64 v=92
26550 On ch=2 n=61 v=0
26550 On ch=2 n=64 v=0
26550 On ch=2 n=61 v=0
26550 On ch=2 n=64 v=0
26640 On ch=2 n=61 v=92
26640 On ch=2 n=64 v=92
26640 On ch=2 n=61 v=92
26640 On ch=2 n=64 v=92
26670 On ch=2 n=61 v=0
26670 On ch=2 n=64 v=0
26670 On ch=2 n=61 v=0
26670 On ch=2 n=64 v=0
30300 On ch=2 n=61 v=45
30300 On ch=2 n=64 v=45
30300 On ch=2 n=61 v=45
30300 On ch=2 n=64 v=45
30420 On ch=2 n=61 v=0
30420 On ch=2 n=64 v=0
30420 On ch=2 n=61 v=0
30420 On ch=2 n=64 v=0
30420 On ch=2 n=59 v=45
30420 On ch=2 n=62 v=45
30420 On ch=2 n=59 v=45
30420 On ch=2 n=62 v=45
30478 On ch=2 n=59 v=0
30478 On ch=2 n=62 v=0
30478 On ch=2 n=59 v=0
30478 On ch=2 n=62 v=0
30480 On ch=2 n=57 v=45
30480 On ch=2 n=61 v=45
30480 On ch=2 n=57 v=45
30480 On ch=2 n=61 v=45
30500 On ch=2 n=57 v=0
30500 On ch=2 n=61 v=0
30500 On ch=2 n=57 v=0
30500 On ch=2 n=61 v=0
30540 On ch=2 n=52 v=45
30540 On ch=2 n=61 v=45
30540 On ch=2 n=52 v=45
30540 On ch=2 n=61 v=45
30660 On ch=2 n=52 v=0
30660 On ch=2 n=61 v=0
30660 On ch=2 n=52 v=0
30660 On ch=2 n=61 v=0
30660 On ch=2 n=50 v=45
30660 On ch=2 n=59 v=45
30660 On ch=2 n=50 v=45
30660 On ch=2 n=59 v=45
30718 On ch=2 n=50 v=0
30718 On ch=2 n=59 v=0
30718 On ch=2 n=50 v=0
30718 On ch=2 n=59 v=0
30720 On ch=2 n=49 v=45
30720 On ch=2 n=57 v=45
30720 On ch=2 n=49 v=45
30720 On ch=2 n=57 v=45
30819 On ch=2 n=49 v=0
30819 On ch=2 n=57 v=0
30819 On ch=2 n=49 v=0
30819 On ch=2 n=57 v=0
35520 On ch=2 n=61 v=92
35520 On ch=2 n=64 v=92
35520 On ch=2 n=61 v=92
35520 On ch=2 n=64 v=92
35620 On ch=2 n=61 v=0
35620 On ch=2 n=64 v=0
35620 On ch=2 n=61 v=0
35620 On ch=2 n=64 v=0
35640 On ch=2 n=61 v=92
35640 On ch=2 n=64 v=92
35640 On ch=2 n=61 v=92
35640 On ch=2 n=64 v=92
35728 On ch=2 n=61 v=0
35728 On ch=2 n=64 v=0
35728 On ch=2 n=61 v=0
35728 On ch=2 n=64 v=0
35730 On ch=2 n=61 v=92
35730 On ch=2 n=64 v=92
35730 On ch=2 n=61 v=92
35730 On ch=2 n=64 v=92
35758 On ch=2 n=61 v=0
35758 On ch=2 n=64 v=0
35758 On ch=2 n=61 v=0
35758 On ch=2 n=64 v=0
35760 On ch=2 n=61 v=92
35760 On ch=2 n=64 v=92
35760 On ch=2 n=61 v=92
35760 On ch=2 n=64 v=92
35818 On ch=2 n=61 v=0
35818 On ch=2 n=64 v=0
35818 On ch=2 n=61 v=0
35818 On ch=2 n=64 v=0
35820 On ch=2 n=61 v=92
35820 On ch=2 n=64 v=92
35820 On ch=2 n=61 v=92
35820 On ch=2 n=64 v=92
35878 On ch=2 n=61 v=0
35878 On ch=2 n=64 v=0
35878 On ch=2 n=61 v=0
35878 On ch=2 n=64 v=0
35880 On ch=2 n=61 v=92
35880 On ch=2 n=64 v=92
35880 On ch=2 n=61 v=92
35880 On ch=2 n=64 v=92
35938 On ch=2 n=61 v=0
35938 On ch=2 n=64 v=0
35938 On ch=2 n=61 v=0
35938 On ch=2 n=64 v=0
35940 On ch=2 n=61 v=92
35940 On ch=2 n=64 v=92
35940 On ch=2 n=61 v=92
35940 On ch=2 n=64 v=92
35998 On ch=2 n=61 v=0
35998 On ch=2 n=64 v=0
35998 On ch=2 n=61 v=0
35998 On ch=2 n=64 v=0
36000 On ch=2 n=61 v=92
36000 On ch=2 n=64 v=92
36000 On ch=2 n=61 v=92
36000 On ch=2 n=64 v=92
36100 On ch=2 n=61 v=0
36100 On ch=2 n=64 v=0
36100 On ch=2 n=61 v=0
36100 On ch=2 n=64 v=0
46620 On ch=2 n=47 v=92
46620 On ch=2 n=47 v=92
46640 On ch=2 n=47 v=0
46640 On ch=2 n=47 v=0
46680 On ch=2 n=49 v=92
46680 On ch=2 n=49 v=92
46700 On ch=2 n=49 v=0
46700 On ch=2 n=49 v=0
46740 On ch=2 n=51 v=92
46740 On ch=2 n=51 v=92
46760 On ch=2 n=51 v=0
46760 On ch=2 n=51 v=0
46800 On ch=2 n=52 v=92
46800 On ch=2 n=52 v=92
46828 On ch=2 n=52 v=0
46828 On ch=2 n=52 v=0
46830 On ch=2 n=51 v=92
46830 On ch=2 n=51 v=92
46858 On ch=2 n=51 v=0
46858 On ch=2 n=51 v=0
46860 On ch=2 n=52 v=92
46860 On ch=2 n=52 v=92
46888 On ch=2 n=52 v=0
46888 On ch=2 n=52 v=0
46890 On ch=2 n=54 v=92
46890 On ch=2 n=54 v=92
46918 On ch=2 n=54 v=0
46918 On ch=2 n=54 v=0
46920 On ch=2 n=55 v=92
46920 On ch=2 n=55 v=92
46948 On ch=2 n=55 v=0
46948 On ch=2 n=55 v=0
46950 On ch=2 n=54 v=92
46950 On ch=2 n=54 v=92
46978 On ch=2 n=54 v=0
46978 On ch=2 n=54 v=0
46980 On ch=2 n=55 v=92
46980 On ch=2 n=55 v=92
47008 On ch=2 n=55 v=0
47008 On ch=2 n=55 v=0
47010 On ch=2 n=57 v=92
47010 On ch=2 n=57 v=92
47038 On ch=2 n=57 v=0
47038 On ch=2 n=57 v=0
47040 On ch=2 n=59 v=92
47040 On ch=2 n=59 v=92
47098 On ch=2 n=59 v=0
47098 On ch=2 n=59 v=0
47100 On ch=2 n=47 v=92
47100 On ch=2 n=47 v=92
47120 On ch=2 n=47 v=0
47120 On ch=2 n=47 v=0
47160 On ch=2 n=49 v=92
47160 On ch=2 n=49 v=92
47180 On ch=2 n=49 v=0
47180 On ch=2 n=49 v=0
47220 On ch=2 n=51 v=92
47220 On ch=2 n=51 v=92
47240 On ch=2 n=51 v=0
47240 On ch=2 n=51 v=0
47280 On ch=2 n=52 v=92
47280 On ch=2 n=52 v=92
47308 On ch=2 n=52 v=0
47308 On ch=2 n=52 v=0
47310 On ch=2 n=51 v=92
47310 On ch=2 n=51 v=92
47338 On ch=2 n=51 v=0
47338 On ch=2 n=51 v=0
47340 On ch=2 n=52 v=92
47340 On ch=2 n=52 v=92
47368 On ch=2 n=52 v=0
47368 On ch=2 n=52 v=0
47370 On ch=2 n=54 v=92
47370 On ch=2 n=54 v=92
47398 On ch=2 n=54 v=0
47398 On ch=2 n=54 v=0
47400 On ch=2 n=55 v=92
47400 On ch=2 n=55 v=92
47428 On ch=2 n=55 v=0
47428 On ch=2 n=55 v=0
47430 On ch=2 n=54 v=92
47430 On ch=2 n=54 v=92
47458 On ch=2 n=54 v=0
47458 On ch=2 n=54 v=0
47460 On ch=2 n=55 v=92
47460 On ch=2 n=55 v=92
47488 On ch=2 n=55 v=0
47488 On ch=2 n=55 v=0
47490 On ch=2 n=57 v=92
47490 On ch=2 n=57 v=92
47518 On ch=2 n=57 v=0
47518 On ch=2 n=57 v=0
47520 On ch=2 n=59 v=92
47520 On ch=2 n=59 v=92
47620 On ch=2 n=59 v=0
47620 On ch=2 n=59 v=0
47620 Meta TrkEnd
TrkEnd
MTrk
25920 On ch=3 n=45 v=92
25920 On ch=3 n=57 v=92
26020 On ch=3 n=45 v=0
26020 On ch=3 n=57 v=0
26040 On ch=3 n=45 v=92
26040 On ch=3 n=57 v=92
26128 On ch=3 n=45 v=0
26128 On ch=3 n=57 v=0
26130 On ch=3 n=45 v=92
26130 On ch=3 n=57 v=92
26158 On ch=3 n=45 v=0
26158 On ch=3 n=57 v=0
26160 On ch=3 n=45 v=92
26160 On ch=3 n=57 v=92
26218 On ch=3 n=45 v=0
26218 On ch=3 n=57 v=0
26220 On ch=3 n=45 v=92
26220 On ch=3 n=57 v=92
26278 On ch=3 n=45 v=0
26278 On ch=3 n=57 v=0
26280 On ch=3 n=45 v=92
26280 On ch=3 n=57 v=92
26338 On ch=3 n=45 v=0
26338 On ch=3 n=57 v=0
26340 On ch=3 n=45 v=92
26340 On ch=3 n=57 v=92
26398 On ch=3 n=45 v=0
26398 On ch=3 n=57 v=0
26400 On ch=3 n=45 v=92
26400 On ch=3 n=57 v=92
26430 On ch=3 n=45 v=0
26430 On ch=3 n=57 v=0
26520 On ch=3 n=45 v=92
26520 On ch=3 n=57 v=92
26550 On ch=3 n=45 v=0
26550 On ch=3 n=57 v=0
26640 On ch=3 n=45 v=92
26640 On ch=3 n=57 v=92
26670 On ch=3 n=45 v=0
26670 On ch=3 n=57 v=0
46800 On ch=3 n=52 v=92
46800 On ch=3 n=59 v=92
46820 On ch=3 n=52 v=0
46820 On ch=3 n=59 v=0
46920 On ch=3 n=52 v=92
46920 On ch=3 n=59 v=92
46940 On ch=3 n=52 v=0
46940 On ch=3 n=59 v=0
47040 On ch=3 n=59 v=92
47070 On ch=3 n=59 v=0
47280 On ch=3 n=52 v=92
47280 On ch=3 n=59 v=92
47300 On ch=3 n=52 v=0
47300 On ch=3 n=59 v=0
47400 On ch=3 n=52 v=92
47400 On ch=3 n=59 v=92
47420 On ch=3 n=52 v=0
47420 On ch=3 n=59 v=0
47520 On ch=3 n=59 v=92
47620 On ch=3 n=59 v=0
47620 Meta TrkEnd
TrkEnd
MTrk
25230 On ch=4 n=62 v=45
25258 On ch=4 n=62 v=0
25260 On ch=4 n=66 v=45
25288 On ch=4 n=66 v=0
25290 On ch=4 n=69 v=45
25318 On ch=4 n=69 v=0
25320 On ch=4 n=68 v=45
25348 On ch=4 n=68 v=0
25350 On ch=4 n=64 v=45
25378 On ch=4 n=64 v=0
25380 On ch=4 n=68 v=45
25408 On ch=4 n=68 v=0
25410 On ch=4 n=71 v=45
25438 On ch=4 n=71 v=0
25440 On ch=4 n=69 v=45
25468 On ch=4 n=69 v=0
25470 On ch=4 n=73 v=45
25498 On ch=4 n=73 v=0
25500 On ch=4 n=76 v=45
25528 On ch=4 n=76 v=0
25530 On ch=4 n=73 v=45
25558 On ch=4 n=73 v=0
25560 On ch=4 n=69 v=45
25588 On ch=4 n=69 v=0
25590 On ch=4 n=64 v=45
25618 On ch=4 n=64 v=0
25620 On ch=4 n=61 v=45
25648 On ch=4 n=61 v=0
25650 On ch=4 n=64 v=45
25678 On ch=4 n=64 v=0
25680 On ch=4 n=66 v=45
25708 On ch=4 n=66 v=0
25710 On ch=4 n=62 v=45
25738 On ch=4 n=62 v=0
25740 On ch=4 n=66 v=45
25768 On ch=4 n=66 v=0
25770 On ch=4 n=69 v=45
25798 On ch=4 n=69 v=0
25800 On ch=4 n=68 v=45
25828 On ch=4 n=68 v=0
25830 On ch=4 n=64 v=45
25858 On ch=4 n=64 v=0
25860 On ch=4 n=68 v=45
25888 On ch=4 n=68 v=0
25890 On ch=4 n=71 v=45
25918 On ch=4 n=71 v=0
25920 On ch=4 n=69 v=92
25948 On ch=4 n=69 v=0
25950 On ch=4 n=64 v=92
25978 On ch=4 n=64 v=0
25980 On ch=4 n=61 v=92
26008 On ch=4 n=61 v=0
26010 On ch=4 n=64 v=92
26038 On ch=4 n=64 v=0
26040 On ch=4 n=69 v=92
26068 On ch=4 n=69 v=0
26070 On ch=4 n=64 v=92
26098 On ch=4 n=64 v=0
26100 On ch=4 n=69 v=92
26128 On ch=4 n=69 v=0
26130 On ch=4 n=64 v=92
26158 On ch=4 n=64 v=0
26160 On ch=4 n=73 v=92
26188 On ch=4 n=73 v=0
26190 On ch=4 n=69 v=92
26218 On ch=4 n=69 v=0
26220 On ch=4 n=73 v=92
26248 On ch=4 n=73 v=0
26250 On ch=4 n=69 v=92
26278 On ch=4 n=69 v=0
26280 On ch=4 n=76 v=92
26308 On ch=4 n=76 v=0
26310 On ch=4 n=73 v=92
26338 On ch=4 n=73 v=0
26340 On ch=4 n=76 v=92
26368 On ch=4 n=76 v=0
26370 On ch=4 n=73 v=92
26398 On ch=4 n=73 v=0
26400 On ch=4 n=69 v=92
26475 On ch=4 n=69 v=0
26520 On ch=4 n=81 v=92
26595 On ch=4 n=81 v=0
26640 On ch=4 n=69 v=92
26715 On ch=4 n=69 v=0
26880 On ch=4 n=76 v=60
27090 On ch=4 n=76 v=0
27120 On ch=4 n=73 v=60
27300 On ch=4 n=73 v=0
27300 On ch=4 n=74 v=60
27358 On ch=4 n=74 v=0
27360 On ch=4 n=78 v=60
27420 On ch=4 n=78 v=0
27420 On ch=4 n=76 v=60
27478 On ch=4 n=76 v=0
27480 On ch=4 n=74 v=60
27500 On ch=4 n=74 v=0
27540 On ch=4 n=73 v=60
27560 On ch=4 n=73 v=0
27600 On ch=4 n=73 v=60
27700 On ch=4 n=73 v=0
27840 On ch=4 n=74 v=60
27960 On ch=4 n=74 v=0
27960 On ch=4 n=71 v=45
28018 On ch=4 n=71 v=0
28080 On ch=4 n=74 v=60
28200 On ch=4 n=74 v=0
28200 On ch=4 n=71 v=45
28258 On ch=4 n=71 v=0
28320 On ch=4 n=69 v=60
28560 On ch=4 n=69 v=0
28560 On ch=4 n=68 v=45
28660 On ch=4 n=68 v=0
28800 On ch=4 n=69 v=60
29070 On ch=4 n=69 v=0
29070 On ch=4 n=68 v=60
29100 On ch=4 n=68 v=0
29100 On ch=4 n=69 v=60
29130 On ch=4 n=69 v=0
29130 On ch=4 n=68 v=60
29158 On ch=4 n=68 v=0
29160 On ch=4 n=71 v=60
29190 On ch=4 n=71 v=0
29190 On ch=4 n=69 v=60
29220 On ch=4 n=69 v=0
29220 On ch=4 n=68 v=60
29250 On ch=4 n=68 v=0
29250 On ch=4 n=66 v=60
29278 On ch=4 n=66 v=0
29280 On ch=4 n=64 v=60
29340 On ch=4 n=64 v=0
29340 On ch=4 n=74 v=60
29398 On ch=4 n=74 v=0
29400 On ch=4 n=74 v=60
29640 On ch=4 n=74 v=0
29640 On ch=4 n=73 v=60
29740 On ch=4 n=73 v=0
29760 On ch=4 n=71 v=60
29790 On ch=4 n=71 v=0
29790 On ch=4 n=73 v=60
29820 On ch=4 n=73 v=0
29820 On ch=4 n=74 v=60
29850 On ch=4 n=74 v=0
29850 On ch=4 n=76 v=60
29880 On ch=4 n=76 v=0
29880 On ch=4 n=77 v=60
29910 On ch=4 n=77 v=0
29910 On ch=4 n=78 v=60
29940 On ch=4 n=78 v=0
29940 On ch=4 n=74 v=60
29970 On ch=4 n=74 v=0
29970 On ch=4 n=71 v=60
29998 On ch=4 n=71 v=0
30000 On ch=4 n=69 v=60
30120 On ch=4 n=69 v=0
30120 On ch=4 n=73 v=60
30180 On ch=4 n=73 v=0
30180 On ch=4 n=71 v=60
30238 On ch=4 n=71 v=0
30240 On ch=4 n=69 v=60
30340 On ch=4 n=69 v=0
30720 On ch=4 n=69 v=45
31230 On ch=4 n=69 v=0
31230 On ch=4 n=71 v=45
31260 On ch=4 n=71 v=0
31260 On ch=4 n=73 v=45
31290 On ch=4 n=73 v=0
31290 On ch=4 n=74 v=45
31320 On ch=4 n=74 v=0
31320 On ch=4 n=76 v=45
31350 On ch=4 n=76 v=0
31350 On ch=4 n=78 v=45
31380 On ch=4 n=78 v=0
31380 On ch=4 n=80 v=45
31410 On ch=4 n=80 v=0
31410 On ch=4 n=81 v=45
31438 On ch=4 n=81 v=0
31440 On ch=4 n=80 v=45
31470 On ch=4 n=80 v=0
31470 On ch=4 n=81 v=45
31500 On ch=4 n=81 v=0
31500 On ch=4 n=80 v=45
31530 On ch=4 n=80 v=0
31530 On ch=4 n=81 v=45
31560 On ch=4 n=81 v=0
31560 On ch=4 n=80 v=45
31590 On ch=4 n=80 v=0
31590 On ch=4 n=81 v=45
31620 On ch=4 n=81 v=0
31620 On ch=4 n=80 v=45
31650 On ch=4 n=80 v=0
31650 On ch=4 n=81 v=45
31678 On ch=4 n=81 v=0
31680 On ch=4 n=77 v=45
31710 On ch=4 n=77 v=0
31710 On ch=4 n=78 v=45
31740 On ch=4 n=78 v=0
31740 On ch=4 n=77 v=45
31770 On ch=4 n=77 v=0
31770 On ch=4 n=78 v=45
31800 On ch=4 n=78 v=0
31800 On ch=4 n=73 v=45
31830 On ch=4 n=73 v=0
31830 On ch=4 n=74 v=45
31860 On ch=4 n=74 v=0
31860 On ch=4 n=73 v=45
31890 On ch=4 n=73 v=0
31890 On ch=4 n=74 v=45
31918 On ch=4 n=74 v=0
31920 On ch=4 n=70 v=45
31950 On ch=4 n=70 v=0
31950 On ch=4 n=71 v=45
31980 On ch=4 n=71 v=0
31980 On ch=4 n=73 v=45
32010 On ch=4 n=73 v=0
32010 On ch=4 n=74 v=45
32040 On ch=4 n=74 v=0
32040 On ch=4 n=75 v=45
32070 On ch=4 n=75 v=0
32070 On ch=4 n=76 v=45
32100 On ch=4 n=76 v=0
32100 On ch=4 n=77 v=45
32130 On ch=4 n=77 v=0
32130 On ch=4 n=78 v=45
32158 On ch=4 n=78 v=0
32160 On ch=4 n=69 v=45
32340 On ch=4 n=69 v=0
32340 On ch=4 n=71 v=45
32370 On ch=4 n=71 v=0
32370 On ch=4 n=69 v=45
32398 On ch=4 n=69 v=0
32400 On ch=4 n=68 v=45
32499 On ch=4 n=68 v=0
32640 On ch=4 n=76 v=60
32668 On ch=4 n=76 v=0
32670 On ch=4 n=74 v=60
32698 On ch=4 n=74 v=0
32700 On ch=4 n=71 v=60
32728 On ch=4 n=71 v=0
32730 On ch=4 n=68 v=60
32758 On ch=4 n=68 v=0
32760 On ch=4 n=64 v=60
32788 On ch=4 n=64 v=0
32790 On ch=4 n=62 v=60
32818 On ch=4 n=62 v=0
32820 On ch=4 n=59 v=60
32848 On ch=4 n=59 v=0
32850 On ch=4 n=56 v=60
32878 On ch=4 n=56 v=0
32880 On ch=4 n=52 v=60
33090 On ch=4 n=52 v=0
33120 On ch=4 n=50 v=60
33330 On ch=4 n=50 v=0
33360 On ch=4 n=80 v=45
33600 On ch=4 n=80 v=0
33600 On ch=4 n=81 v=57
33658 On ch=4 n=81 v=0
33660 On ch=4 n=73 v=60
33702 On ch=4 n=73 v=0
33720 On ch=4 n=74 v=60
33762 On ch=4 n=74 v=0
33780 On ch=4 n=75 v=60
33822 On ch=4 n=75 v=0
33840 On ch=4 n=76 v=60
33882 On ch=4 n=76 v=0
33900 On ch=4 n=68 v=60
33942 On ch=4 n=68 v=0
33960 On ch=4 n=69 v=60
34002 On ch=4 n=69 v=0
34020 On ch=4 n=70 v=60
34062 On ch=4 n=70 v=0
34080 On ch=4 n=71 v=60
34440 On ch=4 n=71 v=0
34440 On ch=4 n=73 v=60
34500 On ch=4 n=73 v=0
34500 On ch=4 n=75 v=60
34558 On ch=4 n=75 v=0
34560 On ch=4 n=73 v=60
34588 On ch=4 n=73 v=0
34590 On ch=4 n=81 v=60
34618 On ch=4 n=81 v=0
34620 On ch=4 n=76 v=60
34648 On ch=4 n=76 v=0
34650 On ch=4 n=73 v=60
34678 On ch=4 n=73 v=0
34680 On ch=4 n=69 v=60
34708 On ch=4 n=69 v=0
34710 On ch=4 n=64 v=60
34738 On ch=4 n=64 v=0
34740 On ch=4 n=61 v=60
34768 On ch=4 n=61 v=0
34770 On ch=4 n=57 v=60
34798 On ch=4 n=57 v=0
34800 On ch=4 n=54 v=60
34828 On ch=4 n=54 v=0
34830 On ch=4 n=57 v=60
34858 On ch=4 n=57 v=0
34860 On ch=4 n=62 v=60
34888 On ch=4 n=62 v=0
34890 On ch=4 n=66 v=60
34918 On ch=4 n=66 v=0
34920 On ch=4 n=69 v=60
34948 On ch=4 n=69 v=0
34950 On ch=4 n=74 v=60
34978 On ch=4 n=74 v=0
34980 On ch=4 n=78 v=60
35008 On ch=4 n=78 v=0
35010 On ch=4 n=81 v=60
35038 On ch=4 n=81 v=0
35040 On ch=4 n=75 v=60
35068 On ch=4 n=75 v=0
35070 On ch=4 n=76 v=60
35098 On ch=4 n=76 v=0
35100 On ch=4 n=78 v=60
35128 On ch=4 n=78 v=0
35130 On ch=4 n=76 v=60
35158 On ch=4 n=76 v=0
35160 On ch=4 n=74 v=60
35188 On ch=4 n=74 v=0
35190 On ch=4 n=73 v=60
35218 On ch=4 n=73 v=0
35220 On ch=4 n=71 v=60
35248 On ch=4 n=71 v=0
35250 On ch=4 n=69 v=60
35278 On ch=4 n=69 v=0
35280 On ch=4 n=71 v=60
35295 On ch=4 n=71 v=0
35295 On ch=4 n=73 v=60
35310 On ch=4 n=73 v=0
35310 On ch=4 n=71 v=60
35325 On ch=4 n=71 v=0
35325 On ch=4 n=73 v=60
35340 On ch=4 n=73 v=0
35340 On ch=4 n=71 v=60
35355 On ch=4 n=71 v=0
35355 On ch=4 n=73 v=60
35370 On ch=4 n=73 v=0
35370 On ch=4 n=71 v=60
35385 On ch=4 n=71 v=0
35385 On ch=4 n=73 v=60
35400 On ch=4 n=73 v=0
35400 On ch=4 n=71 v=60
35415 On ch=4 n=71 v=0
35415 On ch=4 n=73 v=60
35430 On ch=4 n=73 v=0
35430 On ch=4 n=71 v=60
35445 On ch=4 n=71 v=0
35445 On ch=4 n=73 v=60
35460 On ch=4 n=73 v=0
35460 On ch=4 n=69 v=60
35490 On ch=4 n=69 v=0
35490 On ch=4 n=71 v=60
35518 On ch=4 n=71 v=0
35520 On ch=4 n=69 v=60
35620 On ch=4 n=69 v=0
36960 On ch=4 n=69 v=45
37320 On ch=4 n=69 v=0
37320 On ch=4 n=71 v=45
37380 On ch=4 n=71 v=0
37380 On ch=4 n=72 v=45
37438 On ch=4 n=72 v=0
37440 On ch=4 n=71 v=45
37500 On ch=4 n=71 v=0
37500 On ch=4 n=74 v=45
37560 On ch=4 n=74 v=0
37560 On ch=4 n=77 v=45
37800 On ch=4 n=77 v=0
37800 On ch=4 n=76 v=45
37860 On ch=4 n=76 v=0
37860 On ch=4 n=74 v=45
37918 On ch=4 n=74 v=0
37920 On ch=4 n=74 v=45
37950 On ch=4 n=74 v=0
37950 On ch=4 n=72 v=45
37980 On ch=4 n=72 v=0
37980 On ch=4 n=71 v=45
38010 On ch=4 n=71 v=0
38010 On ch=4 n=69 v=45
38038 On ch=4 n=69 v=0
38040 On ch=4 n=69 v=45
38140 On ch=4 n=69 v=0
38220 On ch=4 n=72 v=45
38280 On ch=4 n=72 v=0
38280 On ch=4 n=74 v=50
38340 On ch=4 n=74 v=0
38340 On ch=4 n=76 v=55
38398 On ch=4 n=76 v=0
38400 On ch=4 n=77 v=60
38918 On ch=4 n=77 v=0
38920 On ch=4 n=74 v=60
38958 On ch=4 n=74 v=0
38960 On ch=4 n=71 v=60
38998 On ch=4 n=71 v=0
39000 On ch=4 n=67 v=60
39038 On ch=4 n=67 v=0
39040 On ch=4 n=71 v=60
39078 On ch=4 n=71 v=0
39080 On ch=4 n=74 v=60
39118 On ch=4 n=74 v=0
39120 On ch=4 n=77 v=60
39158 On ch=4 n=77 v=0
39160 On ch=4 n=74 v=60
39198 On ch=4 n=74 v=0
39200 On ch=4 n=71 v=60
39238 On ch=4 n=71 v=0
39240 On ch=4 n=67 v=60
39278 On ch=4 n=67 v=0
39280 On ch=4 n=71 v=60
39318 On ch=4 n=71 v=0
39320 On ch=4 n=74 v=60
39358 On ch=4 n=74 v=0
39360 On ch=4 n=77 v=60
39388 On ch=4 n=77 v=0
39390 On ch=4 n=74 v=60
39418 On ch=4 n=74 v=0
39420 On ch=4 n=71 v=60
39448 On ch=4 n=71 v=0
39450 On ch=4 n=67 v=60
39478 On ch=4 n=67 v=0
39480 On ch=4 n=65 v=60
39508 On ch=4 n=65 v=0
39510 On ch=4 n=62 v=60
39538 On ch=4 n=62 v=0
39540 On ch=4 n=59 v=60
39568 On ch=4 n=59 v=0
39570 On ch=4 n=55 v=60
39598 On ch=4 n=55 v=0
39600 On ch=4 n=53 v=60
39628 On ch=4 n=53 v=0
39630 On ch=4 n=55 v=60
39658 On ch=4 n=55 v=0
39660 On ch=4 n=59 v=60
39688 On ch=4 n=59 v=0
39690 On ch=4 n=62 v=60
39718 On ch=4 n=62 v=0
39720 On ch=4 n=65 v=60
39748 On ch=4 n=65 v=0
39750 On ch=4 n=67 v=60
39778 On ch=4 n=67 v=0
39780 On ch=4 n=71 v=60
39808 On ch=4 n=71 v=0
39810 On ch=4 n=74 v=60
39838 On ch=4 n=74 v=0
39840 On ch=4 n=77 v=60
39900 On ch=4 n=77 v=0
39900 On ch=4 n=76 v=60
39960 On ch=4 n=76 v=0
39960 On ch=4 n=74 v=60
40020 On ch=4 n=74 v=0
40020 On ch=4 n=72 v=60
40080 On ch=4 n=72 v=0
40080 On ch=4 n=71 v=60
40122 On ch=4 n=71 v=0
40140 On ch=4 n=81 v=45
40200 On ch=4 n=81 v=0
40200 On ch=4 n=79 v=45
40260 On ch=4 n=79 v=0
40260 On ch=4 n=77 v=45
40318 On ch=4 n=77 v=0
40320 On ch=4 n=75 v=45
40440 On ch=4 n=75 v=0
40440 On ch=4 n=76 v=45
40540 On ch=4 n=76 v=0
40620 On ch=4 n=67 v=45
40680 On ch=4 n=67 v=0
40680 On ch=4 n=72 v=50
40740 On ch=4 n=72 v=0
40740 On ch=4 n=76 v=55
40798 On ch=4 n=76 v=0
40800 On ch=4 n=74 v=60
40980 On ch=4 n=74 v=0
40980 On ch=4 n=76 v=71
41040 On ch=4 n=76 v=0
41040 On ch=4 n=77 v=75
41100 On ch=4 n=77 v=0
41100 On ch=4 n=74 v=72
41160 On ch=4 n=74 v=0
41160 On ch=4 n=69 v=68
41220 On ch=4 n=69 v=0
41220 On ch=4 n=71 v=64
41278 On ch=4 n=71 v=0
41280 On ch=4 n=72 v=60
41300 On ch=4 n=72 v=0
41340 On ch=4 n=76 v=67
41360 On ch=4 n=76 v=0
41400 On ch=4 n=79 v=75
41580 On ch=4 n=79 v=0
41580 On ch=4 n=78 v=75
41640 On ch=4 n=78 v=0
41640 On ch=4 n=77 v=70
41700 On ch=4 n=77 v=0
41700 On ch=4 n=76 v=65
41758 On ch=4 n=76 v=0
41760 On ch=4 n=74 v=60
41940 On ch=4 n=74 v=0
41940 On ch=4 n=76 v=71
42000 On ch=4 n=76 v=0
42000 On ch=4 n=77 v=75
42060 On ch=4 n=77 v=0
42060 On ch=4 n=74 v=72
42120 On ch=4 n=74 v=0
42120 On ch=4 n=69 v=68
42180 On ch=4 n=69 v=0
42180 On ch=4 n=71 v=64
42238 On ch=4 n=71 v=0
42240 On ch=4 n=72 v=60
42260 On ch=4 n=72 v=0
42300 On ch=4 n=76 v=67
42320 On ch=4 n=76 v=0
42360 On ch=4 n=79 v=75
42540 On ch=4 n=79 v=0
42540 On ch=4 n=78 v=75
42600 On ch=4 n=78 v=0
42600 On ch=4 n=76 v=70
42660 On ch=4 n=76 v=0
42660 On ch=4 n=74 v=65
42718 On ch=4 n=74 v=0
42720 On ch=4 n=71 v=60
42740 On ch=4 n=71 v=0
42780 On ch=4 n=74 v=67
42800 On ch=4 n=74 v=0
42840 On ch=4 n=79 v=75
43020 On ch=4 n=79 v=0
43020 On ch=4 n=74 v=75
43080 On ch=4 n=74 v=0
43080 On ch=4 n=72 v=70
43140 On ch=4 n=72 v=0
43140 On ch=4 n=71 v=65
43198 On ch=4 n=71 v=0
43200 On ch=4 n=70 v=60
43300 On ch=4 n=70 v=0
43320 On ch=4 n=61 v=60
43560 On ch=4 n=61 v=0
43560 On ch=4 n=58 v=60
43660 On ch=4 n=58 v=0
43680 On ch=4 n=58 v=60
43780 On ch=4 n=58 v=0
43800 On ch=4 n=79 v=60
44040 On ch=4 n=79 v=0
44040 On ch=4 n=78 v=56
44100 On ch=4 n=78 v=0
44100 On ch=4 n=76 v=55
44158 On ch=4 n=76 v=0
44160 On ch=4 n=76 v=54
44340 On ch=4 n=76 v=0
44340 On ch=4 n=74 v=51
44360 On ch=4 n=74 v=0
44360 On ch=4 n=72 v=51
44380 On ch=4 n=72 v=0
44380 On ch=4 n=71 v=51
44400 On ch=4 n=71 v=0
44400 On ch=4 n=70 v=51
44500 On ch=4 n=70 v=0
44520 On ch=4 n=70 v=48
44595 On ch=4 n=70 v=0
44640 On ch=4 n=71 v=45
44740 On ch=4 n=71 v=0
44940 On ch=4 n=59 v=45
44982 On ch=4 n=59 v=0
45000 On ch=4 n=63 v=45
45042 On ch=4 n=63 v=0
45060 On ch=4 n=59 v=45
45102 On ch=4 n=59 v=0
45120 On ch=4 n=52 v=45
45148 On ch=4 n=52 v=0
45150 On ch=4 n=51 v=45
45178 On ch=4 n=51 v=0
45180 On ch=4 n=52 v=45
45208 On ch=4 n=52 v=0
45210 On ch=4 n=51 v=45
45238 On ch=4 n=51 v=0
45240 On ch=4 n=52 v=45
45268 On ch=4 n=52 v=0
45270 On ch=4 n=51 v=45
45298 On ch=4 n=51 v=0
45300 On ch=4 n=52 v=45
45328 On ch=4 n=52 v=0
45330 On ch=4 n=54 v=45
45358 On ch=4 n=54 v=0
45360 On ch=4 n=55 v=45
45388 On ch=4 n=55 v=0
45390 On ch=4 n=54 v=45
45418 On ch=4 n=54 v=0
45420 On ch=4 n=52 v=45
45448 On ch=4 n=52 v=0
45450 On ch=4 n=54 v=45
45478 On ch=4 n=54 v=0
45480 On ch=4 n=55 v=45
45508 On ch=4 n=55 v=0
45510 On ch=4 n=54 v=45
45538 On ch=4 n=54 v=0
45540 On ch=4 n=55 v=45
45568 On ch=4 n=55 v=0
45570 On ch=4 n=57 v=45
45598 On ch=4 n=57 v=0
45600 On ch=4 n=59 v=45
45700 On ch=4 n=59 v=0
45720 On ch=4 n=71 v=45
45820 On ch=4 n=71 v=0
45900 On ch=4 n=59 v=45
45942 On ch=4 n=59 v=0
45960 On ch=4 n=61 v=45
46002 On ch=4 n=61 v=0
46020 On ch=4 n=63 v=45
46062 On ch=4 n=63 v=0
46080 On ch=4 n=64 v=45
46108 On ch=4 n=64 v=0
46110 On ch=4 n=63 v=45
46138 On ch=4 n=63 v=0
46140 On ch=4 n=64 v=45
46168 On ch=4 n=64 v=0
46170 On ch=4 n=63 v=45
46198 On ch=4 n=63 v=0
46200 On ch=4 n=64 v=45
46228 On ch=4 n=64 v=0
46230 On ch=4 n=63 v=45
46258 On ch=4 n=63 v=0
46260 On ch=4 n=64 v=45
46288 On ch=4 n=64 v=0
46290 On ch=4 n=66 v=45
46318 On ch=4 n=66 v=0
46320 On ch=4 n=67 v=45
46348 On ch=4 n=67 v=0
46350 On ch=4 n=66 v=45
46378 On ch=4 n=66 v=0
46380 On ch=4 n=64 v=45
46408 On ch=4 n=64 v=0
46410 On ch=4 n=66 v=45
46438 On ch=4 n=66 v=0
46440 On ch=4 n=67 v=45
46468 On ch=4 n=67 v=0
46470 On ch=4 n=66 v=45
46498 On ch=4 n=66 v=0
46500 On ch=4 n=67 v=45
46528 On ch=4 n=67 v=0
46530 On ch=4 n=69 v=45
46558 On ch=4 n=69 v=0
46560 On ch=4 n=71 v=45
46660 On ch=4 n=71 v=0
47520 On ch=4 n=71 v=60
47820 On ch=4 n=71 v=0
47820 On ch=4 n=73 v=60
47880 On ch=4 n=73 v=0
47880 On ch=4 n=75 v=60
47940 On ch=4 n=75 v=0
47940 On ch=4 n=76 v=60
47998 On ch=4 n=76 v=0
48000 On ch=4 n=76 v=60
48060 On ch=4 n=76 v=0
48060 On ch=4 n=75 v=60
48120 On ch=4 n=75 v=0
48120 On ch=4 n=71 v=60
48180 On ch=4 n=71 v=0
48180 On ch=4 n=68 v=60
48240 On ch=4 n=68 v=0
48240 On ch=4 n=65 v=60
48300 On ch=4 n=65 v=0
48300 On ch=4 n=66 v=60
48360 On ch=4 n=66 v=0
48360 On ch=4 n=69 v=60
48420 On ch=4 n=69 v=0
48420 On ch=4 n=73 v=60
48478 On ch=4 n=73 v=0
48480 On ch=4 n=73 v=60
48540 On ch=4 n=73 v=0
48540 On ch=4 n=71 v=60
48600 On ch=4 n=71 v=0
48600 On ch=4 n=68 v=60
48660 On ch=4 n=68 v=0
48660 On ch=4 n=64 v=60
48718 On ch=4 n=64 v=0
48720 On ch=4 n=64 v=60
48780 On ch=4 n=64 v=0
48780 On ch=4 n=63 v=60
48840 On ch=4 n=63 v=0
48840 On ch=4 n=66 v=60
48900 On ch=4 n=66 v=0
48900 On ch=4 n=69 v=60
48958 On ch=4 n=69 v=0
48960 On ch=4 n=68 v=60
48988 On ch=4 n=68 v=0
48990 On ch=4 n=69 v=60
49018 On ch=4 n=69 v=0
49020 On ch=4 n=71 v=60
49048 On ch=4 n=71 v=0
49050 On ch=4 n=73 v=60
49078 On ch=4 n=73 v=0
49080 On ch=4 n=75 v=60
49108 On ch=4 n=75 v=0
49110 On ch=4 n=76 v=60
49138 On ch=4 n=76 v=0
49140 On ch=4 n=78 v=60
49168 On ch=4 n=78 v=0
49170 On ch=4 n=80 v=60
49198 On ch=4 n=80 v=0
49200 On ch=4 n=81 v=60
49380 On ch=4 n=81 v=0
49380 On ch=4 n=75 v=60
49438 On ch=4 n=75 v=0
49440 On ch=4 n=78 v=60
49500 On ch=4 n=78 v=0
49500 On ch=4 n=76 v=60
49558 On ch=4 n=76 v=0
49560 On ch=4 n=76 v=60
49740 On ch=4 n=76 v=0
49740 On ch=4 n=78 v=60
49770 On ch=4 n=78 v=0
49770 On ch=4 n=80 v=60
49800 On ch=4 n=80 v=0
49800 On ch=4 n=78 v=60
49858 On ch=4 n=78 v=0
49860 On ch=4 n=76 v=60
49880 On ch=4 n=76 v=0
49920 On ch=4 n=75 v=60
49958 On ch=4 n=75 v=0
49960 On ch=4 n=78 v=60
49998 On ch=4 n=78 v=0
50000 On ch=4 n=81 v=60
50038 On ch=4 n=81 v=0
50040 On ch=4 n=78 v=60
50078 On ch=4 n=78 v=0
50080 On ch=4 n=75 v=60
50118 On ch=4 n=75 v=0
50120 On ch=4 n=71 v=60
50158 On ch=4 n=71 v=0
50160 On ch=4 n=69 v=60
50260 On ch=4 n=69 v=0
50400 On ch=4 n=68 v=60
50460 On ch=4 n=68 v=0
50460 On ch=4 n=71 v=60
50518 On ch=4 n=71 v=0
50520 On ch=4 n=76 v=60
50700 On ch=4 n=76 v=0
50700 On ch=4 n=78 v=60
50730 On ch=4 n=78 v=0
50730 On ch=4 n=80 v=60
50760 On ch=4 n=80 v=0
50760 On ch=4 n=78 v=60
50802 On ch=4 n=78 v=0
50820 On ch=4 n=76 v=60
50840 On ch=4 n=76 v=0
50880 On ch=4 n=75 v=60
50908 On ch=4 n=75 v=0
50910 On ch=4 n=78 v=60
50938 On ch=4 n=78 v=0
50940 On ch=4 n=81 v=60
50968 On ch=4 n=81 v=0
50970 On ch=4 n=78 v=60
50998 On ch=4 n=78 v=0
51000 On ch=4 n=75 v=60
51028 On ch=4 n=75 v=0
51030 On ch=4 n=71 v=60
51058 On ch=4 n=71 v=0
51060 On ch=4 n=69 v=60
51088 On ch=4 n=69 v=0
51090 On ch=4 n=66 v=60
51118 On ch=4 n=66 v=0
51120 On ch=4 n=63 v=60
51220 On ch=4 n=63 v=0
51360 On ch=4 n=76 v=60
51388 On ch=4 n=76 v=0
51390 On ch=4 n=75 v=60
51418 On ch=4 n=75 v=0
51420 On ch=4 n=78 v=60
51448 On ch=4 n=78 v=0
51450 On ch=4 n=76 v=60
51478 On ch=4 n=76 v=0
51480 On ch=4 n=80 v=60
51508 On ch=4 n=80 v=0
51510 On ch=4 n=78 v=60
51538 On ch=4 n=78 v=0
51540 On ch=4 n=76 v=60
51568 On ch=4 n=76 v=0
51570 On ch=4 n=75 v=60
51598 On ch=4 n=75 v=0
51600 On ch=4 n=73 v=60
51630 On ch=4 n=73 v=0
51630 On ch=4 n=72 v=60
51660 On ch=4 n=72 v=0
51660 On ch=4 n=75 v=60
51690 On ch=4 n=75 v=0
51690 On ch=4 n=73 v=60
51718 On ch=4 n=73 v=0
51720 On ch=4 n=76 v=60
51778 On ch=4 n=76 v=0
51840 On ch=4 n=73 v=60
51868 On ch=4 n=73 v=0
51870 On ch=4 n=72 v=60
51898 On ch=4 n=72 v=0
51900 On ch=4 n=75 v=60
51928 On ch=4 n=75 v=0
51930 On ch=4 n=73 v=60
51958 On ch=4 n=73 v=0
51960 On ch=4 n=76 v=60
51988 On ch=4 n=76 v=0
51990 On ch=4 n=75 v=60
52018 On ch=4 n=75 v=0
52020 On ch=4 n=73 v=60
52048 On ch=4 n=73 v=0
52050 On ch=4 n=71 v=60
52078 On ch=4 n=71 v=0
52080 On ch=4 n=69 v=60
52110 On ch=4 n=69 v=0
52110 On ch=4 n=68 v=60
52140 On ch=4 n=68 v=0
52140 On ch=4 n=71 v=60
52170 On ch=4 n=71 v=0
52170 On ch=4 n=69 v=60
52198 On ch=4 n=69 v=0
52200 On ch=4 n=73 v=60
52288 On ch=4 n=73 v=0
52320 On ch=4 n=69 v=60
52348 On ch=4 n=69 v=0
52350 On ch=4 n=68 v=60
52378 On ch=4 n=68 v=0
52380 On ch=4 n=71 v=60
52408 On ch=4 n=71 v=0
52410 On ch=4 n=69 v=60
52438 On ch=4 n=69 v=0
52440 On ch=4 n=73 v=60
52468 On ch=4 n=73 v=0
52470 On ch=4 n=71 v=60
52498 On ch=4 n=71 v=0
52500 On ch=4 n=69 v=60
52528 On ch=4 n=69 v=0
52530 On ch=4 n=68 v=60
52558 On ch=4 n=68 v=0
52560 On ch=4 n=66 v=60
52588 On ch=4 n=66 v=0
52590 On ch=4 n=65 v=60
52618 On ch=4 n=65 v=0
52620 On ch=4 n=68 v=60
52648 On ch=4 n=68 v=0
52650 On ch=4 n=66 v=60
52678 On ch=4 n=66 v=0
52680 On ch=4 n=69 v=60
52708 On ch=4 n=69 v=0
52710 On ch=4 n=68 v=60
52738 On ch=4 n=68 v=0
52740 On ch=4 n=66 v=60
52768 On ch=4 n=66 v=0
52770 On ch=4 n=64 v=60
52798 On ch=4 n=64 v=0
52800 On ch=4 n=63 v=60
52828 On ch=4 n=63 v=0
52830 On ch=4 n=59 v=60
52858 On ch=4 n=59 v=0
52860 On ch=4 n=57 v=60
52888 On ch=4 n=57 v=0
52890 On ch=4 n=54 v=60
52918 On ch=4 n=54 v=0
52920 On ch=4 n=57 v=60
52948 On ch=4 n=57 v=0
52950 On ch=4 n=59 v=60
52978 On ch=4 n=59 v=0
52980 On ch=4 n=63 v=60
53008 On ch=4 n=63 v=0
53010 On ch=4 n=66 v=60
53038 On ch=4 n=66 v=0
53040 On ch=4 n=69 v=60
53068 On ch=4 n=69 v=0
53070 On ch=4 n=71 v=60
53098 On ch=4 n=71 v=0
53100 On ch=4 n=75 v=60
53128 On ch=4 n=75 v=0
53130 On ch=4 n=78 v=60
53158 On ch=4 n=78 v=0
53160 On ch=4 n=81 v=60
53188 On ch=4 n=81 v=0
53190 On ch=4 n=78 v=60
53218 On ch=4 n=78 v=0
53220 On ch=4 n=75 v=60
53248 On ch=4 n=75 v=0
53250 On ch=4 n=78 v=60
53278 On ch=4 n=78 v=0
53280 On ch=4 n=76 v=60
53340 On ch=4 n=76 v=0
53340 On ch=4 n=83 v=60
53400 On ch=4 n=83 v=0
53400 On ch=4 n=81 v=60
53460 On ch=4 n=81 v=0
53460 On ch=4 n=80 v=60
53520 On ch=4 n=80 v=0
53520 On ch=4 n=78 v=60
53580 On ch=4 n=78 v=0
53580 On ch=4 n=76 v=60
53640 On ch=4 n=76 v=0
53640 On ch=4 n=74 v=60
53700 On ch=4 n=74 v=0
53700 On ch=4 n=74 v=60
53742 On ch=4 n=74 v=0
53760 On ch=4 n=73 v=60
53802 On ch=4 n=73 v=0
53820 On ch=4 n=74 v=60
53862 On ch=4 n=74 v=0
53880 On ch=4 n=75 v=60
53922 On ch=4 n=75 v=0
53940 On ch=4 n=76 v=60
53982 On ch=4 n=76 v=0
54000 On ch=4 n=77 v=60
54042 On ch=4 n=77 v=0
54060 On ch=4 n=78 v=60
54102 On ch=4 n=78 v=0
54120 On ch=4 n=80 v=60
54162 On ch=4 n=80 v=0
54180 On ch=4 n=81 v=60
54222 On ch=4 n=81 v=0
54240 On ch=4 n=76 v=60
54600 On ch=4 n=76 v=0
54600 On ch=4 n=80 v=49
54660 On ch=4 n=80 v=0
54660 On ch=4 n=76 v=47
54718 On ch=4 n=76 v=0
54720 On ch=4 n=76 v=45
54820 On ch=4 n=76 v=0
55020 On ch=4 n=76 v=60
55080 On ch=4 n=76 v=0
55080 On ch=4 n=75 v=60
55140 On ch=4 n=75 v=0
55140 On ch=4 n=73 v=60
55198 On ch=4 n=73 v=0
55200 On ch=4 n=72 v=60
55260 On ch=4 n=72 v=0
55260 On ch=4 n=75 v=60
55320 On ch=4 n=75 v=0
55320 On ch=4 n=78 v=60
55560 On ch=4 n=78 v=0
55560 On ch=4 n=72 v=60
55680 On ch=4 n=72 v=0
55680 On ch=4 n=75 v=60
55800 On ch=4 n=75 v=0
55800 On ch=4 n=73 v=45
55900 On ch=4 n=73 v=0
55980 On ch=4 n=49 v=45
56040 On ch=4 n=49 v=0
56040 On ch=4 n=52 v=45
56100 On ch=4 n=52 v=0
56100 On ch=4 n=49 v=45
56160 On ch=4 n=49 v=0
56160 On ch=4 n=56 v=45
56220 On ch=4 n=56 v=0
56220 On ch=4 n=55 v=45
56280 On ch=4 n=55 v=0
56280 On ch=4 n=56 v=45
56340 On ch=4 n=56 v=0
56340 On ch=4 n=55 v=45
56400 On ch=4 n=55 v=0
56400 On ch=4 n=56 v=45
56460 On ch=4 n=56 v=0
56460 On ch=4 n=55 v=45
56520 On ch=4 n=55 v=0
56520 On ch=4 n=56 v=45
56580 On ch=4 n=56 v=0
56580 On ch=4 n=54 v=45
56640 On ch=4 n=54 v=0
56640 On ch=4 n=52 v=45
56760 On ch=4 n=52 v=0
56760 On ch=4 n=49 v=45
56860 On ch=4 n=49 v=0
56940 On ch=4 n=76 v=60
57000 On ch=4 n=76 v=0
57000 On ch=4 n=75 v=60
57060 On ch=4 n=75 v=0
57060 On ch=4 n=73 v=60
57118 On ch=4 n=73 v=0
57120 On ch=4 n=72 v=60
57180 On ch=4 n=72 v=0
57180 On ch=4 n=75 v=60
57240 On ch=4 n=75 v=0
57240 On ch=4 n=78 v=60
57480 On ch=4 n=78 v=0
57480 On ch=4 n=72 v=60
57600 On ch=4 n=72 v=0
57600 On ch=4 n=75 v=60
57720 On ch=4 n=75 v=0
57720 On ch=4 n=73 v=45
57820 On ch=4 n=73 v=0
57900 On ch=4 n=49 v=45
57960 On ch=4 n=49 v=0
57960 On ch=4 n=52 v=45
58020 On ch=4 n=52 v=0
58020 On ch=4 n=49 v=45
58080 On ch=4 n=49 v=0
58080 On ch=4 n=56 v=45
58140 On ch=4 n=56 v=0
58140 On ch=4 n=55 v=45
58200 On ch=4 n=55 v=0
58200 On ch=4 n=56 v=45
58260 On ch=4 n=56 v=0
58260 On ch=4 n=55 v=45
58320 On ch=4 n=55 v=0
58320 On ch=4 n=56 v=45
58380 On ch=4 n=56 v=0
58380 On ch=4 n=55 v=45
58440 On ch=4 n=55 v=0
58440 On ch=4 n=56 v=45
58500 On ch=4 n=56 v=0
58500 On ch=4 n=54 v=45
58560 On ch=4 n=54 v=0
58560 On ch=4 n=52 v=45
58680 On ch=4 n=52 v=0
58680 On ch=4 n=49 v=45
58780 On ch=4 n=49 v=0
58840 On ch=4 n=73 v=47
58878 On ch=4 n=73 v=0
58880 On ch=4 n=75 v=49
58918 On ch=4 n=75 v=0
58920 On ch=4 n=76 v=51
58958 On ch=4 n=76 v=0
58960 On ch=4 n=78 v=54
58998 On ch=4 n=78 v=0
59000 On ch=4 n=80 v=57
59038 On ch=4 n=80 v=0
59040 On ch=4 n=81 v=60
59220 On ch=4 n=81 v=0
59220 On ch=4 n=78 v=60
59278 On ch=4 n=78 v=0
59280 On ch=4 n=75 v=60
59318 On ch=4 n=75 v=0
59320 On ch=4 n=76 v=60
59358 On ch=4 n=76 v=0
59360 On ch=4 n=77 v=60
59398 On ch=4 n=77 v=0
59400 On ch=4 n=78 v=60
59438 On ch=4 n=78 v=0
59440 On ch=4 n=79 v=60
59478 On ch=4 n=79 v=0
59480 On ch=4 n=80 v=60
59518 On ch=4 n=80 v=0
59520 On ch=4 n=81 v=60
59700 On ch=4 n=81 v=0
59700 On ch=4 n=78 v=60
59758 On ch=4 n=78 v=0
59760 On ch=4 n=75 v=60
59788 On ch=4 n=75 v=0
59790 On ch=4 n=73 v=60
59818 On ch=4 n=73 v=0
59820 On ch=4 n=71 v=60
59848 On ch=4 n=71 v=0
59850 On ch=4 n=73 v=60
59878 On ch=4 n=73 v=0
59880 On ch=4 n=75 v=60
59908 On ch=4 n=75 v=0
59910 On ch=4 n=76 v=60
59938 On ch=4 n=76 v=0
59940 On ch=4 n=78 v=60
59968 On ch=4 n=78 v=0
59970 On ch=4 n=80 v=60
59998 On ch=4 n=80 v=0
60000 On ch=4 n=81 v=60
60028 On ch=4 n=81 v=0
60030 On ch=4 n=78 v=60
60058 On ch=4 n=78 v=0
60060 On ch=4 n=75 v=60
60088 On ch=4 n=75 v=0
60090 On ch=4 n=71 v=60
60118 On ch=4 n=71 v=0
60120 On ch=4 n=69 v=60
60148 On ch=4 n=69 v=0
60150 On ch=4 n=66 v=60
60178 On ch=4 n=66 v=0
60180 On ch=4 n=63 v=60
60208 On ch=4 n=63 v=0
60210 On ch=4 n=59 v=60
60238 On ch=4 n=59 v=0
60240 On ch=4 n=57 v=60
60268 On ch=4 n=57 v=0
60270 On ch=4 n=59 v=60
60298 On ch=4 n=59 v=0
60300 On ch=4 n=63 v=60
60328 On ch=4 n=63 v=0
60330 On ch=4 n=66 v=60
60358 On ch=4 n=66 v=0
60360 On ch=4 n=69 v=60
60388 On ch=4 n=69 v=0
60390 On ch=4 n=71 v=60
60418 On ch=4 n=71 v=0
60420 On ch=4 n=75 v=60
60448 On ch=4 n=75 v=0
60450 On ch=4 n=78 v=60
60478 On ch=4 n=78 v=0
60480 On ch=4 n=81 v=60
60660 On ch=4 n=81 v=0
60660 On ch=4 n=80 v=54
60718 On ch=4 n=80 v=0
60720 On ch=4 n=83 v=52
60735 On ch=4 n=83 v=0
60735 On ch=4 n=81 v=52
60750 On ch=4 n=81 v=0
60750 On ch=4 n=80 v=52
60765 On ch=4 n=80 v=0
60765 On ch=4 n=81 v=52
60780 On ch=4 n=81 v=0
60780 On ch=4 n=78 v=52
60795 On ch=4 n=78 v=0
60795 On ch=4 n=80 v=52
60810 On ch=4 n=80 v=0
60810 On ch=4 n=76 v=51
60825 On ch=4 n=76 v=0
60825 On ch=4 n=78 v=50
60840 On ch=4 n=78 v=0
60840 On ch=4 n=75 v=49
60898 On ch=4 n=75 v=0
61440 On ch=4 n=76 v=45
61680 On ch=4 n=76 v=0
61680 On ch=4 n=75 v=45
61860 On ch=4 n=75 v=0
61860 On ch=4 n=76 v=45
61918 On ch=4 n=76 v=0
61920 On ch=4 n=80 v=45
61980 On ch=4 n=80 v=0
61980 On ch=4 n=78 v=45
62038 On ch=4 n=78 v=0
62040 On ch=4 n=76 v=45
62059 On ch=4 n=76 v=0
62100 On ch=4 n=75 v=45
62119 On ch=4 n=75 v=0
62160 On ch=4 n=73 v=45
62340 On ch=4 n=73 v=0
62340 On ch=4 n=75 v=45
62398 On ch=4 n=75 v=0
62400 On ch=4 n=76 v=45
62460 On ch=4 n=76 v=0
62460 On ch=4 n=78 v=45
62490 On ch=4 n=78 v=0
62490 On ch=4 n=80 v=45
62520 On ch=4 n=80 v=0
62520 On ch=4 n=78 v=45
62550 On ch=4 n=78 v=0
62550 On ch=4 n=76 v=45
62580 On ch=4 n=76 v=0
62580 On ch=4 n=75 v=45
62610 On ch=4 n=75 v=0
62610 On ch=4 n=73 v=45
62638 On ch=4 n=73 v=0
62640 On ch=4 n=73 v=45
62700 On ch=4 n=73 v=0
62700 On ch=4 n=71 v=45
62758 On ch=4 n=71 v=0
62760 On ch=4 n=71 v=45
62820 On ch=4 n=71 v=0
62820 On ch=4 n=70 v=45
62878 On ch=4 n=70 v=0
62880 On ch=4 n=71 v=45
62938 On ch=4 n=71 v=0
62940 On ch=4 n=73 v=45
62998 On ch=4 n=73 v=0
63000 On ch=4 n=69 v=45
63100 On ch=4 n=69 v=0
63840 On ch=4 n=52 v=45
63868 On ch=4 n=52 v=0
63870 On ch=4 n=59 v=45
63898 On ch=4 n=59 v=0
63900 On ch=4 n=52 v=45
63928 On ch=4 n=52 v=0
63930 On ch=4 n=59 v=45
63958 On ch=4 n=59 v=0
63960 On ch=4 n=54 v=45
63988 On ch=4 n=54 v=0
63990 On ch=4 n=59 v=45
64018 On ch=4 n=59 v=0
64020 On ch=4 n=57 v=45
64048 On ch=4 n=57 v=0
64050 On ch=4 n=59 v=45
64078 On ch=4 n=59 v=0
64080 On ch=4 n=52 v=45
64108 On ch=4 n=52 v=0
64110 On ch=4 n=59 v=45
64138 On ch=4 n=59 v=0
64140 On ch=4 n=56 v=45
64168 On ch=4 n=56 v=0
64170 On ch=4 n=59 v=45
64198 On ch=4 n=59 v=0
64200 On ch=4 n=51 v=45
64228 On ch=4 n=51 v=0
64230 On ch=4 n=59 v=45
64258 On ch=4 n=59 v=0
64260 On ch=4 n=54 v=45
64288 On ch=4 n=54 v=0
64290 On ch=4 n=59 v=45
64318 On ch=4 n=59 v=0
64320 On ch=4 n=52 v=45
64348 On ch=4 n=52 v=0
64350 On ch=4 n=59 v=45
64378 On ch=4 n=59 v=0
64380 On ch=4 n=56 v=45
64408 On ch=4 n=56 v=0
64410 On ch=4 n=59 v=45
64438 On ch=4 n=59 v=0
64440 On ch=4 n=54 v=45
64468 On ch=4 n=54 v=0
64470 On ch=4 n=59 v=45
64498 On ch=4 n=59 v=0
64500 On ch=4 n=57 v=45
64528 On ch=4 n=57 v=0
64530 On ch=4 n=59 v=45
64558 On ch=4 n=59 v=0
64560 On ch=4 n=52 v=45
64588 On ch=4 n=52 v=0
64590 On ch=4 n=59 v=45
64618 On ch=4 n=59 v=0
64620 On ch=4 n=56 v=45
64648 On ch=4 n=56 v=0
64650 On ch=4 n=59 v=45
64678 On ch=4 n=59 v=0
64680 On ch=4 n=51 v=45
64708 On ch=4 n=51 v=0
64710 On ch=4 n=59 v=45
64738 On ch=4 n=59 v=0
64740 On ch=4 n=54 v=45
64768 On ch=4 n=54 v=0
64770 On ch=4 n=59 v=45
64798 On ch=4 n=59 v=0
64800 On ch=4 n=52 v=45
64828 On ch=4 n=52 v=0
64830 On ch=4 n=59 v=45
64858 On ch=4 n=59 v=0
64860 On ch=4 n=56 v=45
64888 On ch=4 n=56 v=0
64890 On ch=4 n=59 v=45
64918 On ch=4 n=59 v=0
64920 On ch=4 n=54 v=45
64948 On ch=4 n=54 v=0
64950 On ch=4 n=59 v=45
64978 On ch=4 n=59 v=0
64980 On ch=4 n=57 v=45
65008 On ch=4 n=57 v=0
65010 On ch=4 n=59 v=45
65038 On ch=4 n=59 v=0
65040 On ch=4 n=52 v=45
65068 On ch=4 n=52 v=0
65070 On ch=4 n=59 v=45
65098 On ch=4 n=59 v=0
65100 On ch=4 n=56 v=45
65128 On ch=4 n=56 v=0
65130 On ch=4 n=59 v=45
65158 On ch=4 n=59 v=0
65160 On ch=4 n=51 v=45
65188 On ch=4 n=51 v=0
65190 On ch=4 n=59 v=45
65218 On ch=4 n=59 v=0
65220 On ch=4 n=54 v=45
65248 On ch=4 n=54 v=0
65250 On ch=4 n=59 v=45
65278 On ch=4 n=59 v=0
65280 On ch=4 n=52 v=45
65308 On ch=4 n=52 v=0
65310 On ch=4 n=59 v=45
65338 On ch=4 n=59 v=0
65340 On ch=4 n=56 v=45
65368 On ch=4 n=56 v=0
65370 On ch=4 n=59 v=45
65398 On ch=4 n=59 v=0
65400 On ch=4 n=51 v=45
65428 On ch=4 n=51 v=0
65430 On ch=4 n=59 v=45
65458 On ch=4 n=59 v=0
65460 On ch=4 n=54 v=45
65488 On ch=4 n=54 v=0
65490 On ch=4 n=59 v=45
65518 On ch=4 n=59 v=0
65520 On ch=4 n=52 v=45
65548 On ch=4 n=52 v=0
65550 On ch=4 n=59 v=45
65578 On ch=4 n=59 v=0
65580 On ch=4 n=56 v=45
65608 On ch=4 n=56 v=0
65610 On ch=4 n=59 v=45
65638 On ch=4 n=59 v=0
65640 On ch=4 n=51 v=45
65668 On ch=4 n=51 v=0
65670 On ch=4 n=59 v=45
65698 On ch=4 n=59 v=0
65700 On ch=4 n=54 v=45
65728 On ch=4 n=54 v=0
65730 On ch=4 n=59 v=45
65758 On ch=4 n=59 v=0
65760 On ch=4 n=52 v=45
65790 On ch=4 n=52 v=0
65790 On ch=4 n=56 v=45
65820 On ch=4 n=56 v=0
65820 On ch=4 n=59 v=45
65850 On ch=4 n=59 v=0
65850 On ch=4 n=64 v=45
65878 On ch=4 n=64 v=0
65880 On ch=4 n=68 v=45
65910 On ch=4 n=68 v=0
65910 On ch=4 n=64 v=45
65940 On ch=4 n=64 v=0
65940 On ch=4 n=59 v=45
65970 On ch=4 n=59 v=0
65970 On ch=4 n=56 v=45
65998 On ch=4 n=56 v=0
66000 On ch=4 n=52 v=45
66030 On ch=4 n=52 v=0
66030 On ch=4 n=56 v=45
66060 On ch=4 n=56 v=0
66060 On ch=4 n=59 v=45
66090 On ch=4 n=59 v=0
66090 On ch=4 n=64 v=45
66118 On ch=4 n=64 v=0
66120 On ch=4 n=68 v=45
66150 On ch=4 n=68 v=0
66150 On ch=4 n=64 v=45
66180 On ch=4 n=64 v=0
66180 On ch=4 n=59 v=45
66210 On ch=4 n=59 v=0
66210 On ch=4 n=56 v=45
66238 On ch=4 n=56 v=0
66240 On ch=4 n=57 v=45
66270 On ch=4 n=57 v=0
66270 On ch=4 n=61 v=45
66300 On ch=4 n=61 v=0
66300 On ch=4 n=64 v=45
66330 On ch=4 n=64 v=0
66330 On ch=4 n=69 v=45
66358 On ch=4 n=69 v=0
66360 On ch=4 n=73 v=45
66390 On ch=4 n=73 v=0
66390 On ch=4 n=69 v=45
66420 On ch=4 n=69 v=0
66420 On ch=4 n=66 v=45
66450 On ch=4 n=66 v=0
66450 On ch=4 n=61 v=45
66478 On ch=4 n=61 v=0
66480 On ch=4 n=57 v=45
66510 On ch=4 n=57 v=0
66510 On ch=4 n=61 v=45
66540 On ch=4 n=61 v=0
66540 On ch=4 n=64 v=45
66570 On ch=4 n=64 v=0
66570 On ch=4 n=69 v=45
66598 On ch=4 n=69 v=0
66600 On ch=4 n=73 v=45
66630 On ch=4 n=73 v=0
66630 On ch=4 n=69 v=45
66660 On ch=4 n=69 v=0
66660 On ch=4 n=64 v=45
66690 On ch=4 n=64 v=0
66690 On ch=4 n=61 v=45
66718 On ch=4 n=61 v=0
66720 On ch=4 n=59 v=45
66748 On ch=4 n=59 v=0
66750 On ch=4 n=64 v=45
66778 On ch=4 n=64 v=0
66780 On ch=4 n=68 v=45
66808 On ch=4 n=68 v=0
66810 On ch=4 n=71 v=45
66838 On ch=4 n=71 v=0
66840 On ch=4 n=76 v=45
66868 On ch=4 n=76 v=0
66870 On ch=4 n=71 v=45
66898 On ch=4 n=71 v=0
66900 On ch=4 n=68 v=45
66928 On ch=4 n=68 v=0
66930 On ch=4 n=64 v=45
66958 On ch=4 n=64 v=0
66960 On ch=4 n=59 v=45
67060 On ch=4 n=59 v=0
67200 On ch=4 n=52 v=45
67260 On ch=4 n=52 v=0
67260 On ch=4 n=54 v=46
67288 On ch=4 n=54 v=0
67290 On ch=4 n=56 v=46
67318 On ch=4 n=56 v=0
67320 On ch=4 n=57 v=46
67348 On ch=4 n=57 v=0
67350 On ch=4 n=59 v=46
67378 On ch=4 n=59 v=0
67380 On ch=4 n=61 v=46
67408 On ch=4 n=61 v=0
67410 On ch=4 n=63 v=46
67438 On ch=4 n=63 v=0
67440 On ch=4 n=64 v=46
67500 On ch=4 n=64 v=0
67500 On ch=4 n=66 v=48
67528 On ch=4 n=66 v=0
67530 On ch=4 n=68 v=49
67558 On ch=4 n=68 v=0
67560 On ch=4 n=69 v=50
67588 On ch=4 n=69 v=0
67590 On ch=4 n=71 v=51
67618 On ch=4 n=71 v=0
67620 On ch=4 n=73 v=52
67648 On ch=4 n=73 v=0
67650 On ch=4 n=75 v=53
67678 On ch=4 n=75 v=0
67680 On ch=4 n=76 v=54
67708 On ch=4 n=76 v=0
67710 On ch=4 n=78 v=55
67738 On ch=4 n=78 v=0
67740 On ch=4 n=80 v=56
67768 On ch=4 n=80 v=0
67770 On ch=4 n=81 v=57
67798 On ch=4 n=81 v=0
67800 On ch=4 n=83 v=58
67828 On ch=4 n=83 v=0
67830 On ch=4 n=85 v=59
67858 On ch=4 n=85 v=0
67860 On ch=4 n=86 v=60
67888 On ch=4 n=86 v=0
67890 On ch=4 n=85 v=59
67918 On ch=4 n=85 v=0
67918 Meta TrkEnd
TrkEnd
MTrk
25230 On ch=5 n=62 v=45
25258 On ch=5 n=62 v=0
25260 On ch=5 n=66 v=45
25288 On ch=5 n=66 v=0
25290 On ch=5 n=69 v=45
25318 On ch=5 n=69 v=0
25320 On ch=5 n=68 v=45
25348 On ch=5 n=68 v=0
25350 On ch=5 n=64 v=45
25378 On ch=5 n=64 v=0
25380 On ch=5 n=68 v=45
25408 On ch=5 n=68 v=0
25410 On ch=5 n=71 v=45
25438 On ch=5 n=71 v=0
25440 On ch=5 n=69 v=45
25468 On ch=5 n=69 v=0
25470 On ch=5 n=73 v=45
25498 On ch=5 n=73 v=0
25500 On ch=5 n=76 v=45
25528 On ch=5 n=76 v=0
25530 On ch=5 n=73 v=45
25558 On ch=5 n=73 v=0
25560 On ch=5 n=69 v=45
25588 On ch=5 n=69 v=0
25590 On ch=5 n=64 v=45
25618 On ch=5 n=64 v=0
25620 On ch=5 n=61 v=45
25648 On ch=5 n=61 v=0
25650 On ch=5 n=64 v=45
25678 On ch=5 n=64 v=0
25680 On ch=5 n=66 v=45
25708 On ch=5 n=66 v=0
25710 On ch=5 n=62 v=45
25738 On ch=5 n=62 v=0
25740 On ch=5 n=66 v=45
25768 On ch=5 n=66 v=0
25770 On ch=5 n=69 v=45
25798 On ch=5 n=69 v=0
25800 On ch=5 n=68 v=45
25828 On ch=5 n=68 v=0
25830 On ch=5 n=64 v=45
25858 On ch=5 n=64 v=0
25860 On ch=5 n=68 v=45
25888 On ch=5 n=68 v=0
25890 On ch=5 n=71 v=45
25918 On ch=5 n=71 v=0
25920 On ch=5 n=69 v=92
25948 On ch=5 n=69 v=0
25950 On ch=5 n=64 v=92
25978 On ch=5 n=64 v=0
25980 On ch=5 n=61 v=92
26008 On ch=5 n=61 v=0
26010 On ch=5 n=64 v=92
26038 On ch=5 n=64 v=0
26040 On ch=5 n=69 v=92
26068 On ch=5 n=69 v=0
26070 On ch=5 n=64 v=92
26098 On ch=5 n=64 v=0
26100 On ch=5 n=69 v=92
26128 On ch=5 n=69 v=0
26130 On ch=5 n=64 v=92
26158 On ch=5 n=64 v=0
26160 On ch=5 n=73 v=92
26188 On ch=5 n=73 v=0
26190 On ch=5 n=69 v=92
26218 On ch=5 n=69 v=0
26220 On ch=5 n=73 v=92
26248 On ch=5 n=73 v=0
26250 On ch=5 n=69 v=92
26278 On ch=5 n=69 v=0
26280 On ch=5 n=76 v=92
26308 On ch=5 n=76 v=0
26310 On ch=5 n=73 v=92
26338 On ch=5 n=73 v=0
26340 On ch=5 n=76 v=92
26368 On ch=5 n=76 v=0
26370 On ch=5 n=73 v=92
26398 On ch=5 n=73 v=0
26400 On ch=5 n=69 v=92
26475 On ch=5 n=69 v=0
26520 On ch=5 n=64 v=92
26520 On ch=5 n=73 v=92
26520 On ch=5 n=81 v=92
26595 On ch=5 n=64 v=0
26595 On ch=5 n=73 v=0
26595 On ch=5 n=81 v=0
26640 On ch=5 n=57 v=92
26715 On ch=5 n=57 v=0
26880 On ch=5 n=73 v=45
27090 On ch=5 n=73 v=0
27120 On ch=5 n=69 v=45
27300 On ch=5 n=69 v=0
27300 On ch=5 n=71 v=45
27358 On ch=5 n=71 v=0
27360 On ch=5 n=74 v=45
27420 On ch=5 n=74 v=0
27420 On ch=5 n=73 v=45
27478 On ch=5 n=73 v=0
27480 On ch=5 n=71 v=45
27500 On ch=5 n=71 v=0
27540 On ch=5 n=69 v=45
27560 On ch=5 n=69 v=0
27600 On ch=5 n=69 v=45
27700 On ch=5 n=69 v=0
27840 On ch=5 n=66 v=45
27960 On ch=5 n=66 v=0
27960 On ch=5 n=62 v=45
28018 On ch=5 n=62 v=0
28080 On ch=5 n=66 v=45
28200 On ch=5 n=66 v=0
28200 On ch=5 n=62 v=45
28258 On ch=5 n=62 v=0
28320 On ch=5 n=61 v=45
28560 On ch=5 n=61 v=0
28560 On ch=5 n=59 v=45
28660 On ch=5 n=59 v=0
28800 On ch=5 n=64 v=45
29040 On ch=5 n=64 v=0
29040 On ch=5 n=62 v=45
29160 On ch=5 n=62 v=0
29160 On ch=5 n=61 v=45
29260 On ch=5 n=61 v=0
29280 On ch=5 n=59 v=45
29380 On ch=5 n=59 v=0
29400 On ch=5 n=71 v=45
29640 On ch=5 n=71 v=0
29640 On ch=5 n=69 v=45
29740 On ch=5 n=69 v=0
29760 On ch=5 n=71 v=45
29860 On ch=5 n=71 v=0
29940 On ch=5 n=66 v=45
29970 On ch=5 n=66 v=0
29970 On ch=5 n=62 v=45
29998 On ch=5 n=62 v=0
30000 On ch=5 n=61 v=45
30060 On ch=5 n=61 v=0
30060 On ch=5 n=64 v=45
30120 On ch=5 n=64 v=0
30120 On ch=5 n=62 v=45
30180 On ch=5 n=62 v=0
30180 On ch=5 n=64 v=45
30238 On ch=5 n=64 v=0
30240 On ch=5 n=61 v=45
30260 On ch=5 n=61 v=0
30300 On ch=5 n=64 v=45
30320 On ch=5 n=64 v=0
30360 On ch=5 n=69 v=45
30380 On ch=5 n=69 v=0
30420 On ch=5 n=71 v=45
30430 On ch=5 n=71 v=0
30430 On ch=5 n=69 v=45
30440 On ch=5 n=69 v=0
30440 On ch=5 n=71 v=45
30450 On ch=5 n=71 v=0
30450 On ch=5 n=69 v=45
30465 On ch=5 n=69 v=0
30465 On ch=5 n=71 v=45
30478 On ch=5 n=71 v=0
30480 On ch=5 n=73 v=45
30500 On ch=5 n=73 v=0
30540 On ch=5 n=69 v=45
30560 On ch=5 n=69 v=0
30600 On ch=5 n=73 v=45
30620 On ch=5 n=73 v=0
30660 On ch=5 n=74 v=45
30670 On ch=5 n=74 v=0
30670 On ch=5 n=73 v=45
30680 On ch=5 n=73 v=0
30680 On ch=5 n=74 v=45
30690 On ch=5 n=74 v=0
30690 On ch=5 n=73 v=45
30705 On ch=5 n=73 v=0
30705 On ch=5 n=74 v=45
30718 On ch=5 n=74 v=0
30720 On ch=5 n=76 v=45
30930 On ch=5 n=76 v=0
30960 On ch=5 n=74 v=45
31018 On ch=5 n=74 v=0
31020 On ch=5 n=73 v=45
31078 On ch=5 n=73 v=0
31080 On ch=5 n=71 v=45
31108 On ch=5 n=71 v=0
31110 On ch=5 n=73 v=45
31138 On ch=5 n=73 v=0
31140 On ch=5 n=74 v=45
31198 On ch=5 n=74 v=0
31200 On ch=5 n=78 v=45
31260 On ch=5 n=78 v=0
31260 On ch=5 n=76 v=45
31318 On ch=5 n=76 v=0
31320 On ch=5 n=74 v=45
31340 On ch=5 n=74 v=0
31380 On ch=5 n=73 v=45
31400 On ch=5 n=73 v=0
31440 On ch=5 n=73 v=45
31539 On ch=5 n=73 v=0
31680 On ch=5 n=74 v=45
31800 On ch=5 n=74 v=0
31800 On ch=5 n=71 v=45
31858 On ch=5 n=71 v=0
31920 On ch=5 n=74 v=45
32040 On ch=5 n=74 v=0
32040 On ch=5 n=71 v=45
32098 On ch=5 n=71 v=0
32160 On ch=5 n=69 v=45
32400 On ch=5 n=69 v=0
32400 On ch=5 n=68 v=45
32499 On ch=5 n=68 v=0
32640 On ch=5 n=59 v=45
32739 On ch=5 n=59 v=0
32940 On ch=5 n=64 v=45
32982 On ch=5 n=64 v=0
33000 On ch=5 n=64 v=45
33042 On ch=5 n=64 v=0
33060 On ch=5 n=64 v=45
33102 On ch=5 n=64 v=0
33180 On ch=5 n=62 v=45
33222 On ch=5 n=62 v=0
33240 On ch=5 n=62 v=45
33282 On ch=5 n=62 v=0
33300 On ch=5 n=62 v=45
33342 On ch=5 n=62 v=0
33420 On ch=5 n=71 v=45
33462 On ch=5 n=71 v=0
33480 On ch=5 n=71 v=45
33522 On ch=5 n=71 v=0
33540 On ch=5 n=71 v=45
33582 On ch=5 n=71 v=0
33600 On ch=5 n=73 v=45
33700 On ch=5 n=73 v=0
34200 On ch=5 n=69 v=45
34440 On ch=5 n=69 v=0
34440 On ch=5 n=68 v=45
34540 On ch=5 n=68 v=0
34560 On ch=5 n=69 v=45
34602 On ch=5 n=69 v=0
34620 On ch=5 n=69 v=45
34662 On ch=5 n=69 v=0
34680 On ch=5 n=69 v=45
34722 On ch=5 n=69 v=0
34740 On ch=5 n=69 v=45
34782 On ch=5 n=69 v=0
34860 On ch=5 n=69 v=45
34902 On ch=5 n=69 v=0
34920 On ch=5 n=69 v=45
34962 On ch=5 n=69 v=0
34980 On ch=5 n=69 v=45
35022 On ch=5 n=69 v=0
35100 On ch=5 n=69 v=45
35142 On ch=5 n=69 v=0
35160 On ch=5 n=69 v=45
35202 On ch=5 n=69 v=0
35220 On ch=5 n=69 v=45
35262 On ch=5 n=69 v=0
35280 On ch=5 n=69 v=45
35322 On ch=5 n=69 v=0
35340 On ch=5 n=69 v=45
35382 On ch=5 n=69 v=0
35400 On ch=5 n=68 v=45
35442 On ch=5 n=68 v=0
35460 On ch=5 n=68 v=45
35502 On ch=5 n=68 v=0
35520 On ch=5 n=69 v=92
35548 On ch=5 n=69 v=0
35550 On ch=5 n=64 v=92
35578 On ch=5 n=64 v=0
35580 On ch=5 n=61 v=92
35608 On ch=5 n=61 v=0
35610 On ch=5 n=64 v=92
35638 On ch=5 n=64 v=0
35640 On ch=5 n=69 v=92
35668 On ch=5 n=69 v=0
35670 On ch=5 n=64 v=92
35698 On ch=5 n=64 v=0
35700 On ch=5 n=69 v=92
35728 On ch=5 n=69 v=0
35730 On ch=5 n=64 v=92
35758 On ch=5 n=64 v=0
35760 On ch=5 n=73 v=92
35788 On ch=5 n=73 v=0
35790 On ch=5 n=69 v=92
35818 On ch=5 n=69 v=0
35820 On ch=5 n=73 v=92
35848 On ch=5 n=73 v=0
35850 On ch=5 n=69 v=92
35878 On ch=5 n=69 v=0
35880 On ch=5 n=76 v=92
35908 On ch=5 n=76 v=0
35910 On ch=5 n=73 v=92
35938 On ch=5 n=73 v=0
35940 On ch=5 n=76 v=92
35968 On ch=5 n=76 v=0
35970 On ch=5 n=73 v=92
35998 On ch=5 n=73 v=0
36000 On ch=5 n=81 v=92
36100 On ch=5 n=81 v=0
36240 On ch=5 n=69 v=45
36340 On ch=5 n=69 v=0
36480 On ch=5 n=74 v=45
36580 On ch=5 n=74 v=0
36720 On ch=5 n=68 v=45
36820 On ch=5 n=68 v=0
36960 On ch=5 n=69 v=45
37060 On ch=5 n=69 v=0
37200 On ch=5 n=60 v=45
37300 On ch=5 n=60 v=0
37440 On ch=5 n=65 v=45
37540 On ch=5 n=65 v=0
37680 On ch=5 n=59 v=45
37780 On ch=5 n=59 v=0
37920 On ch=5 n=60 v=45
37940 On ch=5 n=60 v=0
37980 On ch=5 n=64 v=45
38000 On ch=5 n=64 v=0
38040 On ch=5 n=60 v=45
38060 On ch=5 n=60 v=0
38100 On ch=5 n=64 v=45
38120 On ch=5 n=64 v=0
38160 On ch=5 n=60 v=45
38260 On ch=5 n=60 v=0
38520 On ch=5 n=65 v=75
38730 On ch=5 n=65 v=0
38760 On ch=5 n=65 v=75
38860 On ch=5 n=65 v=0
38880 On ch=5 n=65 v=60
38980 On ch=5 n=65 v=0
39120 On ch=5 n=65 v=45
39220 On ch=5 n=65 v=0
39360 On ch=5 n=65 v=45
39940 On ch=5 n=65 v=0
40440 On ch=5 n=64 v=45
40470 On ch=5 n=64 v=0
40560 On ch=5 n=64 v=45
40590 On ch=5 n=64 v=0
40800 On ch=5 n=65 v=45
40860 On ch=5 n=65 v=0
40860 On ch=5 n=67 v=45
40920 On ch=5 n=67 v=0
40920 On ch=5 n=65 v=45
40980 On ch=5 n=65 v=0
40980 On ch=5 n=67 v=45
41040 On ch=5 n=67 v=0
41040 On ch=5 n=65 v=45
41100 On ch=5 n=65 v=0
41100 On ch=5 n=67 v=45
41160 On ch=5 n=67 v=0
41160 On ch=5 n=65 v=45
41220 On ch=5 n=65 v=0
41220 On ch=5 n=67 v=45
41278 On ch=5 n=67 v=0
41280 On ch=5 n=64 v=45
41340 On ch=5 n=64 v=0
41340 On ch=5 n=67 v=45
41400 On ch=5 n=67 v=0
41400 On ch=5 n=64 v=45
41460 On ch=5 n=64 v=0
41460 On ch=5 n=67 v=45
41520 On ch=5 n=67 v=0
41520 On ch=5 n=64 v=45
41580 On ch=5 n=64 v=0
41580 On ch=5 n=67 v=45
41640 On ch=5 n=67 v=0
41640 On ch=5 n=64 v=45
41700 On ch=5 n=64 v=0
41700 On ch=5 n=67 v=45
41758 On ch=5 n=67 v=0
41760 On ch=5 n=65 v=45
41820 On ch=5 n=65 v=0
41820 On ch=5 n=67 v=45
41880 On ch=5 n=67 v=0
41880 On ch=5 n=65 v=45
41940 On ch=5 n=65 v=0
41940 On ch=5 n=67 v=45
42000 On ch=5 n=67 v=0
42000 On ch=5 n=65 v=45
42060 On ch=5 n=65 v=0
42060 On ch=5 n=67 v=45
42120 On ch=5 n=67 v=0
42120 On ch=5 n=65 v=45
42180 On ch=5 n=65 v=0
42180 On ch=5 n=67 v=45
42238 On ch=5 n=67 v=0
42240 On ch=5 n=64 v=45
42300 On ch=5 n=64 v=0
42300 On ch=5 n=67 v=45
42360 On ch=5 n=67 v=0
42360 On ch=5 n=64 v=45
42420 On ch=5 n=64 v=0
42420 On ch=5 n=67 v=45
42480 On ch=5 n=67 v=0
42480 On ch=5 n=64 v=45
42540 On ch=5 n=64 v=0
42540 On ch=5 n=67 v=45
42600 On ch=5 n=67 v=0
42600 On ch=5 n=64 v=45
42660 On ch=5 n=64 v=0
42660 On ch=5 n=67 v=45
42718 On ch=5 n=67 v=0
42720 On ch=5 n=62 v=45
42780 On ch=5 n=62 v=0
42780 On ch=5 n=67 v=45
42840 On ch=5 n=67 v=0
42840 On ch=5 n=62 v=45
42900 On ch=5 n=62 v=0
42900 On ch=5 n=67 v=45
42960 On ch=5 n=67 v=0
42960 On ch=5 n=62 v=45
43020 On ch=5 n=62 v=0
43020 On ch=5 n=67 v=45
43080 On ch=5 n=67 v=0
43080 On ch=5 n=62 v=45
43140 On ch=5 n=62 v=0
43140 On ch=5 n=67 v=45
43198 On ch=5 n=67 v=0
43200 On ch=5 n=61 v=45
43300 On ch=5 n=61 v=0
43320 On ch=5 n=70 v=45
43560 On ch=5 n=70 v=0
43560 On ch=5 n=72 v=45
43680 On ch=5 n=72 v=0
43680 On ch=5 n=73 v=45
43780 On ch=5 n=73 v=0
43800 On ch=5 n=67 v=45
44010 On ch=5 n=67 v=0
44040 On ch=5 n=67 v=45
44260 On ch=5 n=67 v=0
44280 On ch=5 n=67 v=45
44380 On ch=5 n=67 v=0
44460 On ch=5 n=67 v=45
44520 On ch=5 n=67 v=0
44520 On ch=5 n=66 v=45
44580 On ch=5 n=66 v=0
44580 On ch=5 n=64 v=45
44638 On ch=5 n=64 v=0
44640 On ch=5 n=63 v=45
44698 On ch=5 n=63 v=0
44700 On ch=5 n=75 v=45
44730 On ch=5 n=75 v=0
44730 On ch=5 n=76 v=45
44760 On ch=5 n=76 v=0
44760 On ch=5 n=78 v=45
44818 On ch=5 n=78 v=0
44820 On ch=5 n=79 v=45
44840 On ch=5 n=79 v=0
44880 On ch=5 n=81 v=45
45120 On ch=5 n=81 v=0
45120 On ch=5 n=79 v=45
45220 On ch=5 n=79 v=0
45240 On ch=5 n=79 v=45
45328 On ch=5 n=79 v=0
45330 On ch=5 n=79 v=45
45350 On ch=5 n=79 v=0
45360 On ch=5 n=81 v=45
45375 On ch=5 n=81 v=0
45375 On ch=5 n=79 v=45
45390 On ch=5 n=79 v=0
45390 On ch=5 n=81 v=45
45405 On ch=5 n=81 v=0
45405 On ch=5 n=79 v=45
45420 On ch=5 n=79 v=0
45420 On ch=5 n=81 v=45
45435 On ch=5 n=81 v=0
45435 On ch=5 n=79 v=45
45450 On ch=5 n=79 v=0
45450 On ch=5 n=81 v=45
45465 On ch=5 n=81 v=0
45465 On ch=5 n=79 v=45
45480 On ch=5 n=79 v=0
45480 On ch=5 n=81 v=45
45495 On ch=5 n=81 v=0
45495 On ch=5 n=79 v=45
45510 On ch=5 n=79 v=0
45510 On ch=5 n=81 v=45
45525 On ch=5 n=81 v=0
45525 On ch=5 n=79 v=45
45540 On ch=5 n=79 v=0
45540 On ch=5 n=81 v=45
45555 On ch=5 n=81 v=0
45555 On ch=5 n=79 v=45
45570 On ch=5 n=79 v=0
45570 On ch=5 n=78 v=45
45585 On ch=5 n=78 v=0
45585 On ch=5 n=79 v=45
45598 On ch=5 n=79 v=0
45600 On ch=5 n=78 v=45
45658 On ch=5 n=78 v=0
45660 On ch=5 n=63 v=45
45690 On ch=5 n=63 v=0
45690 On ch=5 n=64 v=45
45720 On ch=5 n=64 v=0
45720 On ch=5 n=66 v=45
45778 On ch=5 n=66 v=0
45780 On ch=5 n=67 v=45
45800 On ch=5 n=67 v=0
45840 On ch=5 n=69 v=45
46080 On ch=5 n=69 v=0
46080 On ch=5 n=67 v=45
46180 On ch=5 n=67 v=0
46200 On ch=5 n=67 v=45
46288 On ch=5 n=67 v=0
46290 On ch=5 n=67 v=45
46310 On ch=5 n=67 v=0
46320 On ch=5 n=69 v=45
46335 On ch=5 n=69 v=0
46335 On ch=5 n=67 v=45
46350 On ch=5 n=67 v=0
46350 On ch=5 n=69 v=45
46365 On ch=5 n=69 v=0
46365 On ch=5 n=67 v=45
46380 On ch=5 n=67 v=0
46380 On ch=5 n=69 v=45
46395 On ch=5 n=69 v=0
46395 On ch=5 n=67 v=45
46410 On ch=5 n=67 v=0
46410 On ch=5 n=69 v=45
46425 On ch=5 n=69 v=0
46425 On ch=5 n=67 v=45
46440 On ch=5 n=67 v=0
46440 On ch=5 n=69 v=45
46455 On ch=5 n=69 v=0
46455 On ch=5 n=67 v=45
46470 On ch=5 n=67 v=0
46470 On ch=5 n=69 v=45
46485 On ch=5 n=69 v=0
46485 On ch=5 n=67 v=45
46500 On ch=5 n=67 v=0
46500 On ch=5 n=69 v=45
46515 On ch=5 n=69 v=0
46515 On ch=5 n=67 v=45
46530 On ch=5 n=67 v=0
46530 On ch=5 n=66 v=45
46545 On ch=5 n=66 v=0
46545 On ch=5 n=67 v=45
46558 On ch=5 n=67 v=0
46560 On ch=5 n=66 v=45
46660 On ch=5 n=66 v=0
46740 On ch=5 n=71 v=92
46760 On ch=5 n=71 v=0
46800 On ch=5 n=67 v=92
46820 On ch=5 n=67 v=0
46920 On ch=5 n=59 v=92
46920 On ch=5 n=67 v=92
46920 On ch=5 n=76 v=92
46978 On ch=5 n=59 v=0
46978 On ch=5 n=67 v=0
46978 On ch=5 n=76 v=0
47040 On ch=5 n=59 v=92
47040 On ch=5 n=66 v=92
47040 On ch=5 n=75 v=92
47140 On ch=5 n=59 v=0
47140 On ch=5 n=66 v=0
47140 On ch=5 n=75 v=0
47220 On ch=5 n=71 v=92
47240 On ch=5 n=71 v=0
47280 On ch=5 n=67 v=92
47300 On ch=5 n=67 v=0
47400 On ch=5 n=71 v=92
47400 On ch=5 n=79 v=92
47458 On ch=5 n=71 v=0
47458 On ch=5 n=79 v=0
47520 On ch=5 n=71 v=92
47520 On ch=5 n=78 v=92
47620 On ch=5 n=71 v=0
47620 On ch=5 n=78 v=0
48000 On ch=5 n=63 v=45
48240 On ch=5 n=63 v=0
48240 On ch=5 n=61 v=45
48480 On ch=5 n=61 v=0
48480 On ch=5 n=59 v=45
48720 On ch=5 n=59 v=0
48720 On ch=5 n=57 v=45
48840 On ch=5 n=57 v=0
48840 On ch=5 n=63 v=45
48960 On ch=5 n=63 v=0
48960 On ch=5 n=64 v=45
49060 On ch=5 n=64 v=0
49260 On ch=5 n=63 v=45
49320 On ch=5 n=63 v=0
49320 On ch=5 n=66 v=45
49380 On ch=5 n=66 v=0
49380 On ch=5 n=69 v=45
49438 On ch=5 n=69 v=0
49440 On ch=5 n=68 v=45
49498 On ch=5 n=68 v=0
49500 On ch=5 n=71 v=45
49542 On ch=5 n=71 v=0
49560 On ch=5 n=71 v=45
49602 On ch=5 n=71 v=0
49620 On ch=5 n=71 v=45
49662 On ch=5 n=71 v=0
49740 On ch=5 n=71 v=45
49782 On ch=5 n=71 v=0
49800 On ch=5 n=71 v=45
49842 On ch=5 n=71 v=0
49860 On ch=5 n=71 v=45
49902 On ch=5 n=71 v=0
49920 On ch=5 n=71 v=45
50020 On ch=5 n=71 v=0
50220 On ch=5 n=69 v=45
50280 On ch=5 n=69 v=0
50280 On ch=5 n=68 v=45
50340 On ch=5 n=68 v=0
50340 On ch=5 n=66 v=45
50398 On ch=5 n=66 v=0
50400 On ch=5 n=68 v=45
50458 On ch=5 n=68 v=0
50460 On ch=5 n=71 v=45
50502 On ch=5 n=71 v=0
50520 On ch=5 n=71 v=45
50562 On ch=5 n=71 v=0
50580 On ch=5 n=71 v=45
50622 On ch=5 n=71 v=0
50700 On ch=5 n=71 v=45
50760 On ch=5 n=71 v=0
50760 On ch=5 n=71 v=45
50820 On ch=5 n=71 v=0
50820 On ch=5 n=71 v=45
50880 On ch=5 n=71 v=0
50880 On ch=5 n=71 v=45
50980 On ch=5 n=71 v=0
51180 On ch=5 n=69 v=45
51240 On ch=5 n=69 v=0
51240 On ch=5 n=68 v=45
51300 On ch=5 n=68 v=0
51300 On ch=5 n=66 v=45
51358 On ch=5 n=66 v=0
51360 On ch=5 n=68 v=45
51460 On ch=5 n=68 v=0
51540 On ch=5 n=71 v=45
51600 On ch=5 n=71 v=0
51600 On ch=5 n=68 v=45
51700 On ch=5 n=68 v=0
51780 On ch=5 n=71 v=45
51840 On ch=5 n=71 v=0
51840 On ch=5 n=73 v=45
51940 On ch=5 n=73 v=0
52020 On ch=5 n=68 v=45
52080 On ch=5 n=68 v=0
52080 On ch=5 n=66 v=45
52180 On ch=5 n=66 v=0
52260 On ch=5 n=68 v=45
52320 On ch=5 n=68 v=0
52320 On ch=5 n=69 v=45
52420 On ch=5 n=69 v=0
52500 On ch=5 n=65 v=45
52560 On ch=5 n=65 v=0
52560 On ch=5 n=66 v=45
52660 On ch=5 n=66 v=0
52740 On ch=5 n=64 v=45
52798 On ch=5 n=64 v=0
52800 On ch=5 n=63 v=45
53280 On ch=5 n=63 v=0
53280 On ch=5 n=64 v=45
53380 On ch=5 n=64 v=0
53640 On ch=5 n=71 v=45
53760 On ch=5 n=71 v=0
53760 On ch=5 n=73 v=45
53860 On ch=5 n=73 v=0
54360 On ch=5 n=73 v=45
54480 On ch=5 n=73 v=0
54480 On ch=5 n=71 v=45
54600 On ch=5 n=71 v=0
54600 On ch=5 n=75 v=45
54700 On ch=5 n=75 v=0
54720 On ch=5 n=76 v=45
54780 On ch=5 n=76 v=0
54780 On ch=5 n=68 v=45
54840 On ch=5 n=68 v=0
54840 On ch=5 n=64 v=45
54900 On ch=5 n=64 v=0
54900 On ch=5 n=68 v=45
54960 On ch=5 n=68 v=0
54960 On ch=5 n=64 v=45
55020 On ch=5 n=64 v=0
55020 On ch=5 n=68 v=45
55080 On ch=5 n=68 v=0
55080 On ch=5 n=64 v=45
55140 On ch=5 n=64 v=0
55140 On ch=5 n=68 v=45
55198 On ch=5 n=68 v=0
55200 On ch=5 n=66 v=45
55260 On ch=5 n=66 v=0
55260 On ch=5 n=68 v=45
55320 On ch=5 n=68 v=0
55320 On ch=5 n=66 v=45
55380 On ch=5 n=66 v=0
55380 On ch=5 n=68 v=45
55440 On ch=5 n=68 v=0
55440 On ch=5 n=66 v=45
55500 On ch=5 n=66 v=0
55500 On ch=5 n=68 v=45
55560 On ch=5 n=68 v=0
55560 On ch=5 n=66 v=45
55620 On ch=5 n=66 v=0
55620 On ch=5 n=68 v=45
55678 On ch=5 n=68 v=0
55680 On ch=5 n=64 v=45
55740 On ch=5 n=64 v=0
55740 On ch=5 n=68 v=45
55800 On ch=5 n=68 v=0
55800 On ch=5 n=64 v=45
55860 On ch=5 n=64 v=0
55860 On ch=5 n=68 v=45
55920 On ch=5 n=68 v=0
55920 On ch=5 n=64 v=45
55980 On ch=5 n=64 v=0
55980 On ch=5 n=68 v=45
56040 On ch=5 n=68 v=0
56040 On ch=5 n=64 v=45
56100 On ch=5 n=64 v=0
56100 On ch=5 n=68 v=45
56158 On ch=5 n=68 v=0
56160 On ch=5 n=63 v=45
56220 On ch=5 n=63 v=0
56220 On ch=5 n=68 v=45
56280 On ch=5 n=68 v=0
56280 On ch=5 n=63 v=45
56340 On ch=5 n=63 v=0
56340 On ch=5 n=68 v=45
56400 On ch=5 n=68 v=0
56400 On ch=5 n=63 v=45
56460 On ch=5 n=63 v=0
56460 On ch=5 n=68 v=45
56520 On ch=5 n=68 v=0
56520 On ch=5 n=63 v=45
56580 On ch=5 n=63 v=0
56580 On ch=5 n=68 v=45
56638 On ch=5 n=68 v=0
56640 On ch=5 n=64 v=45
56700 On ch=5 n=64 v=0
56700 On ch=5 n=68 v=45
56760 On ch=5 n=68 v=0
56760 On ch=5 n=64 v=45
56820 On ch=5 n=64 v=0
56820 On ch=5 n=68 v=45
56880 On ch=5 n=68 v=0
56880 On ch=5 n=64 v=45
56940 On ch=5 n=64 v=0
56940 On ch=5 n=68 v=45
57000 On ch=5 n=68 v=0
57000 On ch=5 n=64 v=45
57060 On ch=5 n=64 v=0
57060 On ch=5 n=68 v=45
57118 On ch=5 n=68 v=0
57120 On ch=5 n=66 v=45
57180 On ch=5 n=66 v=0
57180 On ch=5 n=68 v=45
57240 On ch=5 n=68 v=0
57240 On ch=5 n=66 v=45
57300 On ch=5 n=66 v=0
57300 On ch=5 n=68 v=45
57360 On ch=5 n=68 v=0
57360 On ch=5 n=66 v=45
57420 On ch=5 n=66 v=0
57420 On ch=5 n=68 v=45
57480 On ch=5 n=68 v=0
57480 On ch=5 n=66 v=45
57540 On ch=5 n=66 v=0
57540 On ch=5 n=68 v=45
57598 On ch=5 n=68 v=0
57600 On ch=5 n=64 v=45
57660 On ch=5 n=64 v=0
57660 On ch=5 n=68 v=45
57720 On ch=5 n=68 v=0
57720 On ch=5 n=64 v=45
57780 On ch=5 n=64 v=0
57780 On ch=5 n=68 v=45
57840 On ch=5 n=68 v=0
57840 On ch=5 n=64 v=45
57900 On ch=5 n=64 v=0
57900 On ch=5 n=68 v=45
57960 On ch=5 n=68 v=0
57960 On ch=5 n=64 v=45
58020 On ch=5 n=64 v=0
58020 On ch=5 n=68 v=45
58078 On ch=5 n=68 v=0
58080 On ch=5 n=63 v=45
58140 On ch=5 n=63 v=0
58140 On ch=5 n=68 v=45
58200 On ch=5 n=68 v=0
58200 On ch=5 n=63 v=45
58260 On ch=5 n=63 v=0
58260 On ch=5 n=68 v=45
58320 On ch=5 n=68 v=0
58320 On ch=5 n=63 v=45
58380 On ch=5 n=63 v=0
58380 On ch=5 n=68 v=45
58440 On ch=5 n=68 v=0
58440 On ch=5 n=63 v=45
58500 On ch=5 n=63 v=0
58500 On ch=5 n=68 v=45
58558 On ch=5 n=68 v=0
58560 On ch=5 n=64 v=45
58620 On ch=5 n=64 v=0
58620 On ch=5 n=68 v=45
58680 On ch=5 n=68 v=0
58680 On ch=5 n=64 v=45
58740 On ch=5 n=64 v=0
58740 On ch=5 n=68 v=45
58798 On ch=5 n=68 v=0
58800 On ch=5 n=64 v=45
58900 On ch=5 n=64 v=0
59040 On ch=5 n=69 v=45
59280 On ch=5 n=69 v=0
59280 On ch=5 n=71 v=45
59380 On ch=5 n=71 v=0
59520 On ch=5 n=69 v=45
59860 On ch=5 n=69 v=0
60000 On ch=5 n=69 v=45
60058 On ch=5 n=69 v=0
60060 On ch=5 n=69 v=45
60160 On ch=5 n=69 v=0
60180 On ch=5 n=69 v=45
60280 On ch=5 n=69 v=0
60300 On ch=5 n=69 v=45
60400 On ch=5 n=69 v=0
60420 On ch=5 n=69 v=45
60478 On ch=5 n=69 v=0
60480 On ch=5 n=69 v=45
60580 On ch=5 n=69 v=0
60960 On ch=5 n=71 v=45
61200 On ch=5 n=71 v=0
61200 On ch=5 n=68 v=45
61380 On ch=5 n=68 v=0
61380 On ch=5 n=69 v=45
61438 On ch=5 n=69 v=0
61440 On ch=5 n=73 v=45
61500 On ch=5 n=73 v=0
61500 On ch=5 n=71 v=45
61558 On ch=5 n=71 v=0
61560 On ch=5 n=69 v=45
61579 On ch=5 n=69 v=0
61620 On ch=5 n=68 v=45
61639 On ch=5 n=68 v=0
61680 On ch=5 n=66 v=45
61860 On ch=5 n=66 v=0
61860 On ch=5 n=68 v=45
61918 On ch=5 n=68 v=0
61920 On ch=5 n=71 v=45
61980 On ch=5 n=71 v=0
61980 On ch=5 n=69 v=45
62038 On ch=5 n=69 v=0
62040 On ch=5 n=68 v=45
62059 On ch=5 n=68 v=0
62100 On ch=5 n=66 v=45
62119 On ch=5 n=66 v=0
62160 On ch=5 n=64 v=45
62340 On ch=5 n=64 v=0
62340 On ch=5 n=66 v=45
62398 On ch=5 n=66 v=0
62400 On ch=5 n=68 v=45
62460 On ch=5 n=68 v=0
62460 On ch=5 n=69 v=45
62490 On ch=5 n=69 v=0
62490 On ch=5 n=71 v=45
62520 On ch=5 n=71 v=0
62520 On ch=5 n=69 v=45
62550 On ch=5 n=69 v=0
62550 On ch=5 n=68 v=45
62580 On ch=5 n=68 v=0
62580 On ch=5 n=66 v=45
62610 On ch=5 n=66 v=0
62610 On ch=5 n=64 v=45
62638 On ch=5 n=64 v=0
62640 On ch=5 n=63 v=45
62670 On ch=5 n=63 v=0
62760 On ch=5 n=61 v=45
62790 On ch=5 n=61 v=0
62880 On ch=5 n=59 v=45
62910 On ch=5 n=59 v=0
63000 On ch=5 n=63 v=45
63030 On ch=5 n=63 v=0
63180 On ch=5 n=66 v=45
63240 On ch=5 n=66 v=0
63240 On ch=5 n=68 v=45
63300 On ch=5 n=68 v=0
63300 On ch=5 n=69 v=45
63358 On ch=5 n=69 v=0
63360 On ch=5 n=71 v=45
63420 On ch=5 n=71 v=0
63420 On ch=5 n=73 v=45
63480 On ch=5 n=73 v=0
63480 On ch=5 n=71 v=45
63510 On ch=5 n=71 v=0
63510 On ch=5 n=69 v=45
63540 On ch=5 n=69 v=0
63540 On ch=5 n=68 v=45
63570 On ch=5 n=68 v=0
63570 On ch=5 n=66 v=45
63598 On ch=5 n=66 v=0
63600 On ch=5 n=66 v=45
63660 On ch=5 n=66 v=0
63660 On ch=5 n=64 v=45
63718 On ch=5 n=64 v=0
63720 On ch=5 n=64 v=45
63780 On ch=5 n=64 v=0
63780 On ch=5 n=63 v=45
63838 On ch=5 n=63 v=0
63840 On ch=5 n=64 v=45
63898 On ch=5 n=64 v=0
63900 On ch=5 n=76 v=45
63960 On ch=5 n=76 v=0
63960 On ch=5 n=75 v=45
64020 On ch=5 n=75 v=0
64020 On ch=5 n=69 v=45
64078 On ch=5 n=69 v=0
64080 On ch=5 n=68 v=45
64138 On ch=5 n=68 v=0
64140 On ch=5 n=80 v=45
64150 On ch=5 n=80 v=0
64150 On ch=5 n=78 v=45
64159 On ch=5 n=80 v=45
64160 On ch=5 n=78 v=0
64170 On ch=5 n=80 v=0
64170 On ch=5 n=78 v=45
64185 On ch=5 n=78 v=0
64185 On ch=5 n=80 v=45
64198 On ch=5 n=80 v=0
64200 On ch=5 n=81 v=45
64258 On ch=5 n=81 v=0
64380 On ch=5 n=76 v=45
64440 On ch=5 n=76 v=0
64440 On ch=5 n=75 v=45
64500 On ch=5 n=75 v=0
64500 On ch=5 n=69 v=45
64558 On ch=5 n=69 v=0
64560 On ch=5 n=68 v=45
64618 On ch=5 n=68 v=0
64620 On ch=5 n=80 v=45
64630 On ch=5 n=80 v=0
64630 On ch=5 n=78 v=45
64639 On ch=5 n=80 v=45
64640 On ch=5 n=78 v=0
64650 On ch=5 n=80 v=0
64650 On ch=5 n=78 v=45
64665 On ch=5 n=78 v=0
64665 On ch=5 n=80 v=45
64678 On ch=5 n=80 v=0
64680 On ch=5 n=81 v=45
64738 On ch=5 n=81 v=0
64860 On ch=5 n=76 v=45
64920 On ch=5 n=76 v=0
64920 On ch=5 n=75 v=45
64980 On ch=5 n=75 v=0
64980 On ch=5 n=69 v=45
65038 On ch=5 n=69 v=0
65040 On ch=5 n=68 v=45
65098 On ch=5 n=68 v=0
65100 On ch=5 n=80 v=45
65110 On ch=5 n=80 v=0
65110 On ch=5 n=78 v=45
65119 On ch=5 n=80 v=45
65120 On ch=5 n=78 v=0
65130 On ch=5 n=80 v=0
65130 On ch=5 n=78 v=45
65145 On ch=5 n=78 v=0
65145 On ch=5 n=80 v=45
65158 On ch=5 n=80 v=0
65160 On ch=5 n=81 v=45
65218 On ch=5 n=81 v=0
65340 On ch=5 n=80 v=45
65350 On ch=5 n=80 v=0
65350 On ch=5 n=78 v=45
65359 On ch=5 n=80 v=45
65360 On ch=5 n=78 v=0
65370 On ch=5 n=80 v=0
65370 On ch=5 n=78 v=45
65385 On ch=5 n=78 v=0
65385 On ch=5 n=80 v=45
65398 On ch=5 n=80 v=0
65400 On ch=5 n=81 v=45
65458 On ch=5 n=81 v=0
65580 On ch=5 n=80 v=45
65590 On ch=5 n=80 v=0
65590 On ch=5 n=78 v=45
65600 On ch=5 n=78 v=0
65600 On ch=5 n=80 v=45
65610 On ch=5 n=80 v=0
65610 On ch=5 n=78 v=45
65625 On ch=5 n=78 v=0
65625 On ch=5 n=80 v=45
65638 On ch=5 n=80 v=0
65640 On ch=5 n=81 v=45
65698 On ch=5 n=81 v=0
65820 On ch=5 n=71 v=45
65840 On ch=5 n=71 v=0
65880 On ch=5 n=71 v=45
65900 On ch=5 n=71 v=0
65940 On ch=5 n=71 v=45
65960 On ch=5 n=71 v=0
66000 On ch=5 n=71 v=45
66180 On ch=5 n=71 v=0
66180 On ch=5 n=76 v=45
66238 On ch=5 n=76 v=0
66240 On ch=5 n=76 v=45
66300 On ch=5 n=76 v=0
66300 On ch=5 n=73 v=45
66358 On ch=5 n=73 v=0
66360 On ch=5 n=73 v=45
66380 On ch=5 n=73 v=0
66420 On ch=5 n=73 v=45
66440 On ch=5 n=73 v=0
66480 On ch=5 n=73 v=45
66660 On ch=5 n=73 v=0
66660 On ch=5 n=76 v=45
66718 On ch=5 n=76 v=0
66720 On ch=5 n=76 v=45
66780 On ch=5 n=76 v=0
66780 On ch=5 n=71 v=45
66838 On ch=5 n=71 v=0
66840 On ch=5 n=68 v=45
66860 On ch=5 n=68 v=0
66900 On ch=5 n=71 v=45
66920 On ch=5 n=71 v=0
66960 On ch=5 n=71 v=45
67020 On ch=5 n=71 v=0
67020 On ch=5 n=69 v=45
67078 On ch=5 n=69 v=0
67080 On ch=5 n=68 v=45
67100 On ch=5 n=68 v=0
67140 On ch=5 n=66 v=45
67160 On ch=5 n=66 v=0
67200 On ch=5 n=64 v=45
67300 On ch=5 n=64 v=0
67680 On ch=5 n=62 v=45
68160 On ch=5 n=62 v=0
68160 Meta TrkEnd
TrkEnd
MTrk
25320 On ch=6 n=62 v=45
25340 On ch=6 n=62 v=0
25440 On ch=6 n=61 v=45
25540 On ch=6 n=61 v=0
25680 On ch=6 n=62 v=45
25700 On ch=6 n=62 v=0
25800 On ch=6 n=62 v=45
25820 On ch=6 n=62 v=0
25920 On ch=6 n=61 v=92
25978 On ch=6 n=61 v=0
25980 On ch=6 n=61 v=92
26008 On ch=6 n=61 v=0
26010 On ch=6 n=64 v=92
26038 On ch=6 n=64 v=0
26040 On ch=6 n=69 v=92
26068 On ch=6 n=69 v=0
26070 On ch=6 n=64 v=92
26098 On ch=6 n=64 v=0
26100 On ch=6 n=69 v=92
26128 On ch=6 n=69 v=0
26130 On ch=6 n=64 v=92
26158 On ch=6 n=64 v=0
26160 On ch=6 n=73 v=92
26188 On ch=6 n=73 v=0
26190 On ch=6 n=69 v=92
26218 On ch=6 n=69 v=0
26220 On ch=6 n=73 v=92
26248 On ch=6 n=73 v=0
26250 On ch=6 n=69 v=92
26278 On ch=6 n=69 v=0
26280 On ch=6 n=76 v=92
26308 On ch=6 n=76 v=0
26310 On ch=6 n=73 v=92
26338 On ch=6 n=73 v=0
26340 On ch=6 n=76 v=92
26368 On ch=6 n=76 v=0
26370 On ch=6 n=73 v=92
26398 On ch=6 n=73 v=0
26400 On ch=6 n=69 v=92
26475 On ch=6 n=69 v=0
26520 On ch=6 n=64 v=92
26520 On ch=6 n=73 v=92
26520 On ch=6 n=81 v=92
26595 On ch=6 n=64 v=0
26595 On ch=6 n=73 v=0
26595 On ch=6 n=81 v=0
26640 On ch=6 n=57 v=92
26715 On ch=6 n=57 v=0
26880 On ch=6 n=57 v=45
26922 On ch=6 n=57 v=0
26940 On ch=6 n=57 v=45
26982 On ch=6 n=57 v=0
27000 On ch=6 n=57 v=45
27042 On ch=6 n=57 v=0
27060 On ch=6 n=57 v=45
27102 On ch=6 n=57 v=0
27120 On ch=6 n=57 v=45
27162 On ch=6 n=57 v=0
27180 On ch=6 n=57 v=45
27222 On ch=6 n=57 v=0
27240 On ch=6 n=57 v=45
27282 On ch=6 n=57 v=0
27300 On ch=6 n=57 v=45
27342 On ch=6 n=57 v=0
27360 On ch=6 n=57 v=45
27460 On ch=6 n=57 v=0
27660 On ch=6 n=57 v=45
27718 On ch=6 n=57 v=0
27720 On ch=6 n=61 v=45
27778 On ch=6 n=61 v=0
27780 On ch=6 n=57 v=45
27838 On ch=6 n=57 v=0
27840 On ch=6 n=59 v=45
27940 On ch=6 n=59 v=0
28080 On ch=6 n=59 v=45
28180 On ch=6 n=59 v=0
28620 On ch=6 n=64 v=45
28680 On ch=6 n=64 v=0
28680 On ch=6 n=63 v=45
28740 On ch=6 n=63 v=0
28740 On ch=6 n=62 v=45
28798 On ch=6 n=62 v=0
28800 On ch=6 n=61 v=45
28842 On ch=6 n=61 v=0
28860 On ch=6 n=61 v=45
28902 On ch=6 n=61 v=0
28920 On ch=6 n=61 v=45
28962 On ch=6 n=61 v=0
28980 On ch=6 n=61 v=45
29022 On ch=6 n=61 v=0
29040 On ch=6 n=59 v=45
29082 On ch=6 n=59 v=0
29100 On ch=6 n=59 v=45
29142 On ch=6 n=59 v=0
29160 On ch=6 n=57 v=45
29202 On ch=6 n=57 v=0
29220 On ch=6 n=57 v=45
29262 On ch=6 n=57 v=0
29280 On ch=6 n=56 v=45
29380 On ch=6 n=56 v=0
29400 On ch=6 n=68 v=45
29640 On ch=6 n=68 v=0
29640 On ch=6 n=69 v=45
29740 On ch=6 n=69 v=0
29760 On ch=6 n=66 v=45
29860 On ch=6 n=66 v=0
30120 On ch=6 n=56 v=45
30220 On ch=6 n=56 v=0
30240 On ch=6 n=57 v=45
30340 On ch=6 n=57 v=0
30540 On ch=6 n=64 v=45
30560 On ch=6 n=64 v=0
30600 On ch=6 n=69 v=45
30620 On ch=6 n=69 v=0
30660 On ch=6 n=71 v=45
30670 On ch=6 n=71 v=0
30670 On ch=6 n=69 v=45
30680 On ch=6 n=69 v=0
30680 On ch=6 n=71 v=45
30690 On ch=6 n=71 v=0
30690 On ch=6 n=69 v=45
30705 On ch=6 n=69 v=0
30705 On ch=6 n=71 v=45
30718 On ch=6 n=71 v=0
30720 On ch=6 n=73 v=45
30930 On ch=6 n=73 v=0
30960 On ch=6 n=71 v=45
31018 On ch=6 n=71 v=0
31020 On ch=6 n=69 v=45
31078 On ch=6 n=69 v=0
31080 On ch=6 n=68 v=45
31108 On ch=6 n=68 v=0
31110 On ch=6 n=69 v=45
31138 On ch=6 n=69 v=0
31140 On ch=6 n=71 v=45
31198 On ch=6 n=71 v=0
31200 On ch=6 n=74 v=45
31260 On ch=6 n=74 v=0
31260 On ch=6 n=73 v=45
31318 On ch=6 n=73 v=0
31320 On ch=6 n=71 v=45
31340 On ch=6 n=71 v=0
31380 On ch=6 n=69 v=45
31400 On ch=6 n=69 v=0
31440 On ch=6 n=69 v=45
31539 On ch=6 n=69 v=0
31680 On ch=6 n=66 v=45
31800 On ch=6 n=66 v=0
31800 On ch=6 n=62 v=45
31858 On ch=6 n=62 v=0
31920 On ch=6 n=66 v=45
32040 On ch=6 n=66 v=0
32040 On ch=6 n=62 v=45
32098 On ch=6 n=62 v=0
32160 On ch=6 n=61 v=45
32400 On ch=6 n=61 v=0
32400 On ch=6 n=59 v=45
32499 On ch=6 n=59 v=0
32640 On ch=6 n=56 v=45
32739 On ch=6 n=56 v=0
32940 On ch=6 n=56 v=45
32982 On ch=6 n=56 v=0
33000 On ch=6 n=56 v=45
33042 On ch=6 n=56 v=0
33060 On ch=6 n=56 v=45
33102 On ch=6 n=56 v=0
33180 On ch=6 n=57 v=45
33222 On ch=6 n=57 v=0
33240 On ch=6 n=57 v=45
33282 On ch=6 n=57 v=0
33300 On ch=6 n=57 v=45
33342 On ch=6 n=57 v=0
33420 On ch=6 n=68 v=45
33462 On ch=6 n=68 v=0
33480 On ch=6 n=68 v=45
33522 On ch=6 n=68 v=0
33540 On ch=6 n=68 v=45
33582 On ch=6 n=68 v=0
33600 On ch=6 n=69 v=45
33700 On ch=6 n=69 v=0
34200 On ch=6 n=66 v=45
34440 On ch=6 n=66 v=0
34440 On ch=6 n=64 v=45
34602 On ch=6 n=64 v=0
34620 On ch=6 n=64 v=45
34662 On ch=6 n=64 v=0
34680 On ch=6 n=64 v=45
34722 On ch=6 n=64 v=0
34740 On ch=6 n=64 v=45
34782 On ch=6 n=64 v=0
34860 On ch=6 n=66 v=45
34902 On ch=6 n=66 v=0
34920 On ch=6 n=66 v=45
34962 On ch=6 n=66 v=0
34980 On ch=6 n=66 v=45
35022 On ch=6 n=66 v=0
35100 On ch=6 n=64 v=45
35160 On ch=6 n=64 v=0
35160 On ch=6 n=61 v=45
35202 On ch=6 n=61 v=0
35220 On ch=6 n=61 v=45
35262 On ch=6 n=61 v=0
35280 On ch=6 n=59 v=45
35322 On ch=6 n=59 v=0
35340 On ch=6 n=59 v=45
35382 On ch=6 n=59 v=0
35400 On ch=6 n=59 v=45
35442 On ch=6 n=59 v=0
35460 On ch=6 n=59 v=45
35502 On ch=6 n=59 v=0
35520 On ch=6 n=57 v=92
35578 On ch=6 n=57 v=0
35580 On ch=6 n=61 v=92
35608 On ch=6 n=61 v=0
35610 On ch=6 n=64 v=92
35638 On ch=6 n=64 v=0
35640 On ch=6 n=69 v=92
35668 On ch=6 n=69 v=0
35670 On ch=6 n=64 v=92
35698 On ch=6 n=64 v=0
35700 On ch=6 n=69 v=92
35728 On ch=6 n=69 v=0
35730 On ch=6 n=64 v=92
35758 On ch=6 n=64 v=0
35760 On ch=6 n=73 v=92
35788 On ch=6 n=73 v=0
35790 On ch=6 n=69 v=92
35818 On ch=6 n=69 v=0
35820 On ch=6 n=73 v=92
35848 On ch=6 n=73 v=0
35850 On ch=6 n=69 v=92
35878 On ch=6 n=69 v=0
35880 On ch=6 n=76 v=92
35908 On ch=6 n=76 v=0
35910 On ch=6 n=73 v=92
35938 On ch=6 n=73 v=0
35940 On ch=6 n=76 v=92
35968 On ch=6 n=76 v=0
35970 On ch=6 n=73 v=92
35998 On ch=6 n=73 v=0
36000 On ch=6 n=81 v=92
36100 On ch=6 n=81 v=0
36240 On ch=6 n=69 v=45
36340 On ch=6 n=69 v=0
36480 On ch=6 n=66 v=45
36480 On ch=6 n=69 v=45
36580 On ch=6 n=66 v=0
36580 On ch=6 n=69 v=0
36720 On ch=6 n=62 v=45
36720 On ch=6 n=64 v=45
36820 On ch=6 n=62 v=0
36820 On ch=6 n=64 v=0
36960 On ch=6 n=60 v=45
36960 On ch=6 n=64 v=45
37060 On ch=6 n=60 v=0
37060 On ch=6 n=64 v=0
37200 On ch=6 n=57 v=45
37300 On ch=6 n=57 v=0
37440 On ch=6 n=59 v=45
37540 On ch=6 n=59 v=0
37680 On ch=6 n=56 v=45
37780 On ch=6 n=56 v=0
37920 On ch=6 n=57 v=45
37940 On ch=6 n=57 v=0
37980 On ch=6 n=60 v=45
38000 On ch=6 n=60 v=0
38040 On ch=6 n=57 v=45
38060 On ch=6 n=57 v=0
38100 On ch=6 n=60 v=45
38120 On ch=6 n=60 v=0
38160 On ch=6 n=57 v=45
38260 On ch=6 n=57 v=0
38520 On ch=6 n=60 v=75
38608 On ch=6 n=60 v=0
38610 On ch=6 n=60 v=75
38630 On ch=6 n=60 v=0
38640 On ch=6 n=59 v=75
38728 On ch=6 n=59 v=0
38730 On ch=6 n=59 v=75
38750 On ch=6 n=59 v=0
38760 On ch=6 n=60 v=75
38848 On ch=6 n=60 v=0
38850 On ch=6 n=60 v=75
38870 On ch=6 n=60 v=0
38880 On ch=6 n=59 v=60
38980 On ch=6 n=59 v=0
39120 On ch=6 n=59 v=45
39220 On ch=6 n=59 v=0
39360 On ch=6 n=59 v=45
39940 On ch=6 n=59 v=0
40440 On ch=6 n=55 v=45
40470 On ch=6 n=55 v=0
40560 On ch=6 n=60 v=45
40590 On ch=6 n=60 v=0
42240 On ch=6 n=67 v=45
43170 On ch=6 n=67 v=0
43200 On ch=6 n=67 v=45
43300 On ch=6 n=67 v=0
43320 On ch=6 n=67 v=45
43530 On ch=6 n=67 v=0
43560 On ch=6 n=67 v=45
43780 On ch=6 n=67 v=0
43800 On ch=6 n=64 v=45
44010 On ch=6 n=64 v=0
44040 On ch=6 n=64 v=45
44260 On ch=6 n=64 v=0
44280 On ch=6 n=64 v=45
44380 On ch=6 n=64 v=0
44400 On ch=6 n=58 v=45
44610 On ch=6 n=58 v=0
44640 On ch=6 n=59 v=45
44698 On ch=6 n=59 v=0
44700 On ch=6 n=71 v=45
44730 On ch=6 n=71 v=0
44730 On ch=6 n=73 v=45
44760 On ch=6 n=73 v=0
44760 On ch=6 n=75 v=45
44818 On ch=6 n=75 v=0
44820 On ch=6 n=76 v=45
44840 On ch=6 n=76 v=0
44880 On ch=6 n=78 v=45
45178 On ch=6 n=78 v=0
45180 On ch=6 n=71 v=45
45240 On ch=6 n=71 v=0
45240 On ch=6 n=73 v=45
45300 On ch=6 n=73 v=0
45300 On ch=6 n=75 v=45
45358 On ch=6 n=75 v=0
45360 On ch=6 n=78 v=45
45375 On ch=6 n=78 v=0
45375 On ch=6 n=76 v=45
45390 On ch=6 n=76 v=0
45390 On ch=6 n=78 v=45
45405 On ch=6 n=78 v=0
45405 On ch=6 n=76 v=45
45420 On ch=6 n=76 v=0
45420 On ch=6 n=78 v=45
45435 On ch=6 n=78 v=0
45435 On ch=6 n=76 v=45
45450 On ch=6 n=76 v=0
45450 On ch=6 n=78 v=45
45465 On ch=6 n=78 v=0
45465 On ch=6 n=76 v=45
45480 On ch=6 n=76 v=0
45480 On ch=6 n=78 v=45
45495 On ch=6 n=78 v=0
45495 On ch=6 n=76 v=45
45510 On ch=6 n=76 v=0
45510 On ch=6 n=78 v=45
45525 On ch=6 n=78 v=0
45525 On ch=6 n=76 v=45
45540 On ch=6 n=76 v=0
45540 On ch=6 n=78 v=45
45555 On ch=6 n=78 v=0
45555 On ch=6 n=76 v=45
45570 On ch=6 n=76 v=0
45570 On ch=6 n=75 v=45
45585 On ch=6 n=75 v=0
45585 On ch=6 n=76 v=45
45598 On ch=6 n=76 v=0
45600 On ch=6 n=74 v=45
45658 On ch=6 n=74 v=0
45660 On ch=6 n=60 v=45
45690 On ch=6 n=60 v=0
45690 On ch=6 n=61 v=45
45720 On ch=6 n=61 v=0
45720 On ch=6 n=62 v=45
45778 On ch=6 n=62 v=0
45780 On ch=6 n=64 v=45
45800 On ch=6 n=64 v=0
45840 On ch=6 n=66 v=45
46138 On ch=6 n=66 v=0
46140 On ch=6 n=59 v=45
46200 On ch=6 n=59 v=0
46200 On ch=6 n=61 v=45
46260 On ch=6 n=61 v=0
46260 On ch=6 n=63 v=45
46318 On ch=6 n=63 v=0
46320 On ch=6 n=66 v=45
46335 On ch=6 n=66 v=0
46335 On ch=6 n=64 v=45
46350 On ch=6 n=64 v=0
46350 On ch=6 n=66 v=45
46365 On ch=6 n=66 v=0
46365 On ch=6 n=64 v=45
46380 On ch=6 n=64 v=0
46380 On ch=6 n=66 v=45
46395 On ch=6 n=66 v=0
46395 On ch=6 n=64 v=45
46410 On ch=6 n=64 v=0
46410 On ch=6 n=66 v=45
46425 On ch=6 n=66 v=0
46425 On ch=6 n=64 v=45
46440 On ch=6 n=64 v=0
46440 On ch=6 n=66 v=45
46455 On ch=6 n=66 v=0
46455 On ch=6 n=64 v=45
46470 On ch=6 n=64 v=0
46470 On ch=6 n=66 v=45
46485 On ch=6 n=66 v=0
46485 On ch=6 n=64 v=45
46500 On ch=6 n=64 v=0
46500 On ch=6 n=66 v=45
46515 On ch=6 n=66 v=0
46515 On ch=6 n=64 v=45
46530 On ch=6 n=64 v=0
46530 On ch=6 n=63 v=45
46545 On ch=6 n=63 v=0
46545 On ch=6 n=64 v=45
46558 On ch=6 n=64 v=0
46560 On ch=6 n=63 v=45
46660 On ch=6 n=63 v=0
46740 On ch=6 n=66 v=92
46760 On ch=6 n=66 v=0
46800 On ch=6 n=64 v=92
46820 On ch=6 n=64 v=0
46920 On ch=6 n=59 v=92
46920 On ch=6 n=67 v=92
46940 On ch=6 n=59 v=0
46940 On ch=6 n=67 v=0
47040 On ch=6 n=59 v=92
47040 On ch=6 n=68 v=92
47070 On ch=6 n=59 v=0
47070 On ch=6 n=68 v=0
47220 On ch=6 n=66 v=92
47240 On ch=6 n=66 v=0
47280 On ch=6 n=64 v=92
47300 On ch=6 n=64 v=0
47400 On ch=6 n=59 v=92
47400 On ch=6 n=67 v=92
47400 On ch=6 n=76 v=92
47420 On ch=6 n=59 v=0
47420 On ch=6 n=67 v=0
47420 On ch=6 n=76 v=0
47520 On ch=6 n=59 v=92
47520 On ch=6 n=66 v=92
47520 On ch=6 n=75 v=92
47620 On ch=6 n=59 v=0
47620 On ch=6 n=66 v=0
47620 On ch=6 n=75 v=0
48000 On ch=6 n=59 v=45
48240 On ch=6 n=59 v=0
48240 On ch=6 n=57 v=45
48480 On ch=6 n=57 v=0
48480 On ch=6 n=56 v=45
48720 On ch=6 n=56 v=0
48720 On ch=6 n=57 v=45
48960 On ch=6 n=57 v=0
48960 On ch=6 n=59 v=45
49060 On ch=6 n=59 v=0
49260 On ch=6 n=59 v=45
49320 On ch=6 n=59 v=0
49320 On ch=6 n=63 v=45
49380 On ch=6 n=63 v=0
49380 On ch=6 n=66 v=45
49438 On ch=6 n=66 v=0
49440 On ch=6 n=64 v=45
49498 On ch=6 n=64 v=0
49500 On ch=6 n=68 v=45
49542 On ch=6 n=68 v=0
49560 On ch=6 n=68 v=45
49602 On ch=6 n=68 v=0
49620 On ch=6 n=68 v=45
49662 On ch=6 n=68 v=0
49740 On ch=6 n=68 v=45
49782 On ch=6 n=68 v=0
49800 On ch=6 n=68 v=45
49842 On ch=6 n=68 v=0
49860 On ch=6 n=68 v=45
49902 On ch=6 n=68 v=0
49920 On ch=6 n=69 v=45
50020 On ch=6 n=69 v=0
50220 On ch=6 n=66 v=45
50280 On ch=6 n=66 v=0
50280 On ch=6 n=64 v=45
50340 On ch=6 n=64 v=0
50340 On ch=6 n=63 v=45
50398 On ch=6 n=63 v=0
50400 On ch=6 n=64 v=45
50458 On ch=6 n=64 v=0
50460 On ch=6 n=68 v=45
50502 On ch=6 n=68 v=0
50520 On ch=6 n=68 v=45
50562 On ch=6 n=68 v=0
50580 On ch=6 n=68 v=45
50622 On ch=6 n=68 v=0
50700 On ch=6 n=68 v=45
50742 On ch=6 n=68 v=0
50760 On ch=6 n=68 v=45
50802 On ch=6 n=68 v=0
50820 On ch=6 n=68 v=45
50862 On ch=6 n=68 v=0
50880 On ch=6 n=69 v=45
50980 On ch=6 n=69 v=0
51180 On ch=6 n=66 v=45
51240 On ch=6 n=66 v=0
51240 On ch=6 n=64 v=45
51300 On ch=6 n=64 v=0
51300 On ch=6 n=63 v=45
51358 On ch=6 n=63 v=0
51360 On ch=6 n=64 v=45
51460 On ch=6 n=64 v=0
51540 On ch=6 n=64 v=45
51598 On ch=6 n=64 v=0
51600 On ch=6 n=64 v=45
51700 On ch=6 n=64 v=0
51780 On ch=6 n=64 v=45
51838 On ch=6 n=64 v=0
51840 On ch=6 n=64 v=45
51940 On ch=6 n=64 v=0
52020 On ch=6 n=61 v=45
52078 On ch=6 n=61 v=0
52080 On ch=6 n=61 v=45
52180 On ch=6 n=61 v=0
52260 On ch=6 n=61 v=45
52318 On ch=6 n=61 v=0
52320 On ch=6 n=61 v=45
52420 On ch=6 n=61 v=0
52500 On ch=6 n=59 v=45
52560 On ch=6 n=59 v=0
52560 On ch=6 n=61 v=45
52660 On ch=6 n=61 v=0
52740 On ch=6 n=61 v=45
52798 On ch=6 n=61 v=0
52800 On ch=6 n=59 v=45
53380 On ch=6 n=59 v=0
53640 On ch=6 n=64 v=45
53860 On ch=6 n=64 v=0
54360 On ch=6 n=67 v=45
54480 On ch=6 n=67 v=0
54480 On ch=6 n=68 v=45
54600 On ch=6 n=68 v=0
54600 On ch=6 n=69 v=45
54720 On ch=6 n=69 v=0
54720 On ch=6 n=68 v=45
54820 On ch=6 n=68 v=0
56040 On ch=6 n=61 v=45
56140 On ch=6 n=61 v=0
56160 On ch=6 n=60 v=45
56640 On ch=6 n=60 v=0
56640 On ch=6 n=61 v=45
56740 On ch=6 n=61 v=0
57960 On ch=6 n=61 v=45
58060 On ch=6 n=61 v=0
58080 On ch=6 n=60 v=45
58560 On ch=6 n=60 v=0
58560 On ch=6 n=61 v=45
58660 On ch=6 n=61 v=0
58680 On ch=6 n=61 v=45
58710 On ch=6 n=61 v=0
58800 On ch=6 n=61 v=45
58830 On ch=6 n=61 v=0
59040 On ch=6 n=64 v=45
59280 On ch=6 n=64 v=0
59280 On ch=6 n=63 v=45
59380 On ch=6 n=63 v=0
59520 On ch=6 n=64 v=45
59760 On ch=6 n=64 v=0
59760 On ch=6 n=63 v=45
59860 On ch=6 n=63 v=0
60000 On ch=6 n=63 v=45
60058 On ch=6 n=63 v=0
60060 On ch=6 n=63 v=45
60160 On ch=6 n=63 v=0
60180 On ch=6 n=63 v=45
60280 On ch=6 n=63 v=0
60300 On ch=6 n=63 v=45
60400 On ch=6 n=63 v=0
60420 On ch=6 n=63 v=45
60478 On ch=6 n=63 v=0
60480 On ch=6 n=63 v=45
60580 On ch=6 n=63 v=0
63180 On ch=6 n=63 v=45
63240 On ch=6 n=63 v=0
63240 On ch=6 n=64 v=45
63300 On ch=6 n=64 v=0
63300 On ch=6 n=66 v=45
63358 On ch=6 n=66 v=0
63360 On ch=6 n=64 v=45
63480 On ch=6 n=64 v=0
63480 On ch=6 n=63 v=45
63510 On ch=6 n=63 v=0
63510 On ch=6 n=61 v=45
63540 On ch=6 n=61 v=0
63540 On ch=6 n=59 v=45
63570 On ch=6 n=59 v=0
63570 On ch=6 n=57 v=45
63598 On ch=6 n=57 v=0
63600 On ch=6 n=56 v=45
63720 On ch=6 n=56 v=0
63720 On ch=6 n=57 v=45
63820 On ch=6 n=57 v=0
63840 On ch=6 n=56 v=45
63940 On ch=6 n=56 v=0
64140 On ch=6 n=64 v=60
64200 On ch=6 n=64 v=0
64200 On ch=6 n=63 v=60
64260 On ch=6 n=63 v=0
64260 On ch=6 n=57 v=60
64318 On ch=6 n=57 v=0
64320 On ch=6 n=56 v=60
64378 On ch=6 n=56 v=0
64380 On ch=6 n=68 v=60
64390 On ch=6 n=68 v=0
64390 On ch=6 n=66 v=60
64399 On ch=6 n=68 v=60
64400 On ch=6 n=66 v=0
64410 On ch=6 n=68 v=0
64410 On ch=6 n=66 v=60
64425 On ch=6 n=66 v=0
64425 On ch=6 n=68 v=60
64438 On ch=6 n=68 v=0
64440 On ch=6 n=69 v=60
64498 On ch=6 n=69 v=0
64620 On ch=6 n=64 v=60
64680 On ch=6 n=64 v=0
64680 On ch=6 n=63 v=60
64740 On ch=6 n=63 v=0
64740 On ch=6 n=57 v=60
64798 On ch=6 n=57 v=0
64800 On ch=6 n=56 v=60
64858 On ch=6 n=56 v=0
64860 On ch=6 n=68 v=60
64870 On ch=6 n=68 v=0
64870 On ch=6 n=66 v=60
64879 On ch=6 n=68 v=60
64880 On ch=6 n=66 v=0
64890 On ch=6 n=68 v=0
64890 On ch=6 n=66 v=60
64905 On ch=6 n=66 v=0
64905 On ch=6 n=68 v=60
64918 On ch=6 n=68 v=0
64920 On ch=6 n=69 v=60
64978 On ch=6 n=69 v=0
65100 On ch=6 n=64 v=60
65160 On ch=6 n=64 v=0
65160 On ch=6 n=63 v=53
65218 On ch=6 n=63 v=0
65220 On ch=6 n=75 v=45
65230 On ch=6 n=75 v=0
65230 On ch=6 n=73 v=45
65239 On ch=6 n=75 v=45
65240 On ch=6 n=73 v=0
65250 On ch=6 n=75 v=0
65250 On ch=6 n=73 v=45
65265 On ch=6 n=73 v=0
65265 On ch=6 n=75 v=45
65278 On ch=6 n=75 v=0
65280 On ch=6 n=76 v=45
65338 On ch=6 n=76 v=0
65460 On ch=6 n=75 v=45
65470 On ch=6 n=75 v=0
65470 On ch=6 n=73 v=45
65479 On ch=6 n=75 v=45
65480 On ch=6 n=73 v=0
65490 On ch=6 n=75 v=0
65490 On ch=6 n=73 v=45
65505 On ch=6 n=73 v=0
65505 On ch=6 n=75 v=45
65520 On ch=6 n=75 v=0
65520 On ch=6 n=76 v=45
65578 On ch=6 n=76 v=0
65700 On ch=6 n=75 v=45
65710 On ch=6 n=75 v=0
65710 On ch=6 n=73 v=45
65720 On ch=6 n=73 v=0
65720 On ch=6 n=75 v=45
65730 On ch=6 n=75 v=0
65730 On ch=6 n=73 v=45
65745 On ch=6 n=73 v=0
65745 On ch=6 n=75 v=45
65760 On ch=6 n=75 v=0
65760 On ch=6 n=76 v=45
65818 On ch=6 n=76 v=0
65820 On ch=6 n=68 v=45
65840 On ch=6 n=68 v=0
65880 On ch=6 n=68 v=45
65900 On ch=6 n=68 v=0
65940 On ch=6 n=68 v=45
65960 On ch=6 n=68 v=0
66000 On ch=6 n=68 v=45
66210 On ch=6 n=68 v=0
66240 On ch=6 n=73 v=45
66300 On ch=6 n=73 v=0
66300 On ch=6 n=69 v=45
66358 On ch=6 n=69 v=0
66360 On ch=6 n=69 v=45
66380 On ch=6 n=69 v=0
66420 On ch=6 n=69 v=45
66440 On ch=6 n=69 v=0
66480 On ch=6 n=69 v=45
66592 On ch=6 n=69 v=0
66660 On ch=6 n=73 v=45
66718 On ch=6 n=73 v=0
66720 On ch=6 n=68 v=45
66820 On ch=6 n=68 v=0
66840 On ch=6 n=64 v=45
66860 On ch=6 n=64 v=0
66900 On ch=6 n=68 v=45
66920 On ch=6 n=68 v=0
66960 On ch=6 n=68 v=45
67020 On ch=6 n=68 v=0
67020 On ch=6 n=66 v=45
67078 On ch=6 n=66 v=0
67080 On ch=6 n=64 v=45
67100 On ch=6 n=64 v=0
67140 On ch=6 n=63 v=45
67160 On ch=6 n=63 v=0
67200 On ch=6 n=64 v=45
67300 On ch=6 n=64 v=0
67680 On ch=6 n=59 v=45
68160 On ch=6 n=59 v=0
68160 Meta TrkEnd
TrkEnd
MTrk
25320 On ch=7 n=59 v=45
25320 On ch=7 n=40 v=45
25340 On ch=7 n=59 v=0
25340 On ch=7 n=40 v=0
25440 On ch=7 n=57 v=45
25440 On ch=7 n=33 v=45
25540 On ch=7 n=57 v=0
25540 On ch=7 n=33 v=0
25680 On ch=7 n=59 v=45
25680 On ch=7 n=38 v=45
25700 On ch=7 n=59 v=0
25700 On ch=7 n=38 v=0
25800 On ch=7 n=59 v=45
25800 On ch=7 n=40 v=45
25820 On ch=7 n=59 v=0
25820 On ch=7 n=40 v=0
25920 On ch=7 n=57 v=45
25920 On ch=7 n=33 v=45
25978 On ch=7 n=57 v=0
25978 On ch=7 n=33 v=0
25980 On ch=7 n=69 v=92
25980 On ch=7 n=45 v=92
26000 On ch=7 n=69 v=0
26000 On ch=7 n=45 v=0
26040 On ch=7 n=73 v=92
26040 On ch=7 n=49 v=92
26060 On ch=7 n=73 v=0
26060 On ch=7 n=49 v=0
26100 On ch=7 n=69 v=92
26100 On ch=7 n=45 v=92
26120 On ch=7 n=69 v=0
26120 On ch=7 n=45 v=0
26160 On ch=7 n=64 v=92
26160 On ch=7 n=40 v=92
26180 On ch=7 n=64 v=0
26180 On ch=7 n=40 v=0
26220 On ch=7 n=69 v=92
26220 On ch=7 n=45 v=92
26240 On ch=7 n=69 v=0
26240 On ch=7 n=45 v=0
26280 On ch=7 n=61 v=92
26280 On ch=7 n=37 v=92
26300 On ch=7 n=61 v=0
26300 On ch=7 n=37 v=0
26340 On ch=7 n=64 v=92
26340 On ch=7 n=40 v=92
26360 On ch=7 n=64 v=0
26360 On ch=7 n=40 v=0
26400 On ch=7 n=57 v=92
26400 On ch=7 n=33 v=92
26475 On ch=7 n=57 v=0
26475 On ch=7 n=33 v=0
26520 On ch=7 n=69 v=92
26520 On ch=7 n=45 v=92
26595 On ch=7 n=69 v=0
26595 On ch=7 n=45 v=0
26640 On ch=7 n=57 v=92
26640 On ch=7 n=33 v=92
26715 On ch=7 n=57 v=0
26715 On ch=7 n=33 v=0
27840 On ch=7 n=50 v=45
27940 On ch=7 n=50 v=0
28080 On ch=7 n=50 v=45
28180 On ch=7 n=50 v=0
28380 On ch=7 n=52 v=45
28422 On ch=7 n=52 v=0
28440 On ch=7 n=52 v=45
28482 On ch=7 n=52 v=0
28500 On ch=7 n=52 v=45
28542 On ch=7 n=52 v=0
28560 On ch=7 n=52 v=45
28660 On ch=7 n=52 v=0
29400 On ch=7 n=64 v=45
29520 On ch=7 n=64 v=0
29520 On ch=7 n=65 v=45
29640 On ch=7 n=65 v=0
29640 On ch=7 n=66 v=45
29740 On ch=7 n=66 v=0
29760 On ch=7 n=62 v=45
29860 On ch=7 n=62 v=0
29940 On ch=7 n=50 v=45
29998 On ch=7 n=50 v=0
30000 On ch=7 n=52 v=45
30100 On ch=7 n=52 v=0
30120 On ch=7 n=52 v=45
30220 On ch=7 n=52 v=0
30240 On ch=7 n=57 v=45
30340 On ch=7 n=57 v=0
30720 On ch=7 n=61 v=45
30720 On ch=7 n=64 v=45
30720 On ch=7 n=33 v=45
30778 On ch=7 n=33 v=0
30840 On ch=7 n=45 v=45
30898 On ch=7 n=45 v=0
30930 On ch=7 n=61 v=0
30930 On ch=7 n=64 v=0
30960 On ch=7 n=57 v=45
30960 On ch=7 n=61 v=45
30960 On ch=7 n=33 v=45
31018 On ch=7 n=57 v=0
31018 On ch=7 n=61 v=0
31018 On ch=7 n=33 v=0
31020 On ch=7 n=56 v=45
31020 On ch=7 n=59 v=45
31078 On ch=7 n=56 v=0
31078 On ch=7 n=59 v=0
31080 On ch=7 n=54 v=45
31080 On ch=7 n=57 v=45
31080 On ch=7 n=45 v=45
31108 On ch=7 n=54 v=0
31108 On ch=7 n=57 v=0
31110 On ch=7 n=56 v=45
31110 On ch=7 n=59 v=45
31138 On ch=7 n=45 v=0
31138 On ch=7 n=56 v=0
31138 On ch=7 n=59 v=0
31140 On ch=7 n=57 v=45
31140 On ch=7 n=61 v=45
31198 On ch=7 n=57 v=0
31198 On ch=7 n=61 v=0
31200 On ch=7 n=62 v=45
31200 On ch=7 n=66 v=45
31200 On ch=7 n=33 v=45
31258 On ch=7 n=33 v=0
31260 On ch=7 n=62 v=0
31260 On ch=7 n=66 v=0
31260 On ch=7 n=61 v=45
31260 On ch=7 n=64 v=45
31318 On ch=7 n=61 v=0
31318 On ch=7 n=64 v=0
31320 On ch=7 n=59 v=45
31320 On ch=7 n=62 v=45
31320 On ch=7 n=45 v=45
31340 On ch=7 n=59 v=0
31340 On ch=7 n=62 v=0
31378 On ch=7 n=45 v=0
31380 On ch=7 n=57 v=45
31380 On ch=7 n=61 v=45
31400 On ch=7 n=57 v=0
31400 On ch=7 n=61 v=0
31440 On ch=7 n=57 v=45
31440 On ch=7 n=61 v=45
31440 On ch=7 n=33 v=45
31498 On ch=7 n=33 v=0
31539 On ch=7 n=57 v=0
31539 On ch=7 n=61 v=0
31560 On ch=7 n=45 v=45
31618 On ch=7 n=45 v=0
31680 On ch=7 n=59 v=45
31680 On ch=7 n=38 v=45
31779 On ch=7 n=59 v=0
31779 On ch=7 n=38 v=0
31920 On ch=7 n=59 v=45
31920 On ch=7 n=38 v=45
32019 On ch=7 n=59 v=0
32019 On ch=7 n=38 v=0
32160 On ch=7 n=64 v=45
32220 On ch=7 n=40 v=45
32240 On ch=7 n=40 v=0
32280 On ch=7 n=40 v=45
32300 On ch=7 n=40 v=0
32340 On ch=7 n=40 v=45
32360 On ch=7 n=40 v=0
32400 On ch=7 n=40 v=45
32460 On ch=7 n=40 v=0
32460 On ch=7 n=44 v=45
32490 On ch=7 n=64 v=0
32520 On ch=7 n=44 v=0
32520 On ch=7 n=47 v=45
32580 On ch=7 n=47 v=0
32580 On ch=7 n=44 v=45
32638 On ch=7 n=44 v=0
32640 On ch=7 n=52 v=45
32640 On ch=7 n=40 v=45
32739 On ch=7 n=52 v=0
32739 On ch=7 n=40 v=0
33120 On ch=7 n=42 v=45
33360 On ch=7 n=42 v=0
33360 On ch=7 n=38 v=45
33420 On ch=7 n=64 v=45
33462 On ch=7 n=64 v=0
33480 On ch=7 n=64 v=45
33522 On ch=7 n=64 v=0
33540 On ch=7 n=64 v=45
33570 On ch=7 n=38 v=0
33582 On ch=7 n=64 v=0
33600 On ch=7 n=64 v=45
33600 On ch=7 n=37 v=45
33700 On ch=7 n=64 v=0
33700 On ch=7 n=37 v=0
34200 On ch=7 n=63 v=45
34320 On ch=7 n=63 v=0
34320 On ch=7 n=64 v=45
34440 On ch=7 n=64 v=0
34440 On ch=7 n=52 v=45
34540 On ch=7 n=52 v=0
34560 On ch=7 n=57 v=45
34560 On ch=7 n=45 v=45
34602 On ch=7 n=57 v=0
34620 On ch=7 n=61 v=45
34660 On ch=7 n=45 v=0
34662 On ch=7 n=61 v=0
34680 On ch=7 n=61 v=45
34722 On ch=7 n=61 v=0
34740 On ch=7 n=61 v=45
34782 On ch=7 n=61 v=0
34800 On ch=7 n=38 v=45
34860 On ch=7 n=62 v=45
34900 On ch=7 n=38 v=0
34902 On ch=7 n=62 v=0
34920 On ch=7 n=62 v=45
34962 On ch=7 n=62 v=0
34980 On ch=7 n=62 v=45
35022 On ch=7 n=62 v=0
35040 On ch=7 n=37 v=45
35100 On ch=7 n=57 v=45
35140 On ch=7 n=37 v=0
35142 On ch=7 n=57 v=0
35160 On ch=7 n=57 v=45
35160 On ch=7 n=42 v=45
35220 On ch=7 n=57 v=0
35220 On ch=7 n=66 v=45
35260 On ch=7 n=42 v=0
35262 On ch=7 n=66 v=0
35280 On ch=7 n=66 v=45
35280 On ch=7 n=38 v=45
35322 On ch=7 n=66 v=0
35340 On ch=7 n=66 v=45
35380 On ch=7 n=38 v=0
35382 On ch=7 n=66 v=0
35400 On ch=7 n=64 v=45
35400 On ch=7 n=40 v=45
35442 On ch=7 n=64 v=0
35460 On ch=7 n=62 v=45
35500 On ch=7 n=40 v=0
35502 On ch=7 n=62 v=0
35520 On ch=7 n=61 v=45
35520 On ch=7 n=33 v=45
35578 On ch=7 n=61 v=0
35578 On ch=7 n=33 v=0
35580 On ch=7 n=69 v=92
35580 On ch=7 n=45 v=92
35638 On ch=7 n=69 v=0
35638 On ch=7 n=45 v=0
35640 On ch=7 n=73 v=92
35640 On ch=7 n=49 v=92
35698 On ch=7 n=73 v=0
35698 On ch=7 n=49 v=0
35700 On ch=7 n=69 v=92
35700 On ch=7 n=45 v=92
35758 On ch=7 n=69 v=0
35758 On ch=7 n=45 v=0
35760 On ch=7 n=64 v=92
35760 On ch=7 n=40 v=92
35818 On ch=7 n=64 v=0
35818 On ch=7 n=40 v=0
35820 On ch=7 n=69 v=92
35820 On ch=7 n=45 v=92
35878 On ch=7 n=69 v=0
35878 On ch=7 n=45 v=0
35880 On ch=7 n=61 v=92
35880 On ch=7 n=37 v=92
35938 On ch=7 n=61 v=0
35938 On ch=7 n=37 v=0
35940 On ch=7 n=64 v=92
35940 On ch=7 n=40 v=92
35998 On ch=7 n=64 v=0
35998 On ch=7 n=40 v=0
36000 On ch=7 n=57 v=92
36000 On ch=7 n=33 v=92
36100 On ch=7 n=57 v=0
36100 On ch=7 n=33 v=0
36240 On ch=7 n=61 v=45
36240 On ch=7 n=42 v=45
36340 On ch=7 n=61 v=0
36340 On ch=7 n=42 v=0
36480 On ch=7 n=59 v=45
36480 On ch=7 n=35 v=45
36580 On ch=7 n=59 v=0
36580 On ch=7 n=35 v=0
36720 On ch=7 n=59 v=45
36720 On ch=7 n=40 v=45
36820 On ch=7 n=59 v=0
36820 On ch=7 n=40 v=0
36960 On ch=7 n=57 v=45
36960 On ch=7 n=33 v=45
37060 On ch=7 n=57 v=0
37060 On ch=7 n=33 v=0
37200 On ch=7 n=53 v=45
37200 On ch=7 n=41 v=45
37230 On ch=7 n=53 v=0
37300 On ch=7 n=41 v=0
37440 On ch=7 n=57 v=45
37440 On ch=7 n=38 v=45
37540 On ch=7 n=57 v=0
37540 On ch=7 n=38 v=0
37680 On ch=7 n=52 v=45
37680 On ch=7 n=40 v=45
37780 On ch=7 n=52 v=0
37780 On ch=7 n=40 v=0
37920 On ch=7 n=52 v=45
37920 On ch=7 n=33 v=45
37940 On ch=7 n=52 v=0
37940 On ch=7 n=33 v=0
37980 On ch=7 n=52 v=45
37980 On ch=7 n=45 v=45
38000 On ch=7 n=52 v=0
38000 On ch=7 n=45 v=0
38040 On ch=7 n=52 v=45
38040 On ch=7 n=33 v=45
38060 On ch=7 n=52 v=0
38060 On ch=7 n=33 v=0
38100 On ch=7 n=52 v=45
38100 On ch=7 n=45 v=45
38120 On ch=7 n=52 v=0
38120 On ch=7 n=45 v=0
38160 On ch=7 n=52 v=45
38160 On ch=7 n=33 v=45
38260 On ch=7 n=52 v=0
38260 On ch=7 n=33 v=0
38520 On ch=7 n=56 v=75
38520 On ch=7 n=44 v=75
38608 On ch=7 n=56 v=0
38608 On ch=7 n=44 v=0
38610 On ch=7 n=56 v=75
38610 On ch=7 n=44 v=75
38630 On ch=7 n=56 v=0
38630 On ch=7 n=44 v=0
38640 On ch=7 n=55 v=75
38640 On ch=7 n=43 v=75
38728 On ch=7 n=55 v=0
38728 On ch=7 n=43 v=0
38730 On ch=7 n=55 v=75
38730 On ch=7 n=43 v=75
38750 On ch=7 n=55 v=0
38750 On ch=7 n=43 v=0
38760 On ch=7 n=56 v=75
38760 On ch=7 n=44 v=75
38848 On ch=7 n=56 v=0
38848 On ch=7 n=44 v=0
38850 On ch=7 n=56 v=75
38850 On ch=7 n=44 v=75
38870 On ch=7 n=56 v=0
38870 On ch=7 n=44 v=0
38880 On ch=7 n=55 v=60
38880 On ch=7 n=43 v=60
38980 On ch=7 n=55 v=0
38980 On ch=7 n=43 v=0
39120 On ch=7 n=62 v=45
39120 On ch=7 n=43 v=45
39220 On ch=7 n=62 v=0
39220 On ch=7 n=43 v=0
39360 On ch=7 n=62 v=45
39360 On ch=7 n=44 v=45
39940 On ch=7 n=62 v=0
39940 On ch=7 n=44 v=0
40440 On ch=7 n=48 v=45
40470 On ch=7 n=48 v=0
40560 On ch=7 n=48 v=45
40590 On ch=7 n=48 v=0
42240 On ch=7 n=64 v=45
42720 On ch=7 n=64 v=0
42720 On ch=7 n=62 v=45
43170 On ch=7 n=62 v=0
43200 On ch=7 n=61 v=45
43300 On ch=7 n=61 v=0
43320 On ch=7 n=64 v=45
43530 On ch=7 n=64 v=0
43560 On ch=7 n=64 v=45
43780 On ch=7 n=64 v=0
43800 On ch=7 n=61 v=45
43800 On ch=7 n=34 v=45
44040 On ch=7 n=61 v=0
44040 On ch=7 n=34 v=0
44040 On ch=7 n=59 v=45
44040 On ch=7 n=35 v=45
44140 On ch=7 n=59 v=0
44140 On ch=7 n=35 v=0
44160 On ch=7 n=58 v=45
44160 On ch=7 n=36 v=45
44260 On ch=7 n=58 v=0
44260 On ch=7 n=36 v=0
44280 On ch=7 n=58 v=45
44380 On ch=7 n=58 v=0
44400 On ch=7 n=36 v=45
44460 On ch=7 n=52 v=45
44500 On ch=7 n=36 v=0
44520 On ch=7 n=52 v=0
44520 On ch=7 n=51 v=45
44580 On ch=7 n=51 v=0
44580 On ch=7 n=52 v=45
44638 On ch=7 n=52 v=0
44640 On ch=7 n=54 v=45
44640 On ch=7 n=35 v=45
44740 On ch=7 n=54 v=0
44740 On ch=7 n=35 v=0
46620 On ch=7 n=59 v=92
46620 On ch=7 n=35 v=92
46640 On ch=7 n=59 v=0
46640 On ch=7 n=35 v=0
46680 On ch=7 n=61 v=92
46680 On ch=7 n=37 v=92
46700 On ch=7 n=61 v=0
46700 On ch=7 n=37 v=0
46740 On ch=7 n=63 v=92
46740 On ch=7 n=39 v=92
46760 On ch=7 n=63 v=0
46760 On ch=7 n=39 v=0
46800 On ch=7 n=64 v=92
46800 On ch=7 n=40 v=92
46828 On ch=7 n=64 v=0
46828 On ch=7 n=40 v=0
46830 On ch=7 n=63 v=92
46830 On ch=7 n=39 v=92
46858 On ch=7 n=63 v=0
46858 On ch=7 n=39 v=0
46860 On ch=7 n=64 v=92
46860 On ch=7 n=40 v=92
46888 On ch=7 n=64 v=0
46888 On ch=7 n=40 v=0
46890 On ch=7 n=66 v=92
46890 On ch=7 n=42 v=92
46918 On ch=7 n=66 v=0
46918 On ch=7 n=42 v=0
46920 On ch=7 n=67 v=92
46920 On ch=7 n=43 v=92
46948 On ch=7 n=67 v=0
46948 On ch=7 n=43 v=0
46950 On ch=7 n=66 v=92
46950 On ch=7 n=42 v=92
46978 On ch=7 n=66 v=0
46978 On ch=7 n=42 v=0
46980 On ch=7 n=67 v=92
46980 On ch=7 n=43 v=92
47008 On ch=7 n=67 v=0
47008 On ch=7 n=43 v=0
47010 On ch=7 n=69 v=92
47010 On ch=7 n=45 v=92
47038 On ch=7 n=69 v=0
47038 On ch=7 n=45 v=0
47040 On ch=7 n=71 v=92
47040 On ch=7 n=47 v=92
47098 On ch=7 n=71 v=0
47098 On ch=7 n=47 v=0
47100 On ch=7 n=59 v=92
47100 On ch=7 n=35 v=92
47120 On ch=7 n=59 v=0
47120 On ch=7 n=35 v=0
47160 On ch=7 n=61 v=92
47160 On ch=7 n=37 v=92
47180 On ch=7 n=61 v=0
47180 On ch=7 n=37 v=0
47220 On ch=7 n=63 v=92
47220 On ch=7 n=39 v=92
47240 On ch=7 n=63 v=0
47240 On ch=7 n=39 v=0
47280 On ch=7 n=64 v=92
47280 On ch=7 n=40 v=92
47308 On ch=7 n=64 v=0
47308 On ch=7 n=40 v=0
47310 On ch=7 n=63 v=92
47310 On ch=7 n=39 v=92
47338 On ch=7 n=63 v=0
47338 On ch=7 n=39 v=0
47340 On ch=7 n=64 v=92
47340 On ch=7 n=40 v=92
47368 On ch=7 n=64 v=0
47368 On ch=7 n=40 v=0
47370 On ch=7 n=66 v=92
47370 On ch=7 n=42 v=92
47398 On ch=7 n=66 v=0
47398 On ch=7 n=42 v=0
47400 On ch=7 n=67 v=92
47400 On ch=7 n=43 v=92
47428 On ch=7 n=67 v=0
47428 On ch=7 n=43 v=0
47430 On ch=7 n=66 v=92
47430 On ch=7 n=42 v=92
47458 On ch=7 n=66 v=0
47458 On ch=7 n=42 v=0
47460 On ch=7 n=67 v=92
47460 On ch=7 n=43 v=92
47488 On ch=7 n=67 v=0
47488 On ch=7 n=43 v=0
47490 On ch=7 n=69 v=92
47490 On ch=7 n=45 v=92
47518 On ch=7 n=69 v=0
47518 On ch=7 n=45 v=0
47520 On ch=7 n=71 v=92
47520 On ch=7 n=47 v=92
47620 On ch=7 n=71 v=0
47620 On ch=7 n=47 v=0
48720 On ch=7 n=54 v=45
48960 On ch=7 n=54 v=0
48960 On ch=7 n=52 v=45
49060 On ch=7 n=52 v=0
49200 On ch=7 n=59 v=45
49200 On ch=7 n=35 v=45
49440 On ch=7 n=59 v=0
49440 On ch=7 n=35 v=0
49440 On ch=7 n=59 v=45
49440 On ch=7 n=40 v=45
49498 On ch=7 n=59 v=0
49500 On ch=7 n=64 v=45
49540 On ch=7 n=40 v=0
49542 On ch=7 n=64 v=0
49560 On ch=7 n=64 v=45
49602 On ch=7 n=64 v=0
49620 On ch=7 n=64 v=45
49662 On ch=7 n=64 v=0
49680 On ch=7 n=40 v=45
49740 On ch=7 n=64 v=45
49780 On ch=7 n=40 v=0
49782 On ch=7 n=64 v=0
49800 On ch=7 n=64 v=45
49842 On ch=7 n=64 v=0
49860 On ch=7 n=64 v=45
49902 On ch=7 n=64 v=0
49920 On ch=7 n=66 v=45
49920 On ch=7 n=42 v=45
50020 On ch=7 n=66 v=0
50020 On ch=7 n=42 v=0
50160 On ch=7 n=35 v=45
50260 On ch=7 n=35 v=0
50280 On ch=7 n=59 v=45
50400 On ch=7 n=40 v=45
50458 On ch=7 n=59 v=0
50460 On ch=7 n=64 v=45
50500 On ch=7 n=40 v=0
50502 On ch=7 n=64 v=0
50520 On ch=7 n=64 v=45
50562 On ch=7 n=64 v=0
50580 On ch=7 n=64 v=45
50622 On ch=7 n=64 v=0
50640 On ch=7 n=40 v=45
50700 On ch=7 n=64 v=45
50740 On ch=7 n=40 v=0
50742 On ch=7 n=64 v=0
50760 On ch=7 n=64 v=45
50802 On ch=7 n=64 v=0
50820 On ch=7 n=64 v=45
50862 On ch=7 n=64 v=0
50880 On ch=7 n=66 v=45
50880 On ch=7 n=42 v=45
50980 On ch=7 n=66 v=0
50980 On ch=7 n=42 v=0
51120 On ch=7 n=35 v=45
51220 On ch=7 n=35 v=0
51240 On ch=7 n=59 v=45
51360 On ch=7 n=40 v=45
51460 On ch=7 n=59 v=0
51460 On ch=7 n=40 v=0
51540 On ch=7 n=56 v=45
51600 On ch=7 n=56 v=0
51600 On ch=7 n=57 v=45
51700 On ch=7 n=57 v=0
51780 On ch=7 n=56 v=45
51840 On ch=7 n=56 v=0
51840 On ch=7 n=57 v=45
51940 On ch=7 n=57 v=0
52020 On ch=7 n=53 v=45
52080 On ch=7 n=53 v=0
52080 On ch=7 n=54 v=45
52180 On ch=7 n=54 v=0
52260 On ch=7 n=53 v=45
52320 On ch=7 n=53 v=0
52320 On ch=7 n=54 v=45
52420 On ch=7 n=54 v=0
52500 On ch=7 n=56 v=45
52560 On ch=7 n=56 v=0
52560 On ch=7 n=57 v=45
52660 On ch=7 n=57 v=0
52740 On ch=7 n=58 v=45
52798 On ch=7 n=58 v=0
52800 On ch=7 n=54 v=45
52800 On ch=7 n=35 v=45
53160 On ch=7 n=35 v=0
53160 On ch=7 n=33 v=45
53280 On ch=7 n=54 v=0
53280 On ch=7 n=33 v=0
53280 On ch=7 n=56 v=45
53280 On ch=7 n=32 v=45
53380 On ch=7 n=56 v=0
53380 On ch=7 n=32 v=0
53640 On ch=7 n=56 v=45
53760 On ch=7 n=56 v=0
53760 On ch=7 n=57 v=45
53860 On ch=7 n=57 v=0
54360 On ch=7 n=58 v=45
54480 On ch=7 n=58 v=0
54480 On ch=7 n=59 v=45
54720 On ch=7 n=59 v=0
54720 On ch=7 n=52 v=45
54820 On ch=7 n=52 v=0
59040 On ch=7 n=66 v=45
59380 On ch=7 n=66 v=0
59520 On ch=7 n=66 v=45
59860 On ch=7 n=66 v=0
60000 On ch=7 n=66 v=45
60058 On ch=7 n=66 v=0
60060 On ch=7 n=66 v=45
60120 On ch=7 n=47 v=45
60160 On ch=7 n=66 v=0
60178 On ch=7 n=47 v=0
60180 On ch=7 n=66 v=45
60240 On ch=7 n=42 v=45
60280 On ch=7 n=66 v=0
60298 On ch=7 n=42 v=0
60300 On ch=7 n=66 v=45
60360 On ch=7 n=39 v=45
60400 On ch=7 n=66 v=0
60418 On ch=7 n=39 v=0
60420 On ch=7 n=66 v=45
60478 On ch=7 n=66 v=0
60480 On ch=7 n=66 v=45
60480 On ch=7 n=35 v=45
60580 On ch=7 n=66 v=0
60580 On ch=7 n=35 v=0
61200 On ch=7 n=59 v=45
61410 On ch=7 n=59 v=0
61440 On ch=7 n=56 v=45
61620 On ch=7 n=56 v=0
61620 On ch=7 n=57 v=45
61678 On ch=7 n=57 v=0
61680 On ch=7 n=61 v=45
61740 On ch=7 n=61 v=0
61740 On ch=7 n=59 v=45
61798 On ch=7 n=59 v=0
61800 On ch=7 n=57 v=45
61819 On ch=7 n=57 v=0
61860 On ch=7 n=56 v=45
61879 On ch=7 n=56 v=0
61920 On ch=7 n=54 v=45
62100 On ch=7 n=54 v=0
62100 On ch=7 n=56 v=45
62158 On ch=7 n=56 v=0
62160 On ch=7 n=59 v=45
62220 On ch=7 n=59 v=0
62220 On ch=7 n=57 v=45
62278 On ch=7 n=57 v=0
62280 On ch=7 n=56 v=45
62299 On ch=7 n=56 v=0
62340 On ch=7 n=54 v=45
62359 On ch=7 n=54 v=0
62400 On ch=7 n=52 v=45
62500 On ch=7 n=52 v=0
62580 On ch=7 n=52 v=45
62638 On ch=7 n=52 v=0
62640 On ch=7 n=54 v=45
62670 On ch=7 n=54 v=0
62760 On ch=7 n=52 v=45
62790 On ch=7 n=52 v=0
62880 On ch=7 n=51 v=45
62910 On ch=7 n=51 v=0
63000 On ch=7 n=59 v=45
63030 On ch=7 n=59 v=0
63240 On ch=7 n=59 v=45
63240 On ch=7 n=45 v=45
63360 On ch=7 n=45 v=0
63360 On ch=7 n=44 v=45
63460 On ch=7 n=59 v=0
63480 On ch=7 n=44 v=0
63480 On ch=7 n=45 v=45
63540 On ch=7 n=61 v=45
63580 On ch=7 n=45 v=0
63598 On ch=7 n=61 v=0
63600 On ch=7 n=59 v=45
63600 On ch=7 n=47 v=45
63700 On ch=7 n=59 v=0
63700 On ch=7 n=47 v=0
63720 On ch=7 n=59 v=45
63720 On ch=7 n=35 v=45
63820 On ch=7 n=59 v=0
63820 On ch=7 n=35 v=0
63840 On ch=7 n=59 v=45
63840 On ch=7 n=40 v=45
63898 On ch=7 n=40 v=0
63940 On ch=7 n=59 v=0
63960 On ch=7 n=42 v=45
64018 On ch=7 n=42 v=0
64080 On ch=7 n=40 v=45
64138 On ch=7 n=40 v=0
64200 On ch=7 n=35 v=45
64258 On ch=7 n=35 v=0
64320 On ch=7 n=40 v=45
64378 On ch=7 n=40 v=0
64380 On ch=7 n=71 v=45
64440 On ch=7 n=42 v=45
64480 On ch=7 n=71 v=0
64498 On ch=7 n=42 v=0
64500 On ch=7 n=71 v=45
64560 On ch=7 n=40 v=45
64600 On ch=7 n=71 v=0
64618 On ch=7 n=40 v=0
64620 On ch=7 n=71 v=45
64680 On ch=7 n=35 v=45
64720 On ch=7 n=71 v=0
64738 On ch=7 n=35 v=0
64740 On ch=7 n=71 v=45
64800 On ch=7 n=40 v=45
64858 On ch=7 n=71 v=0
64858 On ch=7 n=40 v=0
64860 On ch=7 n=71 v=45
64920 On ch=7 n=42 v=45
64960 On ch=7 n=71 v=0
64978 On ch=7 n=42 v=0
64980 On ch=7 n=71 v=45
65040 On ch=7 n=40 v=45
65080 On ch=7 n=71 v=0
65098 On ch=7 n=40 v=0
65100 On ch=7 n=71 v=45
65160 On ch=7 n=47 v=45
65200 On ch=7 n=71 v=0
65218 On ch=7 n=47 v=0
65220 On ch=7 n=71 v=45
65280 On ch=7 n=52 v=45
65338 On ch=7 n=71 v=0
65338 On ch=7 n=52 v=0
65340 On ch=7 n=71 v=45
65400 On ch=7 n=47 v=45
65440 On ch=7 n=71 v=0
65458 On ch=7 n=47 v=0
65460 On ch=7 n=71 v=45
65520 On ch=7 n=52 v=45
65560 On ch=7 n=71 v=0
65578 On ch=7 n=52 v=0
65580 On ch=7 n=71 v=45
65640 On ch=7 n=47 v=45
65680 On ch=7 n=71 v=0
65698 On ch=7 n=47 v=0
65700 On ch=7 n=71 v=45
65758 On ch=7 n=71 v=0
65760 On ch=7 n=71 v=45
65760 On ch=7 n=52 v=45
65860 On ch=7 n=71 v=0
65860 On ch=7 n=52 v=0
65880 On ch=7 n=64 v=45
65980 On ch=7 n=64 v=0
66000 On ch=7 n=40 v=45
66100 On ch=7 n=40 v=0
66120 On ch=7 n=64 v=45
66220 On ch=7 n=64 v=0
66240 On ch=7 n=45 v=45
66340 On ch=7 n=45 v=0
66360 On ch=7 n=57 v=45
66460 On ch=7 n=57 v=0
66480 On ch=7 n=33 v=45
66580 On ch=7 n=33 v=0
66600 On ch=7 n=57 v=45
66700 On ch=7 n=57 v=0
66720 On ch=7 n=47 v=45
66820 On ch=7 n=47 v=0
66840 On ch=7 n=59 v=45
66940 On ch=7 n=59 v=0
66960 On ch=7 n=35 v=45
67060 On ch=7 n=35 v=0
67080 On ch=7 n=59 v=45
67180 On ch=7 n=59 v=0
67200 On ch=7 n=56 v=45
67200 On ch=7 n=40 v=45
67300 On ch=7 n=56 v=0
67300 On ch=7 n=40 v=0
67680 On ch=7 n=52 v=45
67680 On ch=7 n=44 v=45
68160 On ch=7 n=44 v=0
68218 On ch=7 n=52 v=0
68218 Meta TrkEnd
TrkEnd
MTrk
25320 On ch=8 n=52 v=45
25340 On ch=8 n=52 v=0
25440 On ch=8 n=45 v=45
25540 On ch=8 n=45 v=0
25680 On ch=8 n=50 v=45
25700 On ch=8 n=50 v=0
25800 On ch=8 n=52 v=45
25820 On ch=8 n=52 v=0
25920 On ch=8 n=45 v=45
25978 On ch=8 n=45 v=0
25980 On ch=8 n=57 v=92
26000 On ch=8 n=57 v=0
26040 On ch=8 n=61 v=92
26060 On ch=8 n=61 v=0
26100 On ch=8 n=57 v=92
26120 On ch=8 n=57 v=0
26160 On ch=8 n=52 v=92
26180 On ch=8 n=52 v=0
26220 On ch=8 n=57 v=92
26240 On ch=8 n=57 v=0
26280 On ch=8 n=49 v=92
26300 On ch=8 n=49 v=0
26340 On ch=8 n=52 v=92
26360 On ch=8 n=52 v=0
26400 On ch=8 n=45 v=92
26475 On ch=8 n=45 v=0
26520 On ch=8 n=57 v=92
26595 On ch=8 n=57 v=0
26640 On ch=8 n=45 v=92
26715 On ch=8 n=45 v=0
30720 On ch=8 n=45 v=45
30778 On ch=8 n=45 v=0
30840 On ch=8 n=57 v=45
30898 On ch=8 n=57 v=0
30960 On ch=8 n=45 v=45
31018 On ch=8 n=45 v=0
31080 On ch=8 n=57 v=45
31138 On ch=8 n=57 v=0
31200 On ch=8 n=45 v=45
31258 On ch=8 n=45 v=0
31320 On ch=8 n=57 v=45
31378 On ch=8 n=57 v=0
31440 On ch=8 n=45 v=45
31498 On ch=8 n=45 v=0
31560 On ch=8 n=57 v=45
31618 On ch=8 n=57 v=0
31680 On ch=8 n=50 v=45
31779 On ch=8 n=50 v=0
31920 On ch=8 n=50 v=45
32019 On ch=8 n=50 v=0
32220 On ch=8 n=52 v=45
32240 On ch=8 n=52 v=0
32280 On ch=8 n=52 v=45
32300 On ch=8 n=52 v=0
32340 On ch=8 n=52 v=45
32360 On ch=8 n=52 v=0
32400 On ch=8 n=52 v=45
32460 On ch=8 n=52 v=0
32460 On ch=8 n=56 v=45
32520 On ch=8 n=56 v=0
32520 On ch=8 n=59 v=45
32580 On ch=8 n=59 v=0
32580 On ch=8 n=56 v=45
32638 On ch=8 n=56 v=0
32640 On ch=8 n=52 v=45
32739 On ch=8 n=52 v=0
33120 On ch=8 n=54 v=45
33360 On ch=8 n=54 v=0
33360 On ch=8 n=50 v=45
33570 On ch=8 n=50 v=0
33600 On ch=8 n=49 v=45
33700 On ch=8 n=49 v=0
34560 On ch=8 n=57 v=45
34660 On ch=8 n=57 v=0
34800 On ch=8 n=50 v=45
34900 On ch=8 n=50 v=0
35040 On ch=8 n=49 v=45
35140 On ch=8 n=49 v=0
35160 On ch=8 n=54 v=45
35260 On ch=8 n=54 v=0
35280 On ch=8 n=50 v=45
35380 On ch=8 n=50 v=0
35400 On ch=8 n=52 v=45
35500 On ch=8 n=52 v=0
35520 On ch=8 n=45 v=45
35578 On ch=8 n=45 v=0
35580 On ch=8 n=57 v=92
35638 On ch=8 n=57 v=0
35640 On ch=8 n=61 v=92
35698 On ch=8 n=61 v=0
35700 On ch=8 n=57 v=92
35758 On ch=8 n=57 v=0
35760 On ch=8 n=52 v=92
35818 On ch=8 n=52 v=0
35820 On ch=8 n=57 v=92
35878 On ch=8 n=57 v=0
35880 On ch=8 n=49 v=92
35938 On ch=8 n=49 v=0
35940 On ch=8 n=52 v=92
35998 On ch=8 n=52 v=0
36000 On ch=8 n=45 v=92
36100 On ch=8 n=45 v=0
36240 On ch=8 n=54 v=45
36340 On ch=8 n=54 v=0
36480 On ch=8 n=47 v=45
36580 On ch=8 n=47 v=0
36720 On ch=8 n=52 v=45
36820 On ch=8 n=52 v=0
36960 On ch=8 n=45 v=45
37060 On ch=8 n=45 v=0
37200 On ch=8 n=53 v=45
37300 On ch=8 n=53 v=0
37440 On ch=8 n=50 v=45
37540 On ch=8 n=50 v=0
37680 On ch=8 n=52 v=45
37780 On ch=8 n=52 v=0
37920 On ch=8 n=45 v=45
37940 On ch=8 n=45 v=0
37980 On ch=8 n=57 v=45
38000 On ch=8 n=57 v=0
38040 On ch=8 n=45 v=45
38060 On ch=8 n=45 v=0
38100 On ch=8 n=57 v=45
38120 On ch=8 n=57 v=0
38160 On ch=8 n=45 v=45
38260 On ch=8 n=45 v=0
38520 On ch=8 n=56 v=75
38608 On ch=8 n=56 v=0
38610 On ch=8 n=56 v=75
38630 On ch=8 n=56 v=0
38640 On ch=8 n=55 v=75
38728 On ch=8 n=55 v=0
38730 On ch=8 n=55 v=75
38750 On ch=8 n=55 v=0
38760 On ch=8 n=56 v=75
38848 On ch=8 n=56 v=0
38850 On ch=8 n=56 v=75
38870 On ch=8 n=56 v=0
38880 On ch=8 n=55 v=60
38980 On ch=8 n=55 v=0
39120 On ch=8 n=55 v=45
39220 On ch=8 n=55 v=0
39360 On ch=8 n=56 v=45
39940 On ch=8 n=56 v=0
43800 On ch=8 n=46 v=45
44040 On ch=8 n=46 v=0
44040 On ch=8 n=47 v=45
44140 On ch=8 n=47 v=0
44160 On ch=8 n=48 v=45
44260 On ch=8 n=48 v=0
44400 On ch=8 n=48 v=45
44500 On ch=8 n=48 v=0
44640 On ch=8 n=47 v=45
44740 On ch=8 n=47 v=0
46620 On ch=8 n=47 v=92
46640 On ch=8 n=47 v=0
46680 On ch=8 n=49 v=92
46700 On ch=8 n=49 v=0
46740 On ch=8 n=51 v=92
46760 On ch=8 n=51 v=0
46800 On ch=8 n=52 v=92
46828 On ch=8 n=52 v=0
46830 On ch=8 n=51 v=92
46858 On ch=8 n=51 v=0
46860 On ch=8 n=52 v=92
46888 On ch=8 n=52 v=0
46890 On ch=8 n=54 v=92
46918 On ch=8 n=54 v=0
46920 On ch=8 n=55 v=92
46948 On ch=8 n=55 v=0
46950 On ch=8 n=54 v=92
46978 On ch=8 n=54 v=0
46980 On ch=8 n=55 v=92
47008 On ch=8 n=55 v=0
47010 On ch=8 n=57 v=92
47038 On ch=8 n=57 v=0
47040 On ch=8 n=59 v=92
47098 On ch=8 n=59 v=0
47100 On ch=8 n=47 v=92
47120 On ch=8 n=47 v=0
47160 On ch=8 n=49 v=92
47180 On ch=8 n=49 v=0
47220 On ch=8 n=51 v=92
47240 On ch=8 n=51 v=0
47280 On ch=8 n=52 v=92
47308 On ch=8 n=52 v=0
47310 On ch=8 n=51 v=92
47338 On ch=8 n=51 v=0
47340 On ch=8 n=52 v=92
47368 On ch=8 n=52 v=0
47370 On ch=8 n=54 v=92
47398 On ch=8 n=54 v=0
47400 On ch=8 n=55 v=92
47428 On ch=8 n=55 v=0
47430 On ch=8 n=54 v=92
47458 On ch=8 n=54 v=0
47460 On ch=8 n=55 v=92
47488 On ch=8 n=55 v=0
47490 On ch=8 n=57 v=92
47518 On ch=8 n=57 v=0
47520 On ch=8 n=59 v=92
47620 On ch=8 n=59 v=0
48720 On ch=8 n=54 v=45
48960 On ch=8 n=54 v=0
48960 On ch=8 n=52 v=45
49170 On ch=8 n=52 v=0
49440 On ch=8 n=52 v=45
49540 On ch=8 n=52 v=0
49680 On ch=8 n=52 v=45
49780 On ch=8 n=52 v=0
49920 On ch=8 n=54 v=45
50020 On ch=8 n=54 v=0
50160 On ch=8 n=47 v=45
50260 On ch=8 n=47 v=0
50400 On ch=8 n=52 v=45
50500 On ch=8 n=52 v=0
50640 On ch=8 n=52 v=45
50740 On ch=8 n=52 v=0
50880 On ch=8 n=54 v=45
50980 On ch=8 n=54 v=0
51120 On ch=8 n=47 v=45
51220 On ch=8 n=47 v=0
51360 On ch=8 n=52 v=45
51460 On ch=8 n=52 v=0
51540 On ch=8 n=56 v=45
51600 On ch=8 n=56 v=0
51600 On ch=8 n=57 v=45
51700 On ch=8 n=57 v=0
51780 On ch=8 n=56 v=45
51840 On ch=8 n=56 v=0
51840 On ch=8 n=57 v=45
51940 On ch=8 n=57 v=0
52020 On ch=8 n=53 v=45
52080 On ch=8 n=53 v=0
52080 On ch=8 n=54 v=45
52180 On ch=8 n=54 v=0
52260 On ch=8 n=53 v=45
52320 On ch=8 n=53 v=0
52320 On ch=8 n=54 v=45
52420 On ch=8 n=54 v=0
52500 On ch=8 n=56 v=45
52560 On ch=8 n=56 v=0
52560 On ch=8 n=57 v=45
52660 On ch=8 n=57 v=0
52800 On ch=8 n=47 v=45
53160 On ch=8 n=47 v=0
53160 On ch=8 n=45 v=45
53280 On ch=8 n=45 v=0
53280 On ch=8 n=44 v=45
53380 On ch=8 n=44 v=0
53640 On ch=8 n=56 v=45
53760 On ch=8 n=56 v=0
53760 On ch=8 n=57 v=45
53860 On ch=8 n=57 v=0
54360 On ch=8 n=58 v=45
54480 On ch=8 n=58 v=0
54480 On ch=8 n=59 v=45
54720 On ch=8 n=59 v=0
54720 On ch=8 n=52 v=45
54820 On ch=8 n=52 v=0
59040 On ch=8 n=60 v=45
59280 On ch=8 n=60 v=0
59280 On ch=8 n=59 v=45
59380 On ch=8 n=59 v=0
59520 On ch=8 n=60 v=45
59760 On ch=8 n=60 v=0
59760 On ch=8 n=59 v=45
59860 On ch=8 n=59 v=0
60120 On ch=8 n=59 v=45
60178 On ch=8 n=59 v=0
60240 On ch=8 n=54 v=45
60298 On ch=8 n=54 v=0
60360 On ch=8 n=51 v=45
60418 On ch=8 n=51 v=0
60480 On ch=8 n=47 v=45
60580 On ch=8 n=47 v=0
61200 On ch=8 n=59 v=45
61410 On ch=8 n=59 v=0
61440 On ch=8 n=56 v=45
61620 On ch=8 n=56 v=0
61620 On ch=8 n=57 v=45
61678 On ch=8 n=57 v=0
61680 On ch=8 n=61 v=45
61740 On ch=8 n=61 v=0
61740 On ch=8 n=59 v=45
61798 On ch=8 n=59 v=0
61800 On ch=8 n=57 v=45
61819 On ch=8 n=57 v=0
61860 On ch=8 n=56 v=45
61879 On ch=8 n=56 v=0
61920 On ch=8 n=54 v=45
62100 On ch=8 n=54 v=0
62100 On ch=8 n=56 v=45
62158 On ch=8 n=56 v=0
62160 On ch=8 n=59 v=45
62220 On ch=8 n=59 v=0
62220 On ch=8 n=57 v=45
62278 On ch=8 n=57 v=0
62280 On ch=8 n=56 v=45
62299 On ch=8 n=56 v=0
62340 On ch=8 n=54 v=45
62359 On ch=8 n=54 v=0
62400 On ch=8 n=52 v=45
62500 On ch=8 n=52 v=0
62580 On ch=8 n=52 v=45
62638 On ch=8 n=52 v=0
62640 On ch=8 n=54 v=45
62670 On ch=8 n=54 v=0
62760 On ch=8 n=52 v=45
62790 On ch=8 n=52 v=0
62880 On ch=8 n=51 v=45
62910 On ch=8 n=51 v=0
63000 On ch=8 n=59 v=45
63030 On ch=8 n=59 v=0
63240 On ch=8 n=57 v=45
63360 On ch=8 n=57 v=0
63360 On ch=8 n=56 v=45
63480 On ch=8 n=56 v=0
63480 On ch=8 n=57 v=45
63580 On ch=8 n=57 v=0
63600 On ch=8 n=59 v=45
63700 On ch=8 n=59 v=0
63720 On ch=8 n=47 v=45
63820 On ch=8 n=47 v=0
63840 On ch=8 n=52 v=45
63898 On ch=8 n=52 v=0
63960 On ch=8 n=54 v=45
64018 On ch=8 n=54 v=0
64080 On ch=8 n=52 v=45
64138 On ch=8 n=52 v=0
64200 On ch=8 n=47 v=45
64258 On ch=8 n=47 v=0
64320 On ch=8 n=52 v=45
64378 On ch=8 n=52 v=0
64440 On ch=8 n=54 v=45
64498 On ch=8 n=54 v=0
64560 On ch=8 n=52 v=45
64618 On ch=8 n=52 v=0
64680 On ch=8 n=47 v=45
64738 On ch=8 n=47 v=0
64800 On ch=8 n=52 v=45
64858 On ch=8 n=52 v=0
64920 On ch=8 n=54 v=45
64978 On ch=8 n=54 v=0
65040 On ch=8 n=52 v=45
65098 On ch=8 n=52 v=0
65160 On ch=8 n=59 v=45
65218 On ch=8 n=59 v=0
65280 On ch=8 n=64 v=45
65338 On ch=8 n=64 v=0
65400 On ch=8 n=59 v=45
65458 On ch=8 n=59 v=0
65520 On ch=8 n=64 v=45
65578 On ch=8 n=64 v=0
65640 On ch=8 n=59 v=45
65698 On ch=8 n=59 v=0
65760 On ch=8 n=64 v=45
65860 On ch=8 n=64 v=0
66000 On ch=8 n=52 v=45
66100 On ch=8 n=52 v=0
66240 On ch=8 n=57 v=45
66340 On ch=8 n=57 v=0
66480 On ch=8 n=45 v=45
66580 On ch=8 n=45 v=0
66720 On ch=8 n=59 v=45
66820 On ch=8 n=59 v=0
66960 On ch=8 n=47 v=45
67060 On ch=8 n=47 v=0
67200 On ch=8 n=52 v=45
67300 On ch=8 n=52 v=0
67680 On ch=8 n=56 v=45
68160 On ch=8 n=56 v=0
68160 Meta TrkEnd
TrkEnd
