MFile 1 7 120
MTrk
0 TimeSig 4/4 24 8
0 Tempo 600000
0 Meta TrkEnd
TrkEnd
MTrk
2458 On ch=1 n=60 v=0
2578 On ch=1 n=60 v=0
2578 Meta TrkEnd
TrkEnd
MTrk
0 On ch=4 n=76 v=45
210 On ch=4 n=76 v=0
240 On ch=4 n=73 v=45
420 On ch=4 n=73 v=0
420 On ch=4 n=74 v=45
478 On ch=4 n=74 v=0
480 On ch=4 n=78 v=45
540 On ch=4 n=78 v=0
540 On ch=4 n=76 v=45
598 On ch=4 n=76 v=0
600 On ch=4 n=74 v=45
620 On ch=4 n=74 v=0
660 On ch=4 n=73 v=45
680 On ch=4 n=73 v=0
720 On ch=4 n=73 v=45
820 On ch=4 n=73 v=0
960 On ch=4 n=74 v=45
1080 On ch=4 n=74 v=0
1080 On ch=4 n=71 v=45
1138 On ch=4 n=71 v=0
1200 On ch=4 n=74 v=45
1320 On ch=4 n=74 v=0
1320 On ch=4 n=71 v=45
1378 On ch=4 n=71 v=0
1440 On ch=4 n=69 v=45
1680 On ch=4 n=69 v=0
1680 On ch=4 n=68 v=45
1738 On ch=4 n=68 v=0
1920 On ch=4 n=69 v=45
2220 On ch=4 n=69 v=0
2220 On ch=4 n=68 v=45
2280 On ch=4 n=68 v=0
2280 On ch=4 n=69 v=45
2340 On ch=4 n=69 v=0
2340 On ch=4 n=66 v=45
2398 On ch=4 n=66 v=0
2400 On ch=4 n=64 v=45
2460 On ch=4 n=64 v=0
2460 Meta TrkEnd
TrkEnd
MTrk
0 On ch=5 n=76 v=45
210 On ch=5 n=76 v=0
240 On ch=5 n=73 v=45
420 On ch=5 n=73 v=0
420 On ch=5 n=74 v=45
478 On ch=5 n=74 v=0
480 On ch=5 n=78 v=45
540 On ch=5 n=78 v=0
540 On ch=5 n=76 v=45
598 On ch=5 n=76 v=0
600 On ch=5 n=74 v=45
620 On ch=5 n=74 v=0
660 On ch=5 n=73 v=45
680 On ch=5 n=73 v=0
720 On ch=5 n=73 v=45
820 On ch=5 n=73 v=0
960 On ch=5 n=74 v=45
1080 On ch=5 n=74 v=0
1080 On ch=5 n=71 v=45
1138 On ch=5 n=71 v=0
1200 On ch=5 n=74 v=45
1320 On ch=5 n=74 v=0
1320 On ch=5 n=71 v=45
1378 On ch=5 n=71 v=0
1440 On ch=5 n=69 v=45
1680 On ch=5 n=69 v=0
1680 On ch=5 n=68 v=45
1738 On ch=5 n=68 v=0
1920 On ch=5 n=69 v=45
2220 On ch=5 n=69 v=0
2220 On ch=5 n=68 v=45
2280 On ch=5 n=68 v=0
2280 On ch=5 n=69 v=45
2340 On ch=5 n=69 v=0
2340 On ch=5 n=66 v=45
2398 On ch=5 n=66 v=0
2400 On ch=5 n=64 v=45
2460 On ch=5 n=64 v=0
2460 Meta TrkEnd
TrkEnd
MTrk
0 On ch=6 n=73 v=45
210 On ch=6 n=73 v=0
240 On ch=6 n=69 v=45
420 On ch=6 n=69 v=0
420 On ch=6 n=71 v=45
478 On ch=6 n=71 v=0
480 On ch=6 n=74 v=45
540 On ch=6 n=74 v=0
540 On ch=6 n=73 v=45
598 On ch=6 n=73 v=0
600 On ch=6 n=71 v=45
620 On ch=6 n=71 v=0
660 On ch=6 n=69 v=45
680 On ch=6 n=69 v=0
720 On ch=6 n=69 v=45
820 On ch=6 n=69 v=0
960 On ch=6 n=66 v=45
1080 On ch=6 n=66 v=0
1080 On ch=6 n=62 v=45
1138 On ch=6 n=62 v=0
1200 On ch=6 n=66 v=45
1320 On ch=6 n=66 v=0
1320 On ch=6 n=62 v=45
1378 On ch=6 n=62 v=0
1440 On ch=6 n=61 v=45
1680 On ch=6 n=61 v=0
1680 On ch=6 n=59 v=45
1738 On ch=6 n=59 v=0
1980 On ch=6 n=64 v=45
2038 On ch=6 n=64 v=0
2040 On ch=6 n=64 v=45
2098 On ch=6 n=64 v=0
2100 On ch=6 n=64 v=45
2158 On ch=6 n=64 v=0
2160 On ch=6 n=62 v=45
2218 On ch=6 n=62 v=0
2220 On ch=6 n=62 v=45
2278 On ch=6 n=62 v=0
2280 On ch=6 n=61 v=45
2338 On ch=6 n=61 v=0
2340 On ch=6 n=61 v=45
2398 On ch=6 n=61 v=0
2400 On ch=6 n=59 v=45
2458 On ch=6 n=59 v=0
2458 Meta TrkEnd
TrkEnd
MTrk
0 On ch=7 n=57 v=45
0 On ch=7 n=45 v=45
58 On ch=7 n=57 v=0
58 On ch=7 n=45 v=0
60 On ch=7 n=57 v=45
60 On ch=7 n=45 v=45
118 On ch=7 n=57 v=0
118 On ch=7 n=45 v=0
120 On ch=7 n=57 v=45
120 On ch=7 n=45 v=45
178 On ch=7 n=57 v=0
178 On ch=7 n=45 v=0
180 On ch=7 n=57 v=45
180 On ch=7 n=45 v=45
238 On ch=7 n=57 v=0
238 On ch=7 n=45 v=0
240 On ch=7 n=57 v=45
240 On ch=7 n=45 v=45
298 On ch=7 n=57 v=0
298 On ch=7 n=45 v=0
300 On ch=7 n=57 v=45
300 On ch=7 n=45 v=45
358 On ch=7 n=57 v=0
358 On ch=7 n=45 v=0
360 On ch=7 n=57 v=45
360 On ch=7 n=45 v=45
418 On ch=7 n=57 v=0
418 On ch=7 n=45 v=0
420 On ch=7 n=57 v=45
420 On ch=7 n=45 v=45
478 On ch=7 n=57 v=0
478 On ch=7 n=45 v=0
480 On ch=7 n=57 v=45
480 On ch=7 n=45 v=45
538 On ch=7 n=57 v=0
538 On ch=7 n=45 v=0
540 On ch=7 n=57 v=45
540 On ch=7 n=45 v=45
598 On ch=7 n=57 v=0
598 On ch=7 n=45 v=0
600 On ch=7 n=57 v=45
600 On ch=7 n=45 v=45
658 On ch=7 n=57 v=0
658 On ch=7 n=45 v=0
660 On ch=7 n=57 v=45
660 On ch=7 n=45 v=45
718 On ch=7 n=57 v=0
718 On ch=7 n=45 v=0
720 On ch=7 n=57 v=45
720 On ch=7 n=45 v=45
778 On ch=7 n=57 v=0
778 On ch=7 n=45 v=0
780 On ch=7 n=57 v=45
780 On ch=7 n=45 v=45
838 On ch=7 n=57 v=0
838 On ch=7 n=45 v=0
840 On ch=7 n=57 v=45
840 On ch=7 n=45 v=45
898 On ch=7 n=57 v=0
898 On ch=7 n=45 v=0
900 On ch=7 n=57 v=45
900 On ch=7 n=45 v=45
958 On ch=7 n=57 v=0
958 On ch=7 n=45 v=0
960 On ch=7 n=59 v=45
960 On ch=7 n=38 v=45
1060 On ch=7 n=59 v=0
1060 On ch=7 n=38 v=0
1200 On ch=7 n=59 v=45
1200 On ch=7 n=38 v=45
1300 On ch=7 n=59 v=0
1300 On ch=7 n=38 v=0
1440 On ch=7 n=52 v=45
1500 On ch=7 n=40 v=45
1558 On ch=7 n=40 v=0
1560 On ch=7 n=40 v=45
1618 On ch=7 n=40 v=0
1620 On ch=7 n=40 v=45
1678 On ch=7 n=40 v=0
1680 On ch=7 n=40 v=45
1738 On ch=7 n=52 v=0
1738 On ch=7 n=40 v=0
1740 On ch=7 n=52 v=45
1800 On ch=7 n=52 v=0
1800 On ch=7 n=51 v=45
1860 On ch=7 n=51 v=0
1860 On ch=7 n=50 v=45
1918 On ch=7 n=50 v=0
1920 On ch=7 n=64 v=45
1920 On ch=7 n=49 v=45
1978 On ch=7 n=49 v=0
1980 On ch=7 n=49 v=45
2038 On ch=7 n=49 v=0
2040 On ch=7 n=49 v=45
2098 On ch=7 n=49 v=0
2100 On ch=7 n=49 v=45
2158 On ch=7 n=49 v=0
2160 On ch=7 n=47 v=45
2218 On ch=7 n=47 v=0
2220 On ch=7 n=47 v=45
2278 On ch=7 n=47 v=0
2280 On ch=7 n=45 v=45
2338 On ch=7 n=45 v=0
2340 On ch=7 n=45 v=45
2398 On ch=7 n=45 v=0
2400 On ch=7 n=44 v=45
2458 On ch=7 n=44 v=0
2850 On ch=7 n=64 v=0
2850 Meta TrkEnd
TrkEnd
MTrk
0 On ch=8 n=57 v=45
58 On ch=8 n=57 v=0
60 On ch=8 n=57 v=45
118 On ch=8 n=57 v=0
120 On ch=8 n=57 v=45
178 On ch=8 n=57 v=0
180 On ch=8 n=57 v=45
238 On ch=8 n=57 v=0
240 On ch=8 n=57 v=45
298 On ch=8 n=57 v=0
300 On ch=8 n=57 v=45
358 On ch=8 n=57 v=0
360 On ch=8 n=57 v=45
418 On ch=8 n=57 v=0
420 On ch=8 n=57 v=45
478 On ch=8 n=57 v=0
480 On ch=8 n=57 v=45
538 On ch=8 n=57 v=0
540 On ch=8 n=57 v=45
598 On ch=8 n=57 v=0
600 On ch=8 n=57 v=45
658 On ch=8 n=57 v=0
660 On ch=8 n=57 v=45
718 On ch=8 n=57 v=0
720 On ch=8 n=57 v=45
778 On ch=8 n=57 v=0
780 On ch=8 n=57 v=45
838 On ch=8 n=57 v=0
840 On ch=8 n=57 v=45
898 On ch=8 n=57 v=0
900 On ch=8 n=57 v=45
958 On ch=8 n=57 v=0
960 On ch=8 n=50 v=45
1060 On ch=8 n=50 v=0
1200 On ch=8 n=50 v=45
1300 On ch=8 n=50 v=0
1500 On ch=8 n=52 v=45
1558 On ch=8 n=52 v=0
1560 On ch=8 n=52 v=45
1618 On ch=8 n=52 v=0
1620 On ch=8 n=52 v=45
1678 On ch=8 n=52 v=0
1680 On ch=8 n=52 v=45
1738 On ch=8 n=52 v=0
1740 On ch=8 n=64 v=45
1800 On ch=8 n=64 v=0
1800 On ch=8 n=63 v=45
1860 On ch=8 n=63 v=0
1860 On ch=8 n=62 v=45
1918 On ch=8 n=62 v=0
1920 On ch=8 n=61 v=45
1978 On ch=8 n=61 v=0
1980 On ch=8 n=61 v=45
2038 On ch=8 n=61 v=0
2040 On ch=8 n=61 v=45
2098 On ch=8 n=61 v=0
2100 On ch=8 n=61 v=45
2158 On ch=8 n=61 v=0
2160 On ch=8 n=59 v=45
2218 On ch=8 n=59 v=0
2220 On ch=8 n=59 v=45
2278 On ch=8 n=59 v=0
2280 On ch=8 n=57 v=45
2338 On ch=8 n=57 v=0
2340 On ch=8 n=57 v=45
2398 On ch=8 n=57 v=0
2400 On ch=8 n=56 v=45
2458 On ch=8 n=56 v=0
2458 Meta TrkEnd
TrkEnd
